G04 #@! TF.GenerationSoftware,KiCad,Pcbnew,(5.1.4)-1*
G04 #@! TF.CreationDate,2019-10-27T13:01:12+01:00*
G04 #@! TF.ProjectId,project,70726f6a-6563-4742-9e6b-696361645f70,1b*
G04 #@! TF.SameCoordinates,Original*
G04 #@! TF.FileFunction,Soldermask,Top*
G04 #@! TF.FilePolarity,Negative*
%FSLAX46Y46*%
G04 Gerber Fmt 4.6, Leading zero omitted, Abs format (unit mm)*
G04 Created by KiCad (PCBNEW (5.1.4)-1) date 2019-10-27 13:01:12*
%MOMM*%
%LPD*%
G04 APERTURE LIST*
%ADD10C,0.100000*%
G04 APERTURE END LIST*
D10*
G36*
X135930300Y-101728200D02*
G01*
X134330300Y-101728200D01*
X134330300Y-98828200D01*
X135930300Y-98828200D01*
X135930300Y-101728200D01*
X135930300Y-101728200D01*
G37*
G36*
X133930300Y-101728200D02*
G01*
X132330300Y-101728200D01*
X132330300Y-98828200D01*
X133930300Y-98828200D01*
X133930300Y-101728200D01*
X133930300Y-101728200D01*
G37*
G36*
X121930300Y-101728200D02*
G01*
X120330300Y-101728200D01*
X120330300Y-98828200D01*
X121930300Y-98828200D01*
X121930300Y-101728200D01*
X121930300Y-101728200D01*
G37*
G36*
X123930300Y-101728200D02*
G01*
X122330300Y-101728200D01*
X122330300Y-98828200D01*
X123930300Y-98828200D01*
X123930300Y-101728200D01*
X123930300Y-101728200D01*
G37*
G36*
X125930300Y-101728200D02*
G01*
X124330300Y-101728200D01*
X124330300Y-98828200D01*
X125930300Y-98828200D01*
X125930300Y-101728200D01*
X125930300Y-101728200D01*
G37*
G36*
X127930300Y-101728200D02*
G01*
X126330300Y-101728200D01*
X126330300Y-98828200D01*
X127930300Y-98828200D01*
X127930300Y-101728200D01*
X127930300Y-101728200D01*
G37*
G36*
X129930300Y-101728200D02*
G01*
X128330300Y-101728200D01*
X128330300Y-98828200D01*
X129930300Y-98828200D01*
X129930300Y-101728200D01*
X129930300Y-101728200D01*
G37*
G36*
X131930300Y-101728200D02*
G01*
X130330300Y-101728200D01*
X130330300Y-98828200D01*
X131930300Y-98828200D01*
X131930300Y-101728200D01*
X131930300Y-101728200D01*
G37*
G36*
X118098987Y-98472227D02*
G01*
X118276574Y-98507550D01*
X118467662Y-98586702D01*
X118639636Y-98701611D01*
X118785889Y-98847864D01*
X118900798Y-99019838D01*
X118979950Y-99210926D01*
X119020300Y-99413784D01*
X119020300Y-99620616D01*
X118979950Y-99823474D01*
X118900798Y-100014562D01*
X118785889Y-100186536D01*
X118639636Y-100332789D01*
X118467662Y-100447698D01*
X118276574Y-100526850D01*
X118098987Y-100562173D01*
X118073717Y-100567200D01*
X117866883Y-100567200D01*
X117841613Y-100562173D01*
X117664026Y-100526850D01*
X117472938Y-100447698D01*
X117300964Y-100332789D01*
X117154711Y-100186536D01*
X117039802Y-100014562D01*
X116960650Y-99823474D01*
X116920300Y-99620616D01*
X116920300Y-99413784D01*
X116960650Y-99210926D01*
X117039802Y-99019838D01*
X117154711Y-98847864D01*
X117300964Y-98701611D01*
X117472938Y-98586702D01*
X117664026Y-98507550D01*
X117841613Y-98472227D01*
X117866883Y-98467200D01*
X118073717Y-98467200D01*
X118098987Y-98472227D01*
X118098987Y-98472227D01*
G37*
G36*
X138431687Y-98472227D02*
G01*
X138609274Y-98507550D01*
X138800362Y-98586702D01*
X138972336Y-98701611D01*
X139118589Y-98847864D01*
X139233498Y-99019838D01*
X139312650Y-99210926D01*
X139353000Y-99413784D01*
X139353000Y-99620616D01*
X139312650Y-99823474D01*
X139233498Y-100014562D01*
X139118589Y-100186536D01*
X138972336Y-100332789D01*
X138800362Y-100447698D01*
X138609274Y-100526850D01*
X138431687Y-100562173D01*
X138406417Y-100567200D01*
X138199583Y-100567200D01*
X138174313Y-100562173D01*
X137996726Y-100526850D01*
X137805638Y-100447698D01*
X137633664Y-100332789D01*
X137487411Y-100186536D01*
X137372502Y-100014562D01*
X137293350Y-99823474D01*
X137253000Y-99620616D01*
X137253000Y-99413784D01*
X137293350Y-99210926D01*
X137372502Y-99019838D01*
X137487411Y-98847864D01*
X137633664Y-98701611D01*
X137805638Y-98586702D01*
X137996726Y-98507550D01*
X138174313Y-98472227D01*
X138199583Y-98467200D01*
X138406417Y-98467200D01*
X138431687Y-98472227D01*
X138431687Y-98472227D01*
G37*
G36*
X138431707Y-95934797D02*
G01*
X138508836Y-95942393D01*
X138706762Y-96002433D01*
X138706765Y-96002434D01*
X138889170Y-96099932D01*
X139049055Y-96231145D01*
X139180268Y-96391030D01*
X139277766Y-96573435D01*
X139277767Y-96573438D01*
X139337807Y-96771364D01*
X139358080Y-96977200D01*
X139337807Y-97183036D01*
X139277767Y-97380962D01*
X139277766Y-97380965D01*
X139180268Y-97563370D01*
X139049055Y-97723255D01*
X138889170Y-97854468D01*
X138706765Y-97951966D01*
X138706762Y-97951967D01*
X138508836Y-98012007D01*
X138431707Y-98019603D01*
X138354580Y-98027200D01*
X138251420Y-98027200D01*
X138174293Y-98019603D01*
X138097164Y-98012007D01*
X137899238Y-97951967D01*
X137899235Y-97951966D01*
X137716830Y-97854468D01*
X137556945Y-97723255D01*
X137425732Y-97563370D01*
X137328234Y-97380965D01*
X137328233Y-97380962D01*
X137268193Y-97183036D01*
X137247920Y-96977200D01*
X137268193Y-96771364D01*
X137328233Y-96573438D01*
X137328234Y-96573435D01*
X137425732Y-96391030D01*
X137556945Y-96231145D01*
X137716830Y-96099932D01*
X137899235Y-96002434D01*
X137899238Y-96002433D01*
X138097164Y-95942393D01*
X138174293Y-95934797D01*
X138251420Y-95927200D01*
X138354580Y-95927200D01*
X138431707Y-95934797D01*
X138431707Y-95934797D01*
G37*
G36*
X118099007Y-95934797D02*
G01*
X118176136Y-95942393D01*
X118374062Y-96002433D01*
X118374065Y-96002434D01*
X118556470Y-96099932D01*
X118716355Y-96231145D01*
X118847568Y-96391030D01*
X118945066Y-96573435D01*
X118945067Y-96573438D01*
X119005107Y-96771364D01*
X119025380Y-96977200D01*
X119005107Y-97183036D01*
X118945067Y-97380962D01*
X118945066Y-97380965D01*
X118847568Y-97563370D01*
X118716355Y-97723255D01*
X118556470Y-97854468D01*
X118374065Y-97951966D01*
X118374062Y-97951967D01*
X118176136Y-98012007D01*
X118099007Y-98019603D01*
X118021880Y-98027200D01*
X117918720Y-98027200D01*
X117841593Y-98019603D01*
X117764464Y-98012007D01*
X117566538Y-97951967D01*
X117566535Y-97951966D01*
X117384130Y-97854468D01*
X117224245Y-97723255D01*
X117093032Y-97563370D01*
X116995534Y-97380965D01*
X116995533Y-97380962D01*
X116935493Y-97183036D01*
X116915220Y-96977200D01*
X116935493Y-96771364D01*
X116995533Y-96573438D01*
X116995534Y-96573435D01*
X117093032Y-96391030D01*
X117224245Y-96231145D01*
X117384130Y-96099932D01*
X117566535Y-96002434D01*
X117566538Y-96002433D01*
X117764464Y-95942393D01*
X117841593Y-95934797D01*
X117918720Y-95927200D01*
X118021880Y-95927200D01*
X118099007Y-95934797D01*
X118099007Y-95934797D01*
G37*
G36*
X118099007Y-93394796D02*
G01*
X118176136Y-93402393D01*
X118374062Y-93462433D01*
X118374065Y-93462434D01*
X118556470Y-93559932D01*
X118716355Y-93691145D01*
X118847568Y-93851030D01*
X118945066Y-94033435D01*
X118945067Y-94033438D01*
X119005107Y-94231364D01*
X119025380Y-94437200D01*
X119005107Y-94643036D01*
X118945067Y-94840962D01*
X118945066Y-94840965D01*
X118847568Y-95023370D01*
X118716355Y-95183255D01*
X118556470Y-95314468D01*
X118374065Y-95411966D01*
X118374062Y-95411967D01*
X118176136Y-95472007D01*
X118099007Y-95479603D01*
X118021880Y-95487200D01*
X117918720Y-95487200D01*
X117841593Y-95479603D01*
X117764464Y-95472007D01*
X117566538Y-95411967D01*
X117566535Y-95411966D01*
X117384130Y-95314468D01*
X117224245Y-95183255D01*
X117093032Y-95023370D01*
X116995534Y-94840965D01*
X116995533Y-94840962D01*
X116935493Y-94643036D01*
X116915220Y-94437200D01*
X116935493Y-94231364D01*
X116995533Y-94033438D01*
X116995534Y-94033435D01*
X117093032Y-93851030D01*
X117224245Y-93691145D01*
X117384130Y-93559932D01*
X117566535Y-93462434D01*
X117566538Y-93462433D01*
X117764464Y-93402393D01*
X117841593Y-93394796D01*
X117918720Y-93387200D01*
X118021880Y-93387200D01*
X118099007Y-93394796D01*
X118099007Y-93394796D01*
G37*
G36*
X138431707Y-93394796D02*
G01*
X138508836Y-93402393D01*
X138706762Y-93462433D01*
X138706765Y-93462434D01*
X138889170Y-93559932D01*
X139049055Y-93691145D01*
X139180268Y-93851030D01*
X139277766Y-94033435D01*
X139277767Y-94033438D01*
X139337807Y-94231364D01*
X139358080Y-94437200D01*
X139337807Y-94643036D01*
X139277767Y-94840962D01*
X139277766Y-94840965D01*
X139180268Y-95023370D01*
X139049055Y-95183255D01*
X138889170Y-95314468D01*
X138706765Y-95411966D01*
X138706762Y-95411967D01*
X138508836Y-95472007D01*
X138431707Y-95479603D01*
X138354580Y-95487200D01*
X138251420Y-95487200D01*
X138174293Y-95479603D01*
X138097164Y-95472007D01*
X137899238Y-95411967D01*
X137899235Y-95411966D01*
X137716830Y-95314468D01*
X137556945Y-95183255D01*
X137425732Y-95023370D01*
X137328234Y-94840965D01*
X137328233Y-94840962D01*
X137268193Y-94643036D01*
X137247920Y-94437200D01*
X137268193Y-94231364D01*
X137328233Y-94033438D01*
X137328234Y-94033435D01*
X137425732Y-93851030D01*
X137556945Y-93691145D01*
X137716830Y-93559932D01*
X137899235Y-93462434D01*
X137899238Y-93462433D01*
X138097164Y-93402393D01*
X138174293Y-93394796D01*
X138251420Y-93387200D01*
X138354580Y-93387200D01*
X138431707Y-93394796D01*
X138431707Y-93394796D01*
G37*
G36*
X118099007Y-90854797D02*
G01*
X118176136Y-90862393D01*
X118374062Y-90922433D01*
X118374065Y-90922434D01*
X118556470Y-91019932D01*
X118716355Y-91151145D01*
X118847568Y-91311030D01*
X118945066Y-91493435D01*
X118945067Y-91493438D01*
X119005107Y-91691364D01*
X119025380Y-91897200D01*
X119005107Y-92103036D01*
X118945067Y-92300962D01*
X118945066Y-92300965D01*
X118847568Y-92483370D01*
X118716355Y-92643255D01*
X118556470Y-92774468D01*
X118374065Y-92871966D01*
X118374062Y-92871967D01*
X118176136Y-92932007D01*
X118099007Y-92939603D01*
X118021880Y-92947200D01*
X117918720Y-92947200D01*
X117841593Y-92939603D01*
X117764464Y-92932007D01*
X117566538Y-92871967D01*
X117566535Y-92871966D01*
X117384130Y-92774468D01*
X117224245Y-92643255D01*
X117093032Y-92483370D01*
X116995534Y-92300965D01*
X116995533Y-92300962D01*
X116935493Y-92103036D01*
X116915220Y-91897200D01*
X116935493Y-91691364D01*
X116995533Y-91493438D01*
X116995534Y-91493435D01*
X117093032Y-91311030D01*
X117224245Y-91151145D01*
X117384130Y-91019932D01*
X117566535Y-90922434D01*
X117566538Y-90922433D01*
X117764464Y-90862393D01*
X117841593Y-90854797D01*
X117918720Y-90847200D01*
X118021880Y-90847200D01*
X118099007Y-90854797D01*
X118099007Y-90854797D01*
G37*
G36*
X138431707Y-90854797D02*
G01*
X138508836Y-90862393D01*
X138706762Y-90922433D01*
X138706765Y-90922434D01*
X138889170Y-91019932D01*
X139049055Y-91151145D01*
X139180268Y-91311030D01*
X139277766Y-91493435D01*
X139277767Y-91493438D01*
X139337807Y-91691364D01*
X139358080Y-91897200D01*
X139337807Y-92103036D01*
X139277767Y-92300962D01*
X139277766Y-92300965D01*
X139180268Y-92483370D01*
X139049055Y-92643255D01*
X138889170Y-92774468D01*
X138706765Y-92871966D01*
X138706762Y-92871967D01*
X138508836Y-92932007D01*
X138431707Y-92939603D01*
X138354580Y-92947200D01*
X138251420Y-92947200D01*
X138174293Y-92939603D01*
X138097164Y-92932007D01*
X137899238Y-92871967D01*
X137899235Y-92871966D01*
X137716830Y-92774468D01*
X137556945Y-92643255D01*
X137425732Y-92483370D01*
X137328234Y-92300965D01*
X137328233Y-92300962D01*
X137268193Y-92103036D01*
X137247920Y-91897200D01*
X137268193Y-91691364D01*
X137328233Y-91493438D01*
X137328234Y-91493435D01*
X137425732Y-91311030D01*
X137556945Y-91151145D01*
X137716830Y-91019932D01*
X137899235Y-90922434D01*
X137899238Y-90922433D01*
X138097164Y-90862393D01*
X138174293Y-90854797D01*
X138251420Y-90847200D01*
X138354580Y-90847200D01*
X138431707Y-90854797D01*
X138431707Y-90854797D01*
G37*
G36*
X118099007Y-88314796D02*
G01*
X118176136Y-88322393D01*
X118374062Y-88382433D01*
X118374065Y-88382434D01*
X118556470Y-88479932D01*
X118716355Y-88611145D01*
X118847568Y-88771030D01*
X118945066Y-88953435D01*
X118945067Y-88953438D01*
X119005107Y-89151364D01*
X119025380Y-89357200D01*
X119005107Y-89563036D01*
X118945067Y-89760962D01*
X118945066Y-89760965D01*
X118847568Y-89943370D01*
X118716355Y-90103255D01*
X118556470Y-90234468D01*
X118374065Y-90331966D01*
X118374062Y-90331967D01*
X118176136Y-90392007D01*
X118099007Y-90399603D01*
X118021880Y-90407200D01*
X117918720Y-90407200D01*
X117841593Y-90399603D01*
X117764464Y-90392007D01*
X117566538Y-90331967D01*
X117566535Y-90331966D01*
X117384130Y-90234468D01*
X117224245Y-90103255D01*
X117093032Y-89943370D01*
X116995534Y-89760965D01*
X116995533Y-89760962D01*
X116935493Y-89563036D01*
X116915220Y-89357200D01*
X116935493Y-89151364D01*
X116995533Y-88953438D01*
X116995534Y-88953435D01*
X117093032Y-88771030D01*
X117224245Y-88611145D01*
X117384130Y-88479932D01*
X117566535Y-88382434D01*
X117566538Y-88382433D01*
X117764464Y-88322393D01*
X117841593Y-88314796D01*
X117918720Y-88307200D01*
X118021880Y-88307200D01*
X118099007Y-88314796D01*
X118099007Y-88314796D01*
G37*
G36*
X138431707Y-88314796D02*
G01*
X138508836Y-88322393D01*
X138706762Y-88382433D01*
X138706765Y-88382434D01*
X138889170Y-88479932D01*
X139049055Y-88611145D01*
X139180268Y-88771030D01*
X139277766Y-88953435D01*
X139277767Y-88953438D01*
X139337807Y-89151364D01*
X139358080Y-89357200D01*
X139337807Y-89563036D01*
X139277767Y-89760962D01*
X139277766Y-89760965D01*
X139180268Y-89943370D01*
X139049055Y-90103255D01*
X138889170Y-90234468D01*
X138706765Y-90331966D01*
X138706762Y-90331967D01*
X138508836Y-90392007D01*
X138431707Y-90399603D01*
X138354580Y-90407200D01*
X138251420Y-90407200D01*
X138174293Y-90399603D01*
X138097164Y-90392007D01*
X137899238Y-90331967D01*
X137899235Y-90331966D01*
X137716830Y-90234468D01*
X137556945Y-90103255D01*
X137425732Y-89943370D01*
X137328234Y-89760965D01*
X137328233Y-89760962D01*
X137268193Y-89563036D01*
X137247920Y-89357200D01*
X137268193Y-89151364D01*
X137328233Y-88953438D01*
X137328234Y-88953435D01*
X137425732Y-88771030D01*
X137556945Y-88611145D01*
X137716830Y-88479932D01*
X137899235Y-88382434D01*
X137899238Y-88382433D01*
X138097164Y-88322393D01*
X138174293Y-88314796D01*
X138251420Y-88307200D01*
X138354580Y-88307200D01*
X138431707Y-88314796D01*
X138431707Y-88314796D01*
G37*
G36*
X118099007Y-85774797D02*
G01*
X118176136Y-85782393D01*
X118374062Y-85842433D01*
X118374065Y-85842434D01*
X118556470Y-85939932D01*
X118716355Y-86071145D01*
X118847568Y-86231030D01*
X118945066Y-86413435D01*
X118945067Y-86413438D01*
X119005107Y-86611364D01*
X119025380Y-86817200D01*
X119005107Y-87023036D01*
X118945067Y-87220962D01*
X118945066Y-87220965D01*
X118847568Y-87403370D01*
X118716355Y-87563255D01*
X118556470Y-87694468D01*
X118374065Y-87791966D01*
X118374062Y-87791967D01*
X118176136Y-87852007D01*
X118099007Y-87859604D01*
X118021880Y-87867200D01*
X117918720Y-87867200D01*
X117841593Y-87859604D01*
X117764464Y-87852007D01*
X117566538Y-87791967D01*
X117566535Y-87791966D01*
X117384130Y-87694468D01*
X117224245Y-87563255D01*
X117093032Y-87403370D01*
X116995534Y-87220965D01*
X116995533Y-87220962D01*
X116935493Y-87023036D01*
X116915220Y-86817200D01*
X116935493Y-86611364D01*
X116995533Y-86413438D01*
X116995534Y-86413435D01*
X117093032Y-86231030D01*
X117224245Y-86071145D01*
X117384130Y-85939932D01*
X117566535Y-85842434D01*
X117566538Y-85842433D01*
X117764464Y-85782393D01*
X117841593Y-85774797D01*
X117918720Y-85767200D01*
X118021880Y-85767200D01*
X118099007Y-85774797D01*
X118099007Y-85774797D01*
G37*
G36*
X138431707Y-85774797D02*
G01*
X138508836Y-85782393D01*
X138706762Y-85842433D01*
X138706765Y-85842434D01*
X138889170Y-85939932D01*
X139049055Y-86071145D01*
X139180268Y-86231030D01*
X139277766Y-86413435D01*
X139277767Y-86413438D01*
X139337807Y-86611364D01*
X139358080Y-86817200D01*
X139337807Y-87023036D01*
X139277767Y-87220962D01*
X139277766Y-87220965D01*
X139180268Y-87403370D01*
X139049055Y-87563255D01*
X138889170Y-87694468D01*
X138706765Y-87791966D01*
X138706762Y-87791967D01*
X138508836Y-87852007D01*
X138431707Y-87859604D01*
X138354580Y-87867200D01*
X138251420Y-87867200D01*
X138174293Y-87859604D01*
X138097164Y-87852007D01*
X137899238Y-87791967D01*
X137899235Y-87791966D01*
X137716830Y-87694468D01*
X137556945Y-87563255D01*
X137425732Y-87403370D01*
X137328234Y-87220965D01*
X137328233Y-87220962D01*
X137268193Y-87023036D01*
X137247920Y-86817200D01*
X137268193Y-86611364D01*
X137328233Y-86413438D01*
X137328234Y-86413435D01*
X137425732Y-86231030D01*
X137556945Y-86071145D01*
X137716830Y-85939932D01*
X137899235Y-85842434D01*
X137899238Y-85842433D01*
X138097164Y-85782393D01*
X138174293Y-85774797D01*
X138251420Y-85767200D01*
X138354580Y-85767200D01*
X138431707Y-85774797D01*
X138431707Y-85774797D01*
G37*
G36*
X131930300Y-85728200D02*
G01*
X130330300Y-85728200D01*
X130330300Y-82828200D01*
X131930300Y-82828200D01*
X131930300Y-85728200D01*
X131930300Y-85728200D01*
G37*
G36*
X135930300Y-85728200D02*
G01*
X134330300Y-85728200D01*
X134330300Y-82828200D01*
X135930300Y-82828200D01*
X135930300Y-85728200D01*
X135930300Y-85728200D01*
G37*
G36*
X133930300Y-85728200D02*
G01*
X132330300Y-85728200D01*
X132330300Y-82828200D01*
X133930300Y-82828200D01*
X133930300Y-85728200D01*
X133930300Y-85728200D01*
G37*
G36*
X121092979Y-76857937D02*
G01*
X121145627Y-76873908D01*
X121194148Y-76899842D01*
X121236675Y-76934745D01*
X121271578Y-76977272D01*
X121297512Y-77025793D01*
X121313483Y-77078441D01*
X121319480Y-77139330D01*
X121319480Y-78364550D01*
X121313483Y-78425439D01*
X121297512Y-78478087D01*
X121271578Y-78526608D01*
X121236675Y-78569135D01*
X121194148Y-78604038D01*
X121145627Y-78629972D01*
X121089319Y-78647053D01*
X121066680Y-78656431D01*
X121046306Y-78670044D01*
X121028979Y-78687371D01*
X121015365Y-78707746D01*
X121005988Y-78730384D01*
X121001207Y-78754418D01*
X121001207Y-78778922D01*
X121005987Y-78802955D01*
X121015365Y-78825594D01*
X121028978Y-78845968D01*
X121046305Y-78863295D01*
X121066680Y-78876909D01*
X121089319Y-78886287D01*
X121145627Y-78903368D01*
X121194148Y-78929302D01*
X121236675Y-78964205D01*
X121271578Y-79006732D01*
X121297512Y-79055253D01*
X121313483Y-79107901D01*
X121319480Y-79168790D01*
X121319480Y-80394010D01*
X121313483Y-80454899D01*
X121297512Y-80507547D01*
X121271578Y-80556068D01*
X121236675Y-80598595D01*
X121194148Y-80633498D01*
X121145627Y-80659432D01*
X121116463Y-80668279D01*
X121093824Y-80677657D01*
X121073450Y-80691270D01*
X121056123Y-80708597D01*
X121042509Y-80728972D01*
X121033132Y-80751610D01*
X121028351Y-80775644D01*
X121028351Y-80800148D01*
X121033131Y-80824181D01*
X121042509Y-80846820D01*
X121056122Y-80867194D01*
X121073449Y-80884521D01*
X121093824Y-80898135D01*
X121116461Y-80907512D01*
X121132925Y-80912506D01*
X121181448Y-80938442D01*
X121223975Y-80973345D01*
X121258878Y-81015872D01*
X121284812Y-81064393D01*
X121300783Y-81117041D01*
X121306780Y-81177930D01*
X121306780Y-82403150D01*
X121300783Y-82464039D01*
X121284812Y-82516687D01*
X121258878Y-82565208D01*
X121222812Y-82609153D01*
X121208062Y-82623903D01*
X121194449Y-82644277D01*
X121185071Y-82666916D01*
X121180291Y-82690949D01*
X121180291Y-82715453D01*
X121185072Y-82739487D01*
X121194449Y-82762125D01*
X121208063Y-82782500D01*
X121225390Y-82799827D01*
X121245764Y-82813440D01*
X121268403Y-82822818D01*
X121304688Y-82828200D01*
X121808872Y-82828200D01*
X121833258Y-82825798D01*
X121856707Y-82818685D01*
X121878318Y-82807134D01*
X121897260Y-82791589D01*
X121912805Y-82772647D01*
X121924356Y-82751036D01*
X121931469Y-82727587D01*
X121933871Y-82703201D01*
X121931469Y-82678815D01*
X121924356Y-82655366D01*
X121912805Y-82633755D01*
X121893060Y-82611970D01*
X121854682Y-82565208D01*
X121828748Y-82516687D01*
X121812777Y-82464039D01*
X121806780Y-82403150D01*
X121806780Y-81177930D01*
X121812777Y-81117041D01*
X121828748Y-81064393D01*
X121854682Y-81015872D01*
X121889585Y-80973345D01*
X121932112Y-80938442D01*
X121980633Y-80912508D01*
X122009797Y-80903661D01*
X122032436Y-80894283D01*
X122052810Y-80880670D01*
X122070137Y-80863343D01*
X122083751Y-80842968D01*
X122093128Y-80820330D01*
X122097909Y-80796296D01*
X122097909Y-80771792D01*
X122093129Y-80747759D01*
X122083751Y-80725120D01*
X122070138Y-80704746D01*
X122052811Y-80687419D01*
X122032436Y-80673805D01*
X122009799Y-80664428D01*
X121993335Y-80659434D01*
X121944812Y-80633498D01*
X121902285Y-80598595D01*
X121867382Y-80556068D01*
X121841448Y-80507547D01*
X121825477Y-80454899D01*
X121819480Y-80394010D01*
X121819480Y-79168790D01*
X121825477Y-79107901D01*
X121841448Y-79055253D01*
X121867382Y-79006732D01*
X121902285Y-78964205D01*
X121944812Y-78929302D01*
X121993333Y-78903368D01*
X122049641Y-78886287D01*
X122072280Y-78876909D01*
X122092654Y-78863296D01*
X122109981Y-78845969D01*
X122123595Y-78825594D01*
X122132972Y-78802956D01*
X122137753Y-78778922D01*
X122137753Y-78754418D01*
X122132973Y-78730385D01*
X122123595Y-78707746D01*
X122109982Y-78687372D01*
X122092655Y-78670045D01*
X122072280Y-78656431D01*
X122049641Y-78647053D01*
X121993333Y-78629972D01*
X121944812Y-78604038D01*
X121902285Y-78569135D01*
X121867382Y-78526608D01*
X121841448Y-78478087D01*
X121825477Y-78425439D01*
X121819480Y-78364550D01*
X121819480Y-77139330D01*
X121825477Y-77078441D01*
X121841448Y-77025793D01*
X121867382Y-76977272D01*
X121902285Y-76934745D01*
X121944812Y-76899842D01*
X121993333Y-76873908D01*
X122045981Y-76857937D01*
X122106870Y-76851940D01*
X122907090Y-76851940D01*
X122967979Y-76857937D01*
X123020627Y-76873908D01*
X123069148Y-76899842D01*
X123111675Y-76934745D01*
X123146578Y-76977272D01*
X123172512Y-77025793D01*
X123188483Y-77078441D01*
X123194480Y-77139330D01*
X123194480Y-78364550D01*
X123188483Y-78425439D01*
X123172512Y-78478087D01*
X123146578Y-78526608D01*
X123111675Y-78569135D01*
X123069148Y-78604038D01*
X123020627Y-78629972D01*
X122964319Y-78647053D01*
X122941680Y-78656431D01*
X122921306Y-78670044D01*
X122903979Y-78687371D01*
X122890365Y-78707746D01*
X122880988Y-78730384D01*
X122876207Y-78754418D01*
X122876207Y-78778922D01*
X122880987Y-78802955D01*
X122890365Y-78825594D01*
X122903978Y-78845968D01*
X122921305Y-78863295D01*
X122941680Y-78876909D01*
X122964319Y-78886287D01*
X123020627Y-78903368D01*
X123069148Y-78929302D01*
X123111675Y-78964205D01*
X123146578Y-79006732D01*
X123172512Y-79055253D01*
X123188483Y-79107901D01*
X123194480Y-79168790D01*
X123194480Y-80394010D01*
X123188483Y-80454899D01*
X123172512Y-80507547D01*
X123146578Y-80556068D01*
X123111675Y-80598595D01*
X123069148Y-80633498D01*
X123020627Y-80659432D01*
X122991463Y-80668279D01*
X122968824Y-80677657D01*
X122948450Y-80691270D01*
X122931123Y-80708597D01*
X122917509Y-80728972D01*
X122908132Y-80751610D01*
X122903351Y-80775644D01*
X122903351Y-80800148D01*
X122908131Y-80824181D01*
X122917509Y-80846820D01*
X122931122Y-80867194D01*
X122948449Y-80884521D01*
X122968824Y-80898135D01*
X122991461Y-80907512D01*
X123007925Y-80912506D01*
X123056448Y-80938442D01*
X123098975Y-80973345D01*
X123133878Y-81015872D01*
X123159812Y-81064393D01*
X123166903Y-81087768D01*
X123176281Y-81110407D01*
X123189894Y-81130781D01*
X123207221Y-81148108D01*
X123227596Y-81161722D01*
X123250235Y-81171100D01*
X123274268Y-81175880D01*
X123298772Y-81175880D01*
X123322805Y-81171100D01*
X123345444Y-81161722D01*
X123365818Y-81148109D01*
X123383145Y-81130782D01*
X123396759Y-81110407D01*
X123406137Y-81087768D01*
X123413228Y-81064393D01*
X123439162Y-81015872D01*
X123474065Y-80973345D01*
X123516592Y-80938442D01*
X123565113Y-80912508D01*
X123617761Y-80896537D01*
X123678650Y-80890540D01*
X124478870Y-80890540D01*
X124539759Y-80896537D01*
X124592407Y-80912508D01*
X124640928Y-80938442D01*
X124683455Y-80973345D01*
X124718358Y-81015872D01*
X124744292Y-81064393D01*
X124760263Y-81117041D01*
X124766260Y-81177930D01*
X124766260Y-82403150D01*
X124760263Y-82464039D01*
X124744292Y-82516687D01*
X124718358Y-82565208D01*
X124682292Y-82609153D01*
X124667542Y-82623903D01*
X124653929Y-82644277D01*
X124644551Y-82666916D01*
X124639771Y-82690949D01*
X124639771Y-82715453D01*
X124644552Y-82739487D01*
X124653929Y-82762125D01*
X124667543Y-82782500D01*
X124684870Y-82799827D01*
X124705244Y-82813440D01*
X124727883Y-82822818D01*
X124764168Y-82828200D01*
X125268352Y-82828200D01*
X125292738Y-82825798D01*
X125316187Y-82818685D01*
X125337798Y-82807134D01*
X125356740Y-82791589D01*
X125372285Y-82772647D01*
X125383836Y-82751036D01*
X125390949Y-82727587D01*
X125393351Y-82703201D01*
X125390949Y-82678815D01*
X125383836Y-82655366D01*
X125372285Y-82633755D01*
X125352540Y-82611970D01*
X125314162Y-82565208D01*
X125288228Y-82516687D01*
X125272257Y-82464039D01*
X125266260Y-82403150D01*
X125266260Y-81177930D01*
X125272257Y-81117041D01*
X125288228Y-81064393D01*
X125314162Y-81015872D01*
X125349065Y-80973345D01*
X125391592Y-80938442D01*
X125440113Y-80912508D01*
X125492761Y-80896537D01*
X125553650Y-80890540D01*
X126353870Y-80890540D01*
X126414759Y-80896537D01*
X126467407Y-80912508D01*
X126515928Y-80938442D01*
X126558455Y-80973345D01*
X126593358Y-81015872D01*
X126619292Y-81064393D01*
X126635263Y-81117041D01*
X126641260Y-81177930D01*
X126641260Y-82403150D01*
X126635263Y-82464039D01*
X126619292Y-82516687D01*
X126593358Y-82565208D01*
X126557292Y-82609153D01*
X126542542Y-82623903D01*
X126528929Y-82644277D01*
X126519551Y-82666916D01*
X126514771Y-82690949D01*
X126514771Y-82715453D01*
X126519552Y-82739487D01*
X126528929Y-82762125D01*
X126542543Y-82782500D01*
X126559870Y-82799827D01*
X126580244Y-82813440D01*
X126602883Y-82822818D01*
X126639168Y-82828200D01*
X127930300Y-82828200D01*
X127930300Y-85728200D01*
X126330300Y-85728200D01*
X126330300Y-82815539D01*
X126327898Y-82791153D01*
X126320785Y-82767704D01*
X126309234Y-82746093D01*
X126293689Y-82727151D01*
X126274747Y-82711606D01*
X126253136Y-82700055D01*
X126229687Y-82692942D01*
X126205301Y-82690540D01*
X126055299Y-82690540D01*
X126030913Y-82692942D01*
X126007464Y-82700055D01*
X125985853Y-82711606D01*
X125966911Y-82727151D01*
X125951366Y-82746093D01*
X125939815Y-82767704D01*
X125932702Y-82791153D01*
X125930300Y-82815539D01*
X125930300Y-85728200D01*
X124330300Y-85728200D01*
X124330300Y-82815539D01*
X124327898Y-82791153D01*
X124320785Y-82767704D01*
X124309234Y-82746093D01*
X124293689Y-82727151D01*
X124274747Y-82711606D01*
X124253136Y-82700055D01*
X124229687Y-82692942D01*
X124205301Y-82690540D01*
X124055299Y-82690540D01*
X124030913Y-82692942D01*
X124007464Y-82700055D01*
X123985853Y-82711606D01*
X123966911Y-82727151D01*
X123951366Y-82746093D01*
X123939815Y-82767704D01*
X123932702Y-82791153D01*
X123930300Y-82815539D01*
X123930300Y-85728200D01*
X122330300Y-85728200D01*
X122330300Y-82815539D01*
X122327898Y-82791153D01*
X122320785Y-82767704D01*
X122309234Y-82746093D01*
X122293689Y-82727151D01*
X122274747Y-82711606D01*
X122253136Y-82700055D01*
X122229687Y-82692942D01*
X122209454Y-82690949D01*
X123055291Y-82690949D01*
X123055291Y-82715453D01*
X123060072Y-82739487D01*
X123069449Y-82762125D01*
X123083063Y-82782500D01*
X123100390Y-82799827D01*
X123120764Y-82813440D01*
X123143403Y-82822818D01*
X123179688Y-82828200D01*
X123393352Y-82828200D01*
X123417738Y-82825798D01*
X123441187Y-82818685D01*
X123462798Y-82807134D01*
X123481740Y-82791589D01*
X123497285Y-82772647D01*
X123508836Y-82751036D01*
X123515949Y-82727587D01*
X123518351Y-82703201D01*
X123515949Y-82678815D01*
X123508836Y-82655366D01*
X123497285Y-82633755D01*
X123477540Y-82611970D01*
X123439162Y-82565208D01*
X123413228Y-82516687D01*
X123406137Y-82493312D01*
X123396759Y-82470673D01*
X123383146Y-82450299D01*
X123365819Y-82432972D01*
X123345444Y-82419358D01*
X123322805Y-82409980D01*
X123298772Y-82405200D01*
X123274268Y-82405200D01*
X123250235Y-82409980D01*
X123227596Y-82419358D01*
X123207222Y-82432971D01*
X123189895Y-82450298D01*
X123176281Y-82470673D01*
X123166903Y-82493312D01*
X123159812Y-82516687D01*
X123133878Y-82565208D01*
X123097812Y-82609153D01*
X123083062Y-82623903D01*
X123069449Y-82644277D01*
X123060071Y-82666916D01*
X123055291Y-82690949D01*
X122209454Y-82690949D01*
X122205301Y-82690540D01*
X122094171Y-82690540D01*
X122067552Y-82687918D01*
X122043048Y-82687918D01*
X122019015Y-82692698D01*
X121996376Y-82702075D01*
X121976001Y-82715689D01*
X121958674Y-82733016D01*
X121945060Y-82753390D01*
X121935683Y-82776029D01*
X121930902Y-82800062D01*
X121930300Y-82812315D01*
X121930300Y-85728200D01*
X120330300Y-85728200D01*
X120330300Y-82814778D01*
X120327898Y-82790392D01*
X120320785Y-82766943D01*
X120309234Y-82745332D01*
X120293689Y-82726390D01*
X120274747Y-82710845D01*
X120253136Y-82699294D01*
X120217554Y-82690381D01*
X120158281Y-82684543D01*
X120105633Y-82668572D01*
X120057112Y-82642638D01*
X120014585Y-82607735D01*
X119979682Y-82565208D01*
X119953748Y-82516687D01*
X119937777Y-82464039D01*
X119931780Y-82403150D01*
X119931780Y-81177930D01*
X119937777Y-81117041D01*
X119953748Y-81064393D01*
X119979682Y-81015872D01*
X120014585Y-80973345D01*
X120057112Y-80938442D01*
X120105633Y-80912508D01*
X120134797Y-80903661D01*
X120157436Y-80894283D01*
X120177810Y-80880670D01*
X120195137Y-80863343D01*
X120208751Y-80842968D01*
X120218128Y-80820330D01*
X120222909Y-80796296D01*
X120222909Y-80771792D01*
X120218129Y-80747759D01*
X120208751Y-80725120D01*
X120195138Y-80704746D01*
X120177811Y-80687419D01*
X120157436Y-80673805D01*
X120134799Y-80664428D01*
X120118335Y-80659434D01*
X120069812Y-80633498D01*
X120027285Y-80598595D01*
X119992382Y-80556068D01*
X119966448Y-80507547D01*
X119950477Y-80454899D01*
X119944480Y-80394010D01*
X119944480Y-79168790D01*
X119950477Y-79107901D01*
X119966448Y-79055253D01*
X119992382Y-79006732D01*
X120027285Y-78964205D01*
X120069812Y-78929302D01*
X120118333Y-78903368D01*
X120174641Y-78886287D01*
X120197280Y-78876909D01*
X120217654Y-78863296D01*
X120234981Y-78845969D01*
X120248595Y-78825594D01*
X120257972Y-78802956D01*
X120262753Y-78778922D01*
X120262753Y-78754418D01*
X120257973Y-78730385D01*
X120248595Y-78707746D01*
X120234982Y-78687372D01*
X120217655Y-78670045D01*
X120197280Y-78656431D01*
X120174641Y-78647053D01*
X120118333Y-78629972D01*
X120069812Y-78604038D01*
X120027285Y-78569135D01*
X119992382Y-78526608D01*
X119966448Y-78478087D01*
X119950477Y-78425439D01*
X119944480Y-78364550D01*
X119944480Y-77139330D01*
X119950477Y-77078441D01*
X119966448Y-77025793D01*
X119992382Y-76977272D01*
X120027285Y-76934745D01*
X120069812Y-76899842D01*
X120118333Y-76873908D01*
X120170981Y-76857937D01*
X120231870Y-76851940D01*
X121032090Y-76851940D01*
X121092979Y-76857937D01*
X121092979Y-76857937D01*
G37*
G36*
X129930300Y-85728200D02*
G01*
X128330300Y-85728200D01*
X128330300Y-82828200D01*
X129930300Y-82828200D01*
X129930300Y-85728200D01*
X129930300Y-85728200D01*
G37*
G36*
X138431707Y-83234796D02*
G01*
X138508836Y-83242393D01*
X138706762Y-83302433D01*
X138706765Y-83302434D01*
X138889170Y-83399932D01*
X139049055Y-83531145D01*
X139180268Y-83691030D01*
X139277766Y-83873435D01*
X139277767Y-83873438D01*
X139337807Y-84071364D01*
X139358080Y-84277200D01*
X139337807Y-84483036D01*
X139277767Y-84680962D01*
X139277766Y-84680965D01*
X139180268Y-84863370D01*
X139049055Y-85023255D01*
X138889170Y-85154468D01*
X138706765Y-85251966D01*
X138706762Y-85251967D01*
X138508836Y-85312007D01*
X138431707Y-85319603D01*
X138354580Y-85327200D01*
X138251420Y-85327200D01*
X138174293Y-85319603D01*
X138097164Y-85312007D01*
X137899238Y-85251967D01*
X137899235Y-85251966D01*
X137716830Y-85154468D01*
X137556945Y-85023255D01*
X137425732Y-84863370D01*
X137328234Y-84680965D01*
X137328233Y-84680962D01*
X137268193Y-84483036D01*
X137247920Y-84277200D01*
X137268193Y-84071364D01*
X137328233Y-83873438D01*
X137328234Y-83873435D01*
X137425732Y-83691030D01*
X137556945Y-83531145D01*
X137716830Y-83399932D01*
X137899235Y-83302434D01*
X137899238Y-83302433D01*
X138097164Y-83242393D01*
X138174293Y-83234796D01*
X138251420Y-83227200D01*
X138354580Y-83227200D01*
X138431707Y-83234796D01*
X138431707Y-83234796D01*
G37*
G36*
X118099007Y-83234796D02*
G01*
X118176136Y-83242393D01*
X118374062Y-83302433D01*
X118374065Y-83302434D01*
X118556470Y-83399932D01*
X118716355Y-83531145D01*
X118847568Y-83691030D01*
X118945066Y-83873435D01*
X118945067Y-83873438D01*
X119005107Y-84071364D01*
X119025380Y-84277200D01*
X119005107Y-84483036D01*
X118945067Y-84680962D01*
X118945066Y-84680965D01*
X118847568Y-84863370D01*
X118716355Y-85023255D01*
X118556470Y-85154468D01*
X118374065Y-85251966D01*
X118374062Y-85251967D01*
X118176136Y-85312007D01*
X118099007Y-85319603D01*
X118021880Y-85327200D01*
X117918720Y-85327200D01*
X117841593Y-85319603D01*
X117764464Y-85312007D01*
X117566538Y-85251967D01*
X117566535Y-85251966D01*
X117384130Y-85154468D01*
X117224245Y-85023255D01*
X117093032Y-84863370D01*
X116995534Y-84680965D01*
X116995533Y-84680962D01*
X116935493Y-84483036D01*
X116915220Y-84277200D01*
X116935493Y-84071364D01*
X116995533Y-83873438D01*
X116995534Y-83873435D01*
X117093032Y-83691030D01*
X117224245Y-83531145D01*
X117384130Y-83399932D01*
X117566535Y-83302434D01*
X117566538Y-83302433D01*
X117764464Y-83242393D01*
X117841593Y-83234796D01*
X117918720Y-83227200D01*
X118021880Y-83227200D01*
X118099007Y-83234796D01*
X118099007Y-83234796D01*
G37*
G36*
X133548200Y-78168801D02*
G01*
X133550602Y-78193187D01*
X133557715Y-78216636D01*
X133569266Y-78238247D01*
X133584811Y-78257189D01*
X133603753Y-78272734D01*
X133625364Y-78284285D01*
X133648813Y-78291398D01*
X133673199Y-78293800D01*
X134376200Y-78293800D01*
X134376200Y-80248801D01*
X134378602Y-80273187D01*
X134385715Y-80296636D01*
X134397266Y-80318247D01*
X134412811Y-80337189D01*
X134431753Y-80352734D01*
X134453364Y-80364285D01*
X134476813Y-80371398D01*
X134501199Y-80373800D01*
X135751201Y-80373800D01*
X135775587Y-80371398D01*
X135799036Y-80364285D01*
X135820647Y-80352734D01*
X135839589Y-80337189D01*
X135855134Y-80318247D01*
X135866685Y-80296636D01*
X135873798Y-80273187D01*
X135876200Y-80248801D01*
X135876200Y-78293800D01*
X136579201Y-78293800D01*
X136603587Y-78291398D01*
X136627036Y-78284285D01*
X136648647Y-78272734D01*
X136667589Y-78257189D01*
X136683134Y-78238247D01*
X136694685Y-78216636D01*
X136701798Y-78193187D01*
X136704200Y-78168801D01*
X136704200Y-76431800D01*
X138628200Y-76431800D01*
X138628200Y-80895800D01*
X136599506Y-80895800D01*
X136579201Y-80893800D01*
X135951199Y-80893800D01*
X135926813Y-80896202D01*
X135903364Y-80903315D01*
X135881753Y-80914866D01*
X135862811Y-80930411D01*
X135847266Y-80949353D01*
X135835715Y-80970964D01*
X135828602Y-80994413D01*
X135826200Y-81018799D01*
X135826200Y-81823800D01*
X134426200Y-81823800D01*
X134426200Y-81018799D01*
X134423798Y-80994413D01*
X134416685Y-80970964D01*
X134405134Y-80949353D01*
X134389589Y-80930411D01*
X134370647Y-80914866D01*
X134349036Y-80903315D01*
X134325587Y-80896202D01*
X134301201Y-80893800D01*
X133673199Y-80893800D01*
X133652894Y-80895800D01*
X131624200Y-80895800D01*
X131624200Y-76431800D01*
X133548200Y-76431800D01*
X133548200Y-78168801D01*
X133548200Y-78168801D01*
G37*
M02*
