G04 #@! TF.GenerationSoftware,KiCad,Pcbnew,(5.1.4)-1*
G04 #@! TF.CreationDate,2019-10-27T13:01:11+01:00*
G04 #@! TF.ProjectId,project,70726f6a-6563-4742-9e6b-696361645f70,1b*
G04 #@! TF.SameCoordinates,Original*
G04 #@! TF.FileFunction,Copper,L1,Top*
G04 #@! TF.FilePolarity,Positive*
%FSLAX46Y46*%
G04 Gerber Fmt 4.6, Leading zero omitted, Abs format (unit mm)*
G04 Created by KiCad (PCBNEW (5.1.4)-1) date 2019-10-27 13:01:11*
%MOMM*%
%LPD*%
G04 APERTURE LIST*
%ADD10R,1.200000X2.500000*%
%ADD11C,1.000000*%
%ADD12R,1.000000X1.050000*%
%ADD13R,1.050000X2.200000*%
%ADD14R,1.524000X4.064000*%
%ADD15C,0.100000*%
%ADD16C,0.975000*%
%ADD17O,1.700000X1.700000*%
%ADD18C,1.700000*%
%ADD19C,0.800000*%
%ADD20C,0.600000*%
%ADD21C,0.250000*%
%ADD22C,1.000000*%
%ADD23C,0.254000*%
G04 APERTURE END LIST*
D10*
X121130300Y-84278200D03*
X123130300Y-84278200D03*
X125130300Y-84278200D03*
X127130300Y-84278200D03*
X129130300Y-84278200D03*
X131130300Y-84278200D03*
X133130300Y-84278200D03*
X135130300Y-84278200D03*
X135130300Y-100278200D03*
X133130300Y-100278200D03*
X131130300Y-100278200D03*
X129130300Y-100278200D03*
X127130300Y-100278200D03*
X125130300Y-100278200D03*
X123130300Y-100278200D03*
X121130300Y-100278200D03*
D11*
X135126200Y-81113800D03*
D12*
X135126200Y-81098800D03*
D13*
X136601200Y-79593800D03*
X133651200Y-79593800D03*
D14*
X137666200Y-78663800D03*
X132586200Y-78663800D03*
D15*
G36*
X124346402Y-81091714D02*
G01*
X124370063Y-81095224D01*
X124393267Y-81101036D01*
X124415789Y-81109094D01*
X124437413Y-81119322D01*
X124457930Y-81131619D01*
X124477143Y-81145869D01*
X124494867Y-81161933D01*
X124510931Y-81179657D01*
X124525181Y-81198870D01*
X124537478Y-81219387D01*
X124547706Y-81241011D01*
X124555764Y-81263533D01*
X124561576Y-81286737D01*
X124565086Y-81310398D01*
X124566260Y-81334290D01*
X124566260Y-82246790D01*
X124565086Y-82270682D01*
X124561576Y-82294343D01*
X124555764Y-82317547D01*
X124547706Y-82340069D01*
X124537478Y-82361693D01*
X124525181Y-82382210D01*
X124510931Y-82401423D01*
X124494867Y-82419147D01*
X124477143Y-82435211D01*
X124457930Y-82449461D01*
X124437413Y-82461758D01*
X124415789Y-82471986D01*
X124393267Y-82480044D01*
X124370063Y-82485856D01*
X124346402Y-82489366D01*
X124322510Y-82490540D01*
X123835010Y-82490540D01*
X123811118Y-82489366D01*
X123787457Y-82485856D01*
X123764253Y-82480044D01*
X123741731Y-82471986D01*
X123720107Y-82461758D01*
X123699590Y-82449461D01*
X123680377Y-82435211D01*
X123662653Y-82419147D01*
X123646589Y-82401423D01*
X123632339Y-82382210D01*
X123620042Y-82361693D01*
X123609814Y-82340069D01*
X123601756Y-82317547D01*
X123595944Y-82294343D01*
X123592434Y-82270682D01*
X123591260Y-82246790D01*
X123591260Y-81334290D01*
X123592434Y-81310398D01*
X123595944Y-81286737D01*
X123601756Y-81263533D01*
X123609814Y-81241011D01*
X123620042Y-81219387D01*
X123632339Y-81198870D01*
X123646589Y-81179657D01*
X123662653Y-81161933D01*
X123680377Y-81145869D01*
X123699590Y-81131619D01*
X123720107Y-81119322D01*
X123741731Y-81109094D01*
X123764253Y-81101036D01*
X123787457Y-81095224D01*
X123811118Y-81091714D01*
X123835010Y-81090540D01*
X124322510Y-81090540D01*
X124346402Y-81091714D01*
X124346402Y-81091714D01*
G37*
D16*
X124078760Y-81790540D03*
D15*
G36*
X126221402Y-81091714D02*
G01*
X126245063Y-81095224D01*
X126268267Y-81101036D01*
X126290789Y-81109094D01*
X126312413Y-81119322D01*
X126332930Y-81131619D01*
X126352143Y-81145869D01*
X126369867Y-81161933D01*
X126385931Y-81179657D01*
X126400181Y-81198870D01*
X126412478Y-81219387D01*
X126422706Y-81241011D01*
X126430764Y-81263533D01*
X126436576Y-81286737D01*
X126440086Y-81310398D01*
X126441260Y-81334290D01*
X126441260Y-82246790D01*
X126440086Y-82270682D01*
X126436576Y-82294343D01*
X126430764Y-82317547D01*
X126422706Y-82340069D01*
X126412478Y-82361693D01*
X126400181Y-82382210D01*
X126385931Y-82401423D01*
X126369867Y-82419147D01*
X126352143Y-82435211D01*
X126332930Y-82449461D01*
X126312413Y-82461758D01*
X126290789Y-82471986D01*
X126268267Y-82480044D01*
X126245063Y-82485856D01*
X126221402Y-82489366D01*
X126197510Y-82490540D01*
X125710010Y-82490540D01*
X125686118Y-82489366D01*
X125662457Y-82485856D01*
X125639253Y-82480044D01*
X125616731Y-82471986D01*
X125595107Y-82461758D01*
X125574590Y-82449461D01*
X125555377Y-82435211D01*
X125537653Y-82419147D01*
X125521589Y-82401423D01*
X125507339Y-82382210D01*
X125495042Y-82361693D01*
X125484814Y-82340069D01*
X125476756Y-82317547D01*
X125470944Y-82294343D01*
X125467434Y-82270682D01*
X125466260Y-82246790D01*
X125466260Y-81334290D01*
X125467434Y-81310398D01*
X125470944Y-81286737D01*
X125476756Y-81263533D01*
X125484814Y-81241011D01*
X125495042Y-81219387D01*
X125507339Y-81198870D01*
X125521589Y-81179657D01*
X125537653Y-81161933D01*
X125555377Y-81145869D01*
X125574590Y-81131619D01*
X125595107Y-81119322D01*
X125616731Y-81109094D01*
X125639253Y-81101036D01*
X125662457Y-81095224D01*
X125686118Y-81091714D01*
X125710010Y-81090540D01*
X126197510Y-81090540D01*
X126221402Y-81091714D01*
X126221402Y-81091714D01*
G37*
D16*
X125953760Y-81790540D03*
D15*
G36*
X122761922Y-81091714D02*
G01*
X122785583Y-81095224D01*
X122808787Y-81101036D01*
X122831309Y-81109094D01*
X122852933Y-81119322D01*
X122873450Y-81131619D01*
X122892663Y-81145869D01*
X122910387Y-81161933D01*
X122926451Y-81179657D01*
X122940701Y-81198870D01*
X122952998Y-81219387D01*
X122963226Y-81241011D01*
X122971284Y-81263533D01*
X122977096Y-81286737D01*
X122980606Y-81310398D01*
X122981780Y-81334290D01*
X122981780Y-82246790D01*
X122980606Y-82270682D01*
X122977096Y-82294343D01*
X122971284Y-82317547D01*
X122963226Y-82340069D01*
X122952998Y-82361693D01*
X122940701Y-82382210D01*
X122926451Y-82401423D01*
X122910387Y-82419147D01*
X122892663Y-82435211D01*
X122873450Y-82449461D01*
X122852933Y-82461758D01*
X122831309Y-82471986D01*
X122808787Y-82480044D01*
X122785583Y-82485856D01*
X122761922Y-82489366D01*
X122738030Y-82490540D01*
X122250530Y-82490540D01*
X122226638Y-82489366D01*
X122202977Y-82485856D01*
X122179773Y-82480044D01*
X122157251Y-82471986D01*
X122135627Y-82461758D01*
X122115110Y-82449461D01*
X122095897Y-82435211D01*
X122078173Y-82419147D01*
X122062109Y-82401423D01*
X122047859Y-82382210D01*
X122035562Y-82361693D01*
X122025334Y-82340069D01*
X122017276Y-82317547D01*
X122011464Y-82294343D01*
X122007954Y-82270682D01*
X122006780Y-82246790D01*
X122006780Y-81334290D01*
X122007954Y-81310398D01*
X122011464Y-81286737D01*
X122017276Y-81263533D01*
X122025334Y-81241011D01*
X122035562Y-81219387D01*
X122047859Y-81198870D01*
X122062109Y-81179657D01*
X122078173Y-81161933D01*
X122095897Y-81145869D01*
X122115110Y-81131619D01*
X122135627Y-81119322D01*
X122157251Y-81109094D01*
X122179773Y-81101036D01*
X122202977Y-81095224D01*
X122226638Y-81091714D01*
X122250530Y-81090540D01*
X122738030Y-81090540D01*
X122761922Y-81091714D01*
X122761922Y-81091714D01*
G37*
D16*
X122494280Y-81790540D03*
D15*
G36*
X120886922Y-81091714D02*
G01*
X120910583Y-81095224D01*
X120933787Y-81101036D01*
X120956309Y-81109094D01*
X120977933Y-81119322D01*
X120998450Y-81131619D01*
X121017663Y-81145869D01*
X121035387Y-81161933D01*
X121051451Y-81179657D01*
X121065701Y-81198870D01*
X121077998Y-81219387D01*
X121088226Y-81241011D01*
X121096284Y-81263533D01*
X121102096Y-81286737D01*
X121105606Y-81310398D01*
X121106780Y-81334290D01*
X121106780Y-82246790D01*
X121105606Y-82270682D01*
X121102096Y-82294343D01*
X121096284Y-82317547D01*
X121088226Y-82340069D01*
X121077998Y-82361693D01*
X121065701Y-82382210D01*
X121051451Y-82401423D01*
X121035387Y-82419147D01*
X121017663Y-82435211D01*
X120998450Y-82449461D01*
X120977933Y-82461758D01*
X120956309Y-82471986D01*
X120933787Y-82480044D01*
X120910583Y-82485856D01*
X120886922Y-82489366D01*
X120863030Y-82490540D01*
X120375530Y-82490540D01*
X120351638Y-82489366D01*
X120327977Y-82485856D01*
X120304773Y-82480044D01*
X120282251Y-82471986D01*
X120260627Y-82461758D01*
X120240110Y-82449461D01*
X120220897Y-82435211D01*
X120203173Y-82419147D01*
X120187109Y-82401423D01*
X120172859Y-82382210D01*
X120160562Y-82361693D01*
X120150334Y-82340069D01*
X120142276Y-82317547D01*
X120136464Y-82294343D01*
X120132954Y-82270682D01*
X120131780Y-82246790D01*
X120131780Y-81334290D01*
X120132954Y-81310398D01*
X120136464Y-81286737D01*
X120142276Y-81263533D01*
X120150334Y-81241011D01*
X120160562Y-81219387D01*
X120172859Y-81198870D01*
X120187109Y-81179657D01*
X120203173Y-81161933D01*
X120220897Y-81145869D01*
X120240110Y-81131619D01*
X120260627Y-81119322D01*
X120282251Y-81109094D01*
X120304773Y-81101036D01*
X120327977Y-81095224D01*
X120351638Y-81091714D01*
X120375530Y-81090540D01*
X120863030Y-81090540D01*
X120886922Y-81091714D01*
X120886922Y-81091714D01*
G37*
D16*
X120619280Y-81790540D03*
D15*
G36*
X122774622Y-77053114D02*
G01*
X122798283Y-77056624D01*
X122821487Y-77062436D01*
X122844009Y-77070494D01*
X122865633Y-77080722D01*
X122886150Y-77093019D01*
X122905363Y-77107269D01*
X122923087Y-77123333D01*
X122939151Y-77141057D01*
X122953401Y-77160270D01*
X122965698Y-77180787D01*
X122975926Y-77202411D01*
X122983984Y-77224933D01*
X122989796Y-77248137D01*
X122993306Y-77271798D01*
X122994480Y-77295690D01*
X122994480Y-78208190D01*
X122993306Y-78232082D01*
X122989796Y-78255743D01*
X122983984Y-78278947D01*
X122975926Y-78301469D01*
X122965698Y-78323093D01*
X122953401Y-78343610D01*
X122939151Y-78362823D01*
X122923087Y-78380547D01*
X122905363Y-78396611D01*
X122886150Y-78410861D01*
X122865633Y-78423158D01*
X122844009Y-78433386D01*
X122821487Y-78441444D01*
X122798283Y-78447256D01*
X122774622Y-78450766D01*
X122750730Y-78451940D01*
X122263230Y-78451940D01*
X122239338Y-78450766D01*
X122215677Y-78447256D01*
X122192473Y-78441444D01*
X122169951Y-78433386D01*
X122148327Y-78423158D01*
X122127810Y-78410861D01*
X122108597Y-78396611D01*
X122090873Y-78380547D01*
X122074809Y-78362823D01*
X122060559Y-78343610D01*
X122048262Y-78323093D01*
X122038034Y-78301469D01*
X122029976Y-78278947D01*
X122024164Y-78255743D01*
X122020654Y-78232082D01*
X122019480Y-78208190D01*
X122019480Y-77295690D01*
X122020654Y-77271798D01*
X122024164Y-77248137D01*
X122029976Y-77224933D01*
X122038034Y-77202411D01*
X122048262Y-77180787D01*
X122060559Y-77160270D01*
X122074809Y-77141057D01*
X122090873Y-77123333D01*
X122108597Y-77107269D01*
X122127810Y-77093019D01*
X122148327Y-77080722D01*
X122169951Y-77070494D01*
X122192473Y-77062436D01*
X122215677Y-77056624D01*
X122239338Y-77053114D01*
X122263230Y-77051940D01*
X122750730Y-77051940D01*
X122774622Y-77053114D01*
X122774622Y-77053114D01*
G37*
D16*
X122506980Y-77751940D03*
D15*
G36*
X120899622Y-77053114D02*
G01*
X120923283Y-77056624D01*
X120946487Y-77062436D01*
X120969009Y-77070494D01*
X120990633Y-77080722D01*
X121011150Y-77093019D01*
X121030363Y-77107269D01*
X121048087Y-77123333D01*
X121064151Y-77141057D01*
X121078401Y-77160270D01*
X121090698Y-77180787D01*
X121100926Y-77202411D01*
X121108984Y-77224933D01*
X121114796Y-77248137D01*
X121118306Y-77271798D01*
X121119480Y-77295690D01*
X121119480Y-78208190D01*
X121118306Y-78232082D01*
X121114796Y-78255743D01*
X121108984Y-78278947D01*
X121100926Y-78301469D01*
X121090698Y-78323093D01*
X121078401Y-78343610D01*
X121064151Y-78362823D01*
X121048087Y-78380547D01*
X121030363Y-78396611D01*
X121011150Y-78410861D01*
X120990633Y-78423158D01*
X120969009Y-78433386D01*
X120946487Y-78441444D01*
X120923283Y-78447256D01*
X120899622Y-78450766D01*
X120875730Y-78451940D01*
X120388230Y-78451940D01*
X120364338Y-78450766D01*
X120340677Y-78447256D01*
X120317473Y-78441444D01*
X120294951Y-78433386D01*
X120273327Y-78423158D01*
X120252810Y-78410861D01*
X120233597Y-78396611D01*
X120215873Y-78380547D01*
X120199809Y-78362823D01*
X120185559Y-78343610D01*
X120173262Y-78323093D01*
X120163034Y-78301469D01*
X120154976Y-78278947D01*
X120149164Y-78255743D01*
X120145654Y-78232082D01*
X120144480Y-78208190D01*
X120144480Y-77295690D01*
X120145654Y-77271798D01*
X120149164Y-77248137D01*
X120154976Y-77224933D01*
X120163034Y-77202411D01*
X120173262Y-77180787D01*
X120185559Y-77160270D01*
X120199809Y-77141057D01*
X120215873Y-77123333D01*
X120233597Y-77107269D01*
X120252810Y-77093019D01*
X120273327Y-77080722D01*
X120294951Y-77070494D01*
X120317473Y-77062436D01*
X120340677Y-77056624D01*
X120364338Y-77053114D01*
X120388230Y-77051940D01*
X120875730Y-77051940D01*
X120899622Y-77053114D01*
X120899622Y-77053114D01*
G37*
D16*
X120631980Y-77751940D03*
D15*
G36*
X120899622Y-79082574D02*
G01*
X120923283Y-79086084D01*
X120946487Y-79091896D01*
X120969009Y-79099954D01*
X120990633Y-79110182D01*
X121011150Y-79122479D01*
X121030363Y-79136729D01*
X121048087Y-79152793D01*
X121064151Y-79170517D01*
X121078401Y-79189730D01*
X121090698Y-79210247D01*
X121100926Y-79231871D01*
X121108984Y-79254393D01*
X121114796Y-79277597D01*
X121118306Y-79301258D01*
X121119480Y-79325150D01*
X121119480Y-80237650D01*
X121118306Y-80261542D01*
X121114796Y-80285203D01*
X121108984Y-80308407D01*
X121100926Y-80330929D01*
X121090698Y-80352553D01*
X121078401Y-80373070D01*
X121064151Y-80392283D01*
X121048087Y-80410007D01*
X121030363Y-80426071D01*
X121011150Y-80440321D01*
X120990633Y-80452618D01*
X120969009Y-80462846D01*
X120946487Y-80470904D01*
X120923283Y-80476716D01*
X120899622Y-80480226D01*
X120875730Y-80481400D01*
X120388230Y-80481400D01*
X120364338Y-80480226D01*
X120340677Y-80476716D01*
X120317473Y-80470904D01*
X120294951Y-80462846D01*
X120273327Y-80452618D01*
X120252810Y-80440321D01*
X120233597Y-80426071D01*
X120215873Y-80410007D01*
X120199809Y-80392283D01*
X120185559Y-80373070D01*
X120173262Y-80352553D01*
X120163034Y-80330929D01*
X120154976Y-80308407D01*
X120149164Y-80285203D01*
X120145654Y-80261542D01*
X120144480Y-80237650D01*
X120144480Y-79325150D01*
X120145654Y-79301258D01*
X120149164Y-79277597D01*
X120154976Y-79254393D01*
X120163034Y-79231871D01*
X120173262Y-79210247D01*
X120185559Y-79189730D01*
X120199809Y-79170517D01*
X120215873Y-79152793D01*
X120233597Y-79136729D01*
X120252810Y-79122479D01*
X120273327Y-79110182D01*
X120294951Y-79099954D01*
X120317473Y-79091896D01*
X120340677Y-79086084D01*
X120364338Y-79082574D01*
X120388230Y-79081400D01*
X120875730Y-79081400D01*
X120899622Y-79082574D01*
X120899622Y-79082574D01*
G37*
D16*
X120631980Y-79781400D03*
D15*
G36*
X122774622Y-79082574D02*
G01*
X122798283Y-79086084D01*
X122821487Y-79091896D01*
X122844009Y-79099954D01*
X122865633Y-79110182D01*
X122886150Y-79122479D01*
X122905363Y-79136729D01*
X122923087Y-79152793D01*
X122939151Y-79170517D01*
X122953401Y-79189730D01*
X122965698Y-79210247D01*
X122975926Y-79231871D01*
X122983984Y-79254393D01*
X122989796Y-79277597D01*
X122993306Y-79301258D01*
X122994480Y-79325150D01*
X122994480Y-80237650D01*
X122993306Y-80261542D01*
X122989796Y-80285203D01*
X122983984Y-80308407D01*
X122975926Y-80330929D01*
X122965698Y-80352553D01*
X122953401Y-80373070D01*
X122939151Y-80392283D01*
X122923087Y-80410007D01*
X122905363Y-80426071D01*
X122886150Y-80440321D01*
X122865633Y-80452618D01*
X122844009Y-80462846D01*
X122821487Y-80470904D01*
X122798283Y-80476716D01*
X122774622Y-80480226D01*
X122750730Y-80481400D01*
X122263230Y-80481400D01*
X122239338Y-80480226D01*
X122215677Y-80476716D01*
X122192473Y-80470904D01*
X122169951Y-80462846D01*
X122148327Y-80452618D01*
X122127810Y-80440321D01*
X122108597Y-80426071D01*
X122090873Y-80410007D01*
X122074809Y-80392283D01*
X122060559Y-80373070D01*
X122048262Y-80352553D01*
X122038034Y-80330929D01*
X122029976Y-80308407D01*
X122024164Y-80285203D01*
X122020654Y-80261542D01*
X122019480Y-80237650D01*
X122019480Y-79325150D01*
X122020654Y-79301258D01*
X122024164Y-79277597D01*
X122029976Y-79254393D01*
X122038034Y-79231871D01*
X122048262Y-79210247D01*
X122060559Y-79189730D01*
X122074809Y-79170517D01*
X122090873Y-79152793D01*
X122108597Y-79136729D01*
X122127810Y-79122479D01*
X122148327Y-79110182D01*
X122169951Y-79099954D01*
X122192473Y-79091896D01*
X122215677Y-79086084D01*
X122239338Y-79082574D01*
X122263230Y-79081400D01*
X122750730Y-79081400D01*
X122774622Y-79082574D01*
X122774622Y-79082574D01*
G37*
D16*
X122506980Y-79781400D03*
D17*
X117970300Y-84277200D03*
X117970300Y-86817200D03*
X117970300Y-89357200D03*
X117970300Y-91897200D03*
X117970300Y-94437200D03*
X117970300Y-96977200D03*
D18*
X117970300Y-99517200D03*
D17*
X138303000Y-84277200D03*
X138303000Y-86817200D03*
X138303000Y-89357200D03*
X138303000Y-91897200D03*
X138303000Y-94437200D03*
X138303000Y-96977200D03*
D18*
X138303000Y-99517200D03*
D19*
X135133080Y-100799900D03*
D20*
X117139720Y-81795620D03*
X131547620Y-81404460D03*
X132547620Y-81404460D03*
X133547620Y-81404460D03*
X136653540Y-81404460D03*
X137653540Y-81404460D03*
X138653540Y-81404460D03*
X131547620Y-82204460D03*
X132547620Y-82204460D03*
X133547620Y-82204460D03*
X136653540Y-82204460D03*
X137653540Y-82204460D03*
X138653540Y-82204460D03*
D19*
X135120380Y-81107278D03*
D21*
X135130300Y-100278200D02*
X135153398Y-100301298D01*
X135153398Y-100301298D02*
X135153398Y-100309680D01*
X137657840Y-78384400D02*
X136727840Y-79314400D01*
X132577840Y-78384400D02*
X133507840Y-79314400D01*
X122506980Y-77906400D02*
X122506980Y-77751940D01*
X137100919Y-91897200D02*
X138303000Y-91897200D01*
X134152640Y-91897200D02*
X137100919Y-91897200D01*
X127130300Y-84278200D02*
X127130300Y-84874860D01*
X127130300Y-84874860D02*
X134152640Y-91897200D01*
X122506980Y-81777840D02*
X122494280Y-81790540D01*
X122506980Y-79781400D02*
X122506980Y-81777840D01*
X122494280Y-81790540D02*
X124078760Y-81790540D01*
X127130300Y-83778200D02*
X127130300Y-84278200D01*
X126167650Y-82815550D02*
X127130300Y-83778200D01*
X125103770Y-82815550D02*
X126167650Y-82815550D01*
X124078760Y-81790540D02*
X125103770Y-82815550D01*
X123130300Y-99778200D02*
X123130300Y-100278200D01*
X120329300Y-96977200D02*
X123130300Y-99778200D01*
X117970300Y-96977200D02*
X120329300Y-96977200D01*
X125130300Y-99778200D02*
X125130300Y-100278200D01*
X119794380Y-94442280D02*
X125130300Y-99778200D01*
X117970300Y-94437200D02*
X117975380Y-94442280D01*
X117975380Y-94442280D02*
X119794380Y-94442280D01*
X127130300Y-99124260D02*
X127130300Y-100278200D01*
X119918480Y-91912440D02*
X127130300Y-99124260D01*
X117970300Y-91897200D02*
X117985540Y-91912440D01*
X117985540Y-91912440D02*
X119918480Y-91912440D01*
X117120301Y-88507201D02*
X117970300Y-89357200D01*
X116795299Y-88182199D02*
X117120301Y-88507201D01*
X116795299Y-83713199D02*
X116795299Y-88182199D01*
X129130300Y-98726500D02*
X129130300Y-100278200D01*
X119730520Y-89326720D02*
X129130300Y-98726500D01*
X117970300Y-89357200D02*
X118000780Y-89326720D01*
X118000780Y-89326720D02*
X119730520Y-89326720D01*
X118717958Y-81790540D02*
X116795299Y-83713199D01*
X120619280Y-81790540D02*
X118717958Y-81790540D01*
X131130300Y-98857060D02*
X131130300Y-100278200D01*
X117970300Y-86817200D02*
X119090440Y-86817200D01*
X119090440Y-86817200D02*
X131130300Y-98857060D01*
X133130300Y-99778200D02*
X133130300Y-100278200D01*
X133130300Y-98870780D02*
X133130300Y-99778200D01*
X117970300Y-84277200D02*
X118536720Y-84277200D01*
X118536720Y-84277200D02*
X133130300Y-98870780D01*
D22*
X138302000Y-84278200D02*
X138303000Y-84277200D01*
X135130300Y-84278200D02*
X138302000Y-84278200D01*
X135117840Y-80819400D02*
X135117840Y-80819400D01*
X135130300Y-84278200D02*
X135130300Y-81117198D01*
X135130300Y-81117198D02*
X135120380Y-81107278D01*
D21*
X137100919Y-86817200D02*
X138303000Y-86817200D01*
X133169300Y-86817200D02*
X137100919Y-86817200D01*
X131130300Y-84778200D02*
X133169300Y-86817200D01*
X131130300Y-84278200D02*
X131130300Y-84778200D01*
X137100919Y-89357200D02*
X138303000Y-89357200D01*
X133709300Y-89357200D02*
X137100919Y-89357200D01*
X129130300Y-84778200D02*
X133709300Y-89357200D01*
X129130300Y-84278200D02*
X129130300Y-84778200D01*
X137100919Y-94437200D02*
X138303000Y-94437200D01*
X134691120Y-94437200D02*
X137100919Y-94437200D01*
X125130300Y-84278200D02*
X125130300Y-84876380D01*
X125130300Y-84876380D02*
X134691120Y-94437200D01*
X137100919Y-96977200D02*
X138303000Y-96977200D01*
X135310880Y-96977200D02*
X137100919Y-96977200D01*
X123130300Y-84278200D02*
X123130300Y-84796620D01*
X123130300Y-84796620D02*
X135310880Y-96977200D01*
X137453001Y-98667201D02*
X138303000Y-99517200D01*
X135019681Y-98667201D02*
X137453001Y-98667201D01*
X121130300Y-84278200D02*
X121130300Y-84777820D01*
X121130300Y-84777820D02*
X135019681Y-98667201D01*
X120405920Y-79580740D02*
X120441480Y-79616300D01*
X120631980Y-77751940D02*
X120631980Y-79781400D01*
D23*
G36*
X136818000Y-99663460D02*
G01*
X136875068Y-99950358D01*
X136987010Y-100220611D01*
X137149525Y-100463832D01*
X137356368Y-100670675D01*
X137599589Y-100833190D01*
X137869842Y-100945132D01*
X138156740Y-101002200D01*
X138449260Y-101002200D01*
X138736158Y-100945132D01*
X139006411Y-100833190D01*
X139249632Y-100670675D01*
X139312156Y-100608151D01*
X139283176Y-100704135D01*
X139181003Y-100896295D01*
X139043454Y-101064947D01*
X138875762Y-101203673D01*
X138684324Y-101307183D01*
X138476426Y-101371539D01*
X138228467Y-101397600D01*
X136367956Y-101397600D01*
X136365300Y-100563950D01*
X136206550Y-100405200D01*
X135257300Y-100405200D01*
X135257300Y-100425200D01*
X135003300Y-100425200D01*
X135003300Y-100405200D01*
X134983300Y-100405200D01*
X134983300Y-100151200D01*
X135003300Y-100151200D01*
X135003300Y-100131200D01*
X135257300Y-100131200D01*
X135257300Y-100151200D01*
X136206550Y-100151200D01*
X136365300Y-99992450D01*
X136367101Y-99427201D01*
X136818000Y-99427201D01*
X136818000Y-99663460D01*
X136818000Y-99663460D01*
G37*
X136818000Y-99663460D02*
X136875068Y-99950358D01*
X136987010Y-100220611D01*
X137149525Y-100463832D01*
X137356368Y-100670675D01*
X137599589Y-100833190D01*
X137869842Y-100945132D01*
X138156740Y-101002200D01*
X138449260Y-101002200D01*
X138736158Y-100945132D01*
X139006411Y-100833190D01*
X139249632Y-100670675D01*
X139312156Y-100608151D01*
X139283176Y-100704135D01*
X139181003Y-100896295D01*
X139043454Y-101064947D01*
X138875762Y-101203673D01*
X138684324Y-101307183D01*
X138476426Y-101371539D01*
X138228467Y-101397600D01*
X136367956Y-101397600D01*
X136365300Y-100563950D01*
X136206550Y-100405200D01*
X135257300Y-100405200D01*
X135257300Y-100425200D01*
X135003300Y-100425200D01*
X135003300Y-100405200D01*
X134983300Y-100405200D01*
X134983300Y-100151200D01*
X135003300Y-100151200D01*
X135003300Y-100131200D01*
X135257300Y-100131200D01*
X135257300Y-100151200D01*
X136206550Y-100151200D01*
X136365300Y-99992450D01*
X136367101Y-99427201D01*
X136818000Y-99427201D01*
X136818000Y-99663460D01*
G36*
X120668780Y-98391482D02*
G01*
X120530300Y-98390128D01*
X120405818Y-98402388D01*
X120286120Y-98438698D01*
X120175806Y-98497663D01*
X120079115Y-98577015D01*
X119999763Y-98673706D01*
X119940798Y-98784020D01*
X119904488Y-98903718D01*
X119892228Y-99028200D01*
X119895300Y-99992450D01*
X120054050Y-100151200D01*
X121003300Y-100151200D01*
X121003300Y-100131200D01*
X121257300Y-100131200D01*
X121257300Y-100151200D01*
X121277300Y-100151200D01*
X121277300Y-100405200D01*
X121257300Y-100405200D01*
X121257300Y-100425200D01*
X121003300Y-100425200D01*
X121003300Y-100405200D01*
X120054050Y-100405200D01*
X119895300Y-100563950D01*
X119892644Y-101397600D01*
X118003804Y-101397600D01*
X117753704Y-101373078D01*
X117545365Y-101310176D01*
X117353205Y-101208003D01*
X117184553Y-101070454D01*
X117045827Y-100902762D01*
X116942317Y-100711324D01*
X116891016Y-100545597D01*
X117121508Y-100545597D01*
X117199143Y-100794672D01*
X117463183Y-100920571D01*
X117746711Y-100992539D01*
X118038831Y-101007811D01*
X118328319Y-100965799D01*
X118604047Y-100868119D01*
X118741457Y-100794672D01*
X118819092Y-100545597D01*
X117970300Y-99696805D01*
X117121508Y-100545597D01*
X116891016Y-100545597D01*
X116877961Y-100503426D01*
X116860862Y-100340732D01*
X116941903Y-100365992D01*
X117790695Y-99517200D01*
X118149905Y-99517200D01*
X118998697Y-100365992D01*
X119247772Y-100288357D01*
X119373671Y-100024317D01*
X119445639Y-99740789D01*
X119460911Y-99448669D01*
X119418899Y-99159181D01*
X119321219Y-98883453D01*
X119247772Y-98746043D01*
X118998697Y-98668408D01*
X118149905Y-99517200D01*
X117790695Y-99517200D01*
X116941903Y-98668408D01*
X116851900Y-98696461D01*
X116851900Y-97955244D01*
X116915166Y-98032334D01*
X117141286Y-98217906D01*
X117196711Y-98247531D01*
X117121508Y-98488803D01*
X117970300Y-99337595D01*
X118819092Y-98488803D01*
X118743889Y-98247531D01*
X118799314Y-98217906D01*
X119025434Y-98032334D01*
X119211006Y-97806214D01*
X119247895Y-97737200D01*
X120014499Y-97737200D01*
X120668780Y-98391482D01*
X120668780Y-98391482D01*
G37*
X120668780Y-98391482D02*
X120530300Y-98390128D01*
X120405818Y-98402388D01*
X120286120Y-98438698D01*
X120175806Y-98497663D01*
X120079115Y-98577015D01*
X119999763Y-98673706D01*
X119940798Y-98784020D01*
X119904488Y-98903718D01*
X119892228Y-99028200D01*
X119895300Y-99992450D01*
X120054050Y-100151200D01*
X121003300Y-100151200D01*
X121003300Y-100131200D01*
X121257300Y-100131200D01*
X121257300Y-100151200D01*
X121277300Y-100151200D01*
X121277300Y-100405200D01*
X121257300Y-100405200D01*
X121257300Y-100425200D01*
X121003300Y-100425200D01*
X121003300Y-100405200D01*
X120054050Y-100405200D01*
X119895300Y-100563950D01*
X119892644Y-101397600D01*
X118003804Y-101397600D01*
X117753704Y-101373078D01*
X117545365Y-101310176D01*
X117353205Y-101208003D01*
X117184553Y-101070454D01*
X117045827Y-100902762D01*
X116942317Y-100711324D01*
X116891016Y-100545597D01*
X117121508Y-100545597D01*
X117199143Y-100794672D01*
X117463183Y-100920571D01*
X117746711Y-100992539D01*
X118038831Y-101007811D01*
X118328319Y-100965799D01*
X118604047Y-100868119D01*
X118741457Y-100794672D01*
X118819092Y-100545597D01*
X117970300Y-99696805D01*
X117121508Y-100545597D01*
X116891016Y-100545597D01*
X116877961Y-100503426D01*
X116860862Y-100340732D01*
X116941903Y-100365992D01*
X117790695Y-99517200D01*
X118149905Y-99517200D01*
X118998697Y-100365992D01*
X119247772Y-100288357D01*
X119373671Y-100024317D01*
X119445639Y-99740789D01*
X119460911Y-99448669D01*
X119418899Y-99159181D01*
X119321219Y-98883453D01*
X119247772Y-98746043D01*
X118998697Y-98668408D01*
X118149905Y-99517200D01*
X117790695Y-99517200D01*
X116941903Y-98668408D01*
X116851900Y-98696461D01*
X116851900Y-97955244D01*
X116915166Y-98032334D01*
X117141286Y-98217906D01*
X117196711Y-98247531D01*
X117121508Y-98488803D01*
X117970300Y-99337595D01*
X118819092Y-98488803D01*
X118743889Y-98247531D01*
X118799314Y-98217906D01*
X119025434Y-98032334D01*
X119211006Y-97806214D01*
X119247895Y-97737200D01*
X120014499Y-97737200D01*
X120668780Y-98391482D01*
G36*
X131189200Y-78378050D02*
G01*
X131347950Y-78536800D01*
X132459200Y-78536800D01*
X132459200Y-78516800D01*
X132488215Y-78516800D01*
X132491200Y-79308050D01*
X132649950Y-79466800D01*
X132713200Y-79466800D01*
X132713200Y-79720800D01*
X132649950Y-79720800D01*
X132491200Y-79879550D01*
X132488128Y-80693800D01*
X132500388Y-80818282D01*
X132536698Y-80937980D01*
X132595663Y-81048294D01*
X132675015Y-81144985D01*
X132737026Y-81195876D01*
X132871950Y-81330800D01*
X133348200Y-81333872D01*
X133472682Y-81321612D01*
X133592380Y-81285302D01*
X133702694Y-81226337D01*
X133778200Y-81164371D01*
X133778200Y-81170050D01*
X133936950Y-81328800D01*
X133988128Y-81329457D01*
X133988128Y-81623800D01*
X133995301Y-81696629D01*
X133995301Y-82449827D01*
X133974480Y-82438698D01*
X133854782Y-82402388D01*
X133730300Y-82390128D01*
X133416050Y-82393200D01*
X133257300Y-82551950D01*
X133257300Y-84151200D01*
X133277300Y-84151200D01*
X133277300Y-84405200D01*
X133257300Y-84405200D01*
X133257300Y-84425200D01*
X133003300Y-84425200D01*
X133003300Y-84405200D01*
X132983300Y-84405200D01*
X132983300Y-84151200D01*
X133003300Y-84151200D01*
X133003300Y-82551950D01*
X132844550Y-82393200D01*
X132530300Y-82390128D01*
X132405818Y-82402388D01*
X132286120Y-82438698D01*
X132175806Y-82497663D01*
X132130300Y-82535009D01*
X132084794Y-82497663D01*
X131974480Y-82438698D01*
X131854782Y-82402388D01*
X131730300Y-82390128D01*
X130530300Y-82390128D01*
X130405818Y-82402388D01*
X130286120Y-82438698D01*
X130175806Y-82497663D01*
X130130300Y-82535009D01*
X130084794Y-82497663D01*
X129974480Y-82438698D01*
X129854782Y-82402388D01*
X129730300Y-82390128D01*
X128530300Y-82390128D01*
X128405818Y-82402388D01*
X128286120Y-82438698D01*
X128175806Y-82497663D01*
X128130300Y-82535009D01*
X128084794Y-82497663D01*
X127974480Y-82438698D01*
X127854782Y-82402388D01*
X127730300Y-82390128D01*
X127078587Y-82390128D01*
X127076260Y-82076290D01*
X126917510Y-81917540D01*
X126080760Y-81917540D01*
X126080760Y-81937540D01*
X125826760Y-81937540D01*
X125826760Y-81917540D01*
X125806760Y-81917540D01*
X125806760Y-81663540D01*
X125826760Y-81663540D01*
X125826760Y-80614290D01*
X126080760Y-80614290D01*
X126080760Y-81663540D01*
X126917510Y-81663540D01*
X127076260Y-81504790D01*
X127079332Y-81090540D01*
X127067072Y-80966058D01*
X127030762Y-80846360D01*
X126971797Y-80736046D01*
X126938769Y-80695800D01*
X131186128Y-80695800D01*
X131198388Y-80820282D01*
X131234698Y-80939980D01*
X131293663Y-81050294D01*
X131373015Y-81146985D01*
X131469706Y-81226337D01*
X131580020Y-81285302D01*
X131699718Y-81321612D01*
X131824200Y-81333872D01*
X132300450Y-81330800D01*
X132459200Y-81172050D01*
X132459200Y-78790800D01*
X131347950Y-78790800D01*
X131189200Y-78949550D01*
X131186128Y-80695800D01*
X126938769Y-80695800D01*
X126892445Y-80639355D01*
X126795754Y-80560003D01*
X126685440Y-80501038D01*
X126565742Y-80464728D01*
X126441260Y-80452468D01*
X126239510Y-80455540D01*
X126080760Y-80614290D01*
X125826760Y-80614290D01*
X125668010Y-80455540D01*
X125466260Y-80452468D01*
X125341778Y-80464728D01*
X125222080Y-80501038D01*
X125111766Y-80560003D01*
X125015075Y-80639355D01*
X124951268Y-80717104D01*
X124946052Y-80710748D01*
X124812424Y-80601082D01*
X124659969Y-80519593D01*
X124494545Y-80469412D01*
X124322510Y-80452468D01*
X123835010Y-80452468D01*
X123662975Y-80469412D01*
X123590853Y-80491290D01*
X123615608Y-80409685D01*
X123632552Y-80237650D01*
X123632552Y-79325150D01*
X123615608Y-79153115D01*
X123565427Y-78987691D01*
X123490817Y-78848106D01*
X123525017Y-78806434D01*
X123583982Y-78696120D01*
X123620292Y-78576422D01*
X123632552Y-78451940D01*
X123629480Y-78037690D01*
X123470730Y-77878940D01*
X122633980Y-77878940D01*
X122633980Y-77898940D01*
X122379980Y-77898940D01*
X122379980Y-77878940D01*
X122359980Y-77878940D01*
X122359980Y-77624940D01*
X122379980Y-77624940D01*
X122379980Y-77604940D01*
X122633980Y-77604940D01*
X122633980Y-77624940D01*
X123470730Y-77624940D01*
X123629480Y-77466190D01*
X123632552Y-77051940D01*
X123620292Y-76927458D01*
X123583982Y-76807760D01*
X123581823Y-76803720D01*
X131186430Y-76803720D01*
X131189200Y-78378050D01*
X131189200Y-78378050D01*
G37*
X131189200Y-78378050D02*
X131347950Y-78536800D01*
X132459200Y-78536800D01*
X132459200Y-78516800D01*
X132488215Y-78516800D01*
X132491200Y-79308050D01*
X132649950Y-79466800D01*
X132713200Y-79466800D01*
X132713200Y-79720800D01*
X132649950Y-79720800D01*
X132491200Y-79879550D01*
X132488128Y-80693800D01*
X132500388Y-80818282D01*
X132536698Y-80937980D01*
X132595663Y-81048294D01*
X132675015Y-81144985D01*
X132737026Y-81195876D01*
X132871950Y-81330800D01*
X133348200Y-81333872D01*
X133472682Y-81321612D01*
X133592380Y-81285302D01*
X133702694Y-81226337D01*
X133778200Y-81164371D01*
X133778200Y-81170050D01*
X133936950Y-81328800D01*
X133988128Y-81329457D01*
X133988128Y-81623800D01*
X133995301Y-81696629D01*
X133995301Y-82449827D01*
X133974480Y-82438698D01*
X133854782Y-82402388D01*
X133730300Y-82390128D01*
X133416050Y-82393200D01*
X133257300Y-82551950D01*
X133257300Y-84151200D01*
X133277300Y-84151200D01*
X133277300Y-84405200D01*
X133257300Y-84405200D01*
X133257300Y-84425200D01*
X133003300Y-84425200D01*
X133003300Y-84405200D01*
X132983300Y-84405200D01*
X132983300Y-84151200D01*
X133003300Y-84151200D01*
X133003300Y-82551950D01*
X132844550Y-82393200D01*
X132530300Y-82390128D01*
X132405818Y-82402388D01*
X132286120Y-82438698D01*
X132175806Y-82497663D01*
X132130300Y-82535009D01*
X132084794Y-82497663D01*
X131974480Y-82438698D01*
X131854782Y-82402388D01*
X131730300Y-82390128D01*
X130530300Y-82390128D01*
X130405818Y-82402388D01*
X130286120Y-82438698D01*
X130175806Y-82497663D01*
X130130300Y-82535009D01*
X130084794Y-82497663D01*
X129974480Y-82438698D01*
X129854782Y-82402388D01*
X129730300Y-82390128D01*
X128530300Y-82390128D01*
X128405818Y-82402388D01*
X128286120Y-82438698D01*
X128175806Y-82497663D01*
X128130300Y-82535009D01*
X128084794Y-82497663D01*
X127974480Y-82438698D01*
X127854782Y-82402388D01*
X127730300Y-82390128D01*
X127078587Y-82390128D01*
X127076260Y-82076290D01*
X126917510Y-81917540D01*
X126080760Y-81917540D01*
X126080760Y-81937540D01*
X125826760Y-81937540D01*
X125826760Y-81917540D01*
X125806760Y-81917540D01*
X125806760Y-81663540D01*
X125826760Y-81663540D01*
X125826760Y-80614290D01*
X126080760Y-80614290D01*
X126080760Y-81663540D01*
X126917510Y-81663540D01*
X127076260Y-81504790D01*
X127079332Y-81090540D01*
X127067072Y-80966058D01*
X127030762Y-80846360D01*
X126971797Y-80736046D01*
X126938769Y-80695800D01*
X131186128Y-80695800D01*
X131198388Y-80820282D01*
X131234698Y-80939980D01*
X131293663Y-81050294D01*
X131373015Y-81146985D01*
X131469706Y-81226337D01*
X131580020Y-81285302D01*
X131699718Y-81321612D01*
X131824200Y-81333872D01*
X132300450Y-81330800D01*
X132459200Y-81172050D01*
X132459200Y-78790800D01*
X131347950Y-78790800D01*
X131189200Y-78949550D01*
X131186128Y-80695800D01*
X126938769Y-80695800D01*
X126892445Y-80639355D01*
X126795754Y-80560003D01*
X126685440Y-80501038D01*
X126565742Y-80464728D01*
X126441260Y-80452468D01*
X126239510Y-80455540D01*
X126080760Y-80614290D01*
X125826760Y-80614290D01*
X125668010Y-80455540D01*
X125466260Y-80452468D01*
X125341778Y-80464728D01*
X125222080Y-80501038D01*
X125111766Y-80560003D01*
X125015075Y-80639355D01*
X124951268Y-80717104D01*
X124946052Y-80710748D01*
X124812424Y-80601082D01*
X124659969Y-80519593D01*
X124494545Y-80469412D01*
X124322510Y-80452468D01*
X123835010Y-80452468D01*
X123662975Y-80469412D01*
X123590853Y-80491290D01*
X123615608Y-80409685D01*
X123632552Y-80237650D01*
X123632552Y-79325150D01*
X123615608Y-79153115D01*
X123565427Y-78987691D01*
X123490817Y-78848106D01*
X123525017Y-78806434D01*
X123583982Y-78696120D01*
X123620292Y-78576422D01*
X123632552Y-78451940D01*
X123629480Y-78037690D01*
X123470730Y-77878940D01*
X122633980Y-77878940D01*
X122633980Y-77898940D01*
X122379980Y-77898940D01*
X122379980Y-77878940D01*
X122359980Y-77878940D01*
X122359980Y-77624940D01*
X122379980Y-77624940D01*
X122379980Y-77604940D01*
X122633980Y-77604940D01*
X122633980Y-77624940D01*
X123470730Y-77624940D01*
X123629480Y-77466190D01*
X123632552Y-77051940D01*
X123620292Y-76927458D01*
X123583982Y-76807760D01*
X123581823Y-76803720D01*
X131186430Y-76803720D01*
X131189200Y-78378050D01*
G36*
X139176670Y-77298553D02*
G01*
X139280183Y-77489995D01*
X139344539Y-77697894D01*
X139370601Y-77945862D01*
X139370601Y-83237257D01*
X139358134Y-83222066D01*
X139132014Y-83036494D01*
X138874034Y-82898601D01*
X138594111Y-82813687D01*
X138375950Y-82792200D01*
X138230050Y-82792200D01*
X138011889Y-82813687D01*
X137731966Y-82898601D01*
X137473986Y-83036494D01*
X137343964Y-83143200D01*
X136368372Y-83143200D01*
X136368372Y-83028200D01*
X136356112Y-82903718D01*
X136319802Y-82784020D01*
X136265300Y-82682056D01*
X136265300Y-81329444D01*
X136315450Y-81328800D01*
X136474200Y-81170050D01*
X136474200Y-81164371D01*
X136549706Y-81226337D01*
X136660020Y-81285302D01*
X136779718Y-81321612D01*
X136904200Y-81333872D01*
X137380450Y-81330800D01*
X137515374Y-81195876D01*
X137577385Y-81144985D01*
X137656737Y-81048294D01*
X137715702Y-80937980D01*
X137752012Y-80818282D01*
X137764272Y-80693800D01*
X137761200Y-79879550D01*
X137602450Y-79720800D01*
X137539200Y-79720800D01*
X137539200Y-79466800D01*
X137602450Y-79466800D01*
X137761200Y-79308050D01*
X137763151Y-78790800D01*
X137793200Y-78790800D01*
X137793200Y-81172050D01*
X137951950Y-81330800D01*
X138428200Y-81333872D01*
X138552682Y-81321612D01*
X138672380Y-81285302D01*
X138782694Y-81226337D01*
X138879385Y-81146985D01*
X138958737Y-81050294D01*
X139017702Y-80939980D01*
X139054012Y-80820282D01*
X139066272Y-80695800D01*
X139063200Y-78949550D01*
X138904450Y-78790800D01*
X137793200Y-78790800D01*
X137763151Y-78790800D01*
X137764185Y-78516800D01*
X137793200Y-78516800D01*
X137793200Y-78536800D01*
X138904450Y-78536800D01*
X139063200Y-78378050D01*
X139065336Y-77163973D01*
X139176670Y-77298553D01*
X139176670Y-77298553D01*
G37*
X139176670Y-77298553D02*
X139280183Y-77489995D01*
X139344539Y-77697894D01*
X139370601Y-77945862D01*
X139370601Y-83237257D01*
X139358134Y-83222066D01*
X139132014Y-83036494D01*
X138874034Y-82898601D01*
X138594111Y-82813687D01*
X138375950Y-82792200D01*
X138230050Y-82792200D01*
X138011889Y-82813687D01*
X137731966Y-82898601D01*
X137473986Y-83036494D01*
X137343964Y-83143200D01*
X136368372Y-83143200D01*
X136368372Y-83028200D01*
X136356112Y-82903718D01*
X136319802Y-82784020D01*
X136265300Y-82682056D01*
X136265300Y-81329444D01*
X136315450Y-81328800D01*
X136474200Y-81170050D01*
X136474200Y-81164371D01*
X136549706Y-81226337D01*
X136660020Y-81285302D01*
X136779718Y-81321612D01*
X136904200Y-81333872D01*
X137380450Y-81330800D01*
X137515374Y-81195876D01*
X137577385Y-81144985D01*
X137656737Y-81048294D01*
X137715702Y-80937980D01*
X137752012Y-80818282D01*
X137764272Y-80693800D01*
X137761200Y-79879550D01*
X137602450Y-79720800D01*
X137539200Y-79720800D01*
X137539200Y-79466800D01*
X137602450Y-79466800D01*
X137761200Y-79308050D01*
X137763151Y-78790800D01*
X137793200Y-78790800D01*
X137793200Y-81172050D01*
X137951950Y-81330800D01*
X138428200Y-81333872D01*
X138552682Y-81321612D01*
X138672380Y-81285302D01*
X138782694Y-81226337D01*
X138879385Y-81146985D01*
X138958737Y-81050294D01*
X139017702Y-80939980D01*
X139054012Y-80820282D01*
X139066272Y-80695800D01*
X139063200Y-78949550D01*
X138904450Y-78790800D01*
X137793200Y-78790800D01*
X137763151Y-78790800D01*
X137764185Y-78516800D01*
X137793200Y-78516800D01*
X137793200Y-78536800D01*
X138904450Y-78536800D01*
X139063200Y-78378050D01*
X139065336Y-77163973D01*
X139176670Y-77298553D01*
G36*
X119655022Y-76805776D02*
G01*
X119573533Y-76958231D01*
X119523352Y-77123655D01*
X119506408Y-77295690D01*
X119506408Y-78208190D01*
X119523352Y-78380225D01*
X119573533Y-78545649D01*
X119655022Y-78698104D01*
X119711293Y-78766670D01*
X119655022Y-78835236D01*
X119573533Y-78987691D01*
X119523352Y-79153115D01*
X119506408Y-79325150D01*
X119506408Y-80237650D01*
X119523352Y-80409685D01*
X119573533Y-80575109D01*
X119655022Y-80727564D01*
X119696605Y-80778233D01*
X119642322Y-80844376D01*
X119560833Y-80996831D01*
X119550607Y-81030540D01*
X118755280Y-81030540D01*
X118717957Y-81026864D01*
X118680634Y-81030540D01*
X118680625Y-81030540D01*
X118568972Y-81041537D01*
X118425711Y-81084994D01*
X118293682Y-81155566D01*
X118277643Y-81168729D01*
X118206954Y-81226741D01*
X118206950Y-81226745D01*
X118177957Y-81250539D01*
X118154163Y-81279532D01*
X116851900Y-82581796D01*
X116851900Y-77955623D01*
X116876422Y-77705524D01*
X116939324Y-77497185D01*
X117041497Y-77305025D01*
X117179047Y-77136372D01*
X117346733Y-76997650D01*
X117538175Y-76894137D01*
X117746074Y-76829781D01*
X117994033Y-76803720D01*
X119656709Y-76803720D01*
X119655022Y-76805776D01*
X119655022Y-76805776D01*
G37*
X119655022Y-76805776D02*
X119573533Y-76958231D01*
X119523352Y-77123655D01*
X119506408Y-77295690D01*
X119506408Y-78208190D01*
X119523352Y-78380225D01*
X119573533Y-78545649D01*
X119655022Y-78698104D01*
X119711293Y-78766670D01*
X119655022Y-78835236D01*
X119573533Y-78987691D01*
X119523352Y-79153115D01*
X119506408Y-79325150D01*
X119506408Y-80237650D01*
X119523352Y-80409685D01*
X119573533Y-80575109D01*
X119655022Y-80727564D01*
X119696605Y-80778233D01*
X119642322Y-80844376D01*
X119560833Y-80996831D01*
X119550607Y-81030540D01*
X118755280Y-81030540D01*
X118717957Y-81026864D01*
X118680634Y-81030540D01*
X118680625Y-81030540D01*
X118568972Y-81041537D01*
X118425711Y-81084994D01*
X118293682Y-81155566D01*
X118277643Y-81168729D01*
X118206954Y-81226741D01*
X118206950Y-81226745D01*
X118177957Y-81250539D01*
X118154163Y-81279532D01*
X116851900Y-82581796D01*
X116851900Y-77955623D01*
X116876422Y-77705524D01*
X116939324Y-77497185D01*
X117041497Y-77305025D01*
X117179047Y-77136372D01*
X117346733Y-76997650D01*
X117538175Y-76894137D01*
X117746074Y-76829781D01*
X117994033Y-76803720D01*
X119656709Y-76803720D01*
X119655022Y-76805776D01*
M02*
