M48
; DRILL file {KiCad (5.1.4)-1} date 2019-10-27 13:01:15
; FORMAT={-:-/ absolute / inch / decimal}
; #@! TF.CreationDate,2019-10-27T13:01:15+01:00
; #@! TF.GenerationSoftware,Kicad,Pcbnew,(5.1.4)-1
FMAT,2
INCH
T1C0.0118
T2C0.0157
T3C0.0236
T4C0.0394
%
G90
G05
T1
X4.6118Y-3.2203
X5.179Y-3.2049
X5.179Y-3.2364
X5.2184Y-3.2049
X5.2184Y-3.2364
X5.2578Y-3.2049
X5.2578Y-3.2364
X5.3801Y-3.2049
X5.3801Y-3.2364
X5.4194Y-3.2049
X5.4194Y-3.2364
X5.4588Y-3.2049
X5.4588Y-3.2364
T2
X5.3197Y-3.1932
X5.3202Y-3.9685
T3
X5.3199Y-3.1935
T4
X4.6445Y-3.318
X4.6445Y-3.418
X4.6445Y-3.518
X4.6445Y-3.618
X4.6445Y-3.718
X4.6445Y-3.818
X4.6445Y-3.918
X5.445Y-3.318
X5.445Y-3.418
X5.445Y-3.518
X5.445Y-3.618
X5.445Y-3.718
X5.445Y-3.818
X5.445Y-3.918
T0
M30
