G04 #@! TF.GenerationSoftware,KiCad,Pcbnew,(5.1.4)-1*
G04 #@! TF.CreationDate,2019-10-27T13:01:11+01:00*
G04 #@! TF.ProjectId,project,70726f6a-6563-4742-9e6b-696361645f70,1b*
G04 #@! TF.SameCoordinates,Original*
G04 #@! TF.FileFunction,Legend,Bot*
G04 #@! TF.FilePolarity,Positive*
%FSLAX46Y46*%
G04 Gerber Fmt 4.6, Leading zero omitted, Abs format (unit mm)*
G04 Created by KiCad (PCBNEW (5.1.4)-1) date 2019-10-27 13:01:11*
%MOMM*%
%LPD*%
G04 APERTURE LIST*
%ADD10C,0.250000*%
%ADD11C,0.150000*%
G04 APERTURE END LIST*
D10*
X129134396Y-78628560D02*
X129467729Y-78152370D01*
X129705824Y-78628560D02*
X129705824Y-77628560D01*
X129324872Y-77628560D01*
X129229634Y-77676180D01*
X129182015Y-77723799D01*
X129134396Y-77819037D01*
X129134396Y-77961894D01*
X129182015Y-78057132D01*
X129229634Y-78104751D01*
X129324872Y-78152370D01*
X129705824Y-78152370D01*
X128372491Y-78104751D02*
X128705824Y-78104751D01*
X128705824Y-78628560D02*
X128705824Y-77628560D01*
X128229634Y-77628560D01*
X127848681Y-78628560D02*
X127848681Y-77628560D01*
X127515348Y-78342846D01*
X127182015Y-77628560D01*
X127182015Y-78628560D01*
X126658205Y-78628560D02*
X126467729Y-78628560D01*
X126372491Y-78580941D01*
X126324872Y-78533322D01*
X126229634Y-78390465D01*
X126182015Y-78199989D01*
X126182015Y-77819037D01*
X126229634Y-77723799D01*
X126277253Y-77676180D01*
X126372491Y-77628560D01*
X126562967Y-77628560D01*
X126658205Y-77676180D01*
X126705824Y-77723799D01*
X126753443Y-77819037D01*
X126753443Y-78057132D01*
X126705824Y-78152370D01*
X126658205Y-78199989D01*
X126562967Y-78247608D01*
X126372491Y-78247608D01*
X126277253Y-78199989D01*
X126229634Y-78152370D01*
X126182015Y-78057132D01*
X125277253Y-77628560D02*
X125753443Y-77628560D01*
X125801062Y-78104751D01*
X125753443Y-78057132D01*
X125658205Y-78009513D01*
X125420110Y-78009513D01*
X125324872Y-78057132D01*
X125277253Y-78104751D01*
X125229634Y-78199989D01*
X125229634Y-78438084D01*
X125277253Y-78533322D01*
X125324872Y-78580941D01*
X125420110Y-78628560D01*
X125658205Y-78628560D01*
X125753443Y-78580941D01*
X125801062Y-78533322D01*
X123705824Y-78104751D02*
X123562967Y-78152370D01*
X123515348Y-78199989D01*
X123467729Y-78295227D01*
X123467729Y-78438084D01*
X123515348Y-78533322D01*
X123562967Y-78580941D01*
X123658205Y-78628560D01*
X124039158Y-78628560D01*
X124039158Y-77628560D01*
X123705824Y-77628560D01*
X123610586Y-77676180D01*
X123562967Y-77723799D01*
X123515348Y-77819037D01*
X123515348Y-77914275D01*
X123562967Y-78009513D01*
X123610586Y-78057132D01*
X123705824Y-78104751D01*
X124039158Y-78104751D01*
X123039158Y-78628560D02*
X123039158Y-77961894D01*
X123039158Y-78152370D02*
X122991539Y-78057132D01*
X122943920Y-78009513D01*
X122848681Y-77961894D01*
X122753443Y-77961894D01*
X122039158Y-78580941D02*
X122134396Y-78628560D01*
X122324872Y-78628560D01*
X122420110Y-78580941D01*
X122467729Y-78485703D01*
X122467729Y-78104751D01*
X122420110Y-78009513D01*
X122324872Y-77961894D01*
X122134396Y-77961894D01*
X122039158Y-78009513D01*
X121991539Y-78104751D01*
X121991539Y-78199989D01*
X122467729Y-78295227D01*
X121134396Y-78628560D02*
X121134396Y-78104751D01*
X121182015Y-78009513D01*
X121277253Y-77961894D01*
X121467729Y-77961894D01*
X121562967Y-78009513D01*
X121134396Y-78580941D02*
X121229634Y-78628560D01*
X121467729Y-78628560D01*
X121562967Y-78580941D01*
X121610586Y-78485703D01*
X121610586Y-78390465D01*
X121562967Y-78295227D01*
X121467729Y-78247608D01*
X121229634Y-78247608D01*
X121134396Y-78199989D01*
X120658205Y-78628560D02*
X120658205Y-77628560D01*
X120562967Y-78247608D02*
X120277253Y-78628560D01*
X120277253Y-77961894D02*
X120658205Y-78342846D01*
X119705824Y-78628560D02*
X119801062Y-78580941D01*
X119848681Y-78533322D01*
X119896300Y-78438084D01*
X119896300Y-78152370D01*
X119848681Y-78057132D01*
X119801062Y-78009513D01*
X119705824Y-77961894D01*
X119562967Y-77961894D01*
X119467729Y-78009513D01*
X119420110Y-78057132D01*
X119372491Y-78152370D01*
X119372491Y-78438084D01*
X119420110Y-78533322D01*
X119467729Y-78580941D01*
X119562967Y-78628560D01*
X119705824Y-78628560D01*
X118515348Y-77961894D02*
X118515348Y-78628560D01*
X118943920Y-77961894D02*
X118943920Y-78485703D01*
X118896300Y-78580941D01*
X118801062Y-78628560D01*
X118658205Y-78628560D01*
X118562967Y-78580941D01*
X118515348Y-78533322D01*
X118182015Y-77961894D02*
X117801062Y-77961894D01*
X118039158Y-77628560D02*
X118039158Y-78485703D01*
X117991539Y-78580941D01*
X117896300Y-78628560D01*
X117801062Y-78628560D01*
X129801062Y-79378560D02*
X129562967Y-80378560D01*
X129372491Y-79664275D01*
X129182015Y-80378560D01*
X128943920Y-79378560D01*
X128610586Y-80092846D02*
X128134396Y-80092846D01*
X128705824Y-80378560D02*
X128372491Y-79378560D01*
X128039158Y-80378560D01*
X127705824Y-80283322D02*
X127658205Y-80330941D01*
X127705824Y-80378560D01*
X127753443Y-80330941D01*
X127705824Y-80283322D01*
X127705824Y-80378560D01*
X127039158Y-79378560D02*
X126943920Y-79378560D01*
X126848681Y-79426180D01*
X126801062Y-79473799D01*
X126753443Y-79569037D01*
X126705824Y-79759513D01*
X126705824Y-79997608D01*
X126753443Y-80188084D01*
X126801062Y-80283322D01*
X126848681Y-80330941D01*
X126943920Y-80378560D01*
X127039158Y-80378560D01*
X127134396Y-80330941D01*
X127182015Y-80283322D01*
X127229634Y-80188084D01*
X127277253Y-79997608D01*
X127277253Y-79759513D01*
X127229634Y-79569037D01*
X127182015Y-79473799D01*
X127134396Y-79426180D01*
X127039158Y-79378560D01*
X126229634Y-80378560D02*
X126039158Y-80378560D01*
X125943920Y-80330941D01*
X125896300Y-80283322D01*
X125801062Y-80140465D01*
X125753443Y-79949989D01*
X125753443Y-79569037D01*
X125801062Y-79473799D01*
X125848681Y-79426180D01*
X125943920Y-79378560D01*
X126134396Y-79378560D01*
X126229634Y-79426180D01*
X126277253Y-79473799D01*
X126324872Y-79569037D01*
X126324872Y-79807132D01*
X126277253Y-79902370D01*
X126229634Y-79949989D01*
X126134396Y-79997608D01*
X125943920Y-79997608D01*
X125848681Y-79949989D01*
X125801062Y-79902370D01*
X125753443Y-79807132D01*
X125324872Y-80283322D02*
X125277253Y-80330941D01*
X125324872Y-80378560D01*
X125372491Y-80330941D01*
X125324872Y-80283322D01*
X125324872Y-80378560D01*
X124658205Y-79378560D02*
X124562967Y-79378560D01*
X124467729Y-79426180D01*
X124420110Y-79473799D01*
X124372491Y-79569037D01*
X124324872Y-79759513D01*
X124324872Y-79997608D01*
X124372491Y-80188084D01*
X124420110Y-80283322D01*
X124467729Y-80330941D01*
X124562967Y-80378560D01*
X124658205Y-80378560D01*
X124753443Y-80330941D01*
X124801062Y-80283322D01*
X124848681Y-80188084D01*
X124896300Y-79997608D01*
X124896300Y-79759513D01*
X124848681Y-79569037D01*
X124801062Y-79473799D01*
X124753443Y-79426180D01*
X124658205Y-79378560D01*
X123372491Y-80378560D02*
X123943920Y-80378560D01*
X123658205Y-80378560D02*
X123658205Y-79378560D01*
X123753443Y-79521418D01*
X123848681Y-79616656D01*
X123943920Y-79664275D01*
X129705824Y-82128560D02*
X129705824Y-81461894D01*
X129705824Y-81652370D02*
X129658205Y-81557132D01*
X129610586Y-81509513D01*
X129515348Y-81461894D01*
X129420110Y-81461894D01*
X128705824Y-82080941D02*
X128801062Y-82128560D01*
X128991539Y-82128560D01*
X129086777Y-82080941D01*
X129134396Y-81985703D01*
X129134396Y-81604751D01*
X129086777Y-81509513D01*
X128991539Y-81461894D01*
X128801062Y-81461894D01*
X128705824Y-81509513D01*
X128658205Y-81604751D01*
X128658205Y-81699989D01*
X129134396Y-81795227D01*
X128324872Y-81461894D02*
X128086777Y-82128560D01*
X127848681Y-81461894D01*
X127467729Y-82033322D02*
X127420110Y-82080941D01*
X127467729Y-82128560D01*
X127515348Y-82080941D01*
X127467729Y-82033322D01*
X127467729Y-82128560D01*
X125705824Y-82128560D02*
X126277253Y-82128560D01*
X125991539Y-82128560D02*
X125991539Y-81128560D01*
X126086777Y-81271418D01*
X126182015Y-81366656D01*
X126277253Y-81414275D01*
X125277253Y-82128560D02*
X125277253Y-81128560D01*
X125277253Y-81509513D02*
X125182015Y-81461894D01*
X124991539Y-81461894D01*
X124896300Y-81509513D01*
X124848681Y-81557132D01*
X124801062Y-81652370D01*
X124801062Y-81938084D01*
X124848681Y-82033322D01*
X124896300Y-82080941D01*
X124991539Y-82128560D01*
X125182015Y-82128560D01*
X125277253Y-82080941D01*
X136109164Y-100010220D02*
X136109164Y-99010220D01*
X135871069Y-99010220D01*
X135728212Y-99057840D01*
X135632974Y-99153078D01*
X135585355Y-99248316D01*
X135537736Y-99438792D01*
X135537736Y-99581649D01*
X135585355Y-99772125D01*
X135632974Y-99867363D01*
X135728212Y-99962601D01*
X135871069Y-100010220D01*
X136109164Y-100010220D01*
X135109164Y-100010220D02*
X135109164Y-99010220D01*
X134442498Y-99010220D02*
X134252021Y-99010220D01*
X134156783Y-99057840D01*
X134061545Y-99153078D01*
X134013926Y-99343554D01*
X134013926Y-99676887D01*
X134061545Y-99867363D01*
X134156783Y-99962601D01*
X134252021Y-100010220D01*
X134442498Y-100010220D01*
X134537736Y-99962601D01*
X134632974Y-99867363D01*
X134680593Y-99676887D01*
X134680593Y-99343554D01*
X134632974Y-99153078D01*
X134537736Y-99057840D01*
X134442498Y-99010220D01*
X133632974Y-99105459D02*
X133585355Y-99057840D01*
X133490117Y-99010220D01*
X133252021Y-99010220D01*
X133156783Y-99057840D01*
X133109164Y-99105459D01*
X133061545Y-99200697D01*
X133061545Y-99295935D01*
X133109164Y-99438792D01*
X133680593Y-100010220D01*
X133061545Y-100010220D01*
X136109164Y-97475300D02*
X136109164Y-96475300D01*
X135871069Y-96475300D01*
X135728212Y-96522920D01*
X135632974Y-96618158D01*
X135585355Y-96713396D01*
X135537736Y-96903872D01*
X135537736Y-97046729D01*
X135585355Y-97237205D01*
X135632974Y-97332443D01*
X135728212Y-97427681D01*
X135871069Y-97475300D01*
X136109164Y-97475300D01*
X135109164Y-97475300D02*
X135109164Y-96475300D01*
X134442498Y-96475300D02*
X134252021Y-96475300D01*
X134156783Y-96522920D01*
X134061545Y-96618158D01*
X134013926Y-96808634D01*
X134013926Y-97141967D01*
X134061545Y-97332443D01*
X134156783Y-97427681D01*
X134252021Y-97475300D01*
X134442498Y-97475300D01*
X134537736Y-97427681D01*
X134632974Y-97332443D01*
X134680593Y-97141967D01*
X134680593Y-96808634D01*
X134632974Y-96618158D01*
X134537736Y-96522920D01*
X134442498Y-96475300D01*
X133061545Y-97475300D02*
X133632974Y-97475300D01*
X133347260Y-97475300D02*
X133347260Y-96475300D01*
X133442498Y-96618158D01*
X133537736Y-96713396D01*
X133632974Y-96761015D01*
X136109164Y-94930220D02*
X136109164Y-93930220D01*
X135871069Y-93930220D01*
X135728212Y-93977840D01*
X135632974Y-94073078D01*
X135585355Y-94168316D01*
X135537736Y-94358792D01*
X135537736Y-94501649D01*
X135585355Y-94692125D01*
X135632974Y-94787363D01*
X135728212Y-94882601D01*
X135871069Y-94930220D01*
X136109164Y-94930220D01*
X135109164Y-94930220D02*
X135109164Y-93930220D01*
X134442498Y-93930220D02*
X134252021Y-93930220D01*
X134156783Y-93977840D01*
X134061545Y-94073078D01*
X134013926Y-94263554D01*
X134013926Y-94596887D01*
X134061545Y-94787363D01*
X134156783Y-94882601D01*
X134252021Y-94930220D01*
X134442498Y-94930220D01*
X134537736Y-94882601D01*
X134632974Y-94787363D01*
X134680593Y-94596887D01*
X134680593Y-94263554D01*
X134632974Y-94073078D01*
X134537736Y-93977840D01*
X134442498Y-93930220D01*
X133394879Y-93930220D02*
X133299640Y-93930220D01*
X133204402Y-93977840D01*
X133156783Y-94025459D01*
X133109164Y-94120697D01*
X133061545Y-94311173D01*
X133061545Y-94549268D01*
X133109164Y-94739744D01*
X133156783Y-94834982D01*
X133204402Y-94882601D01*
X133299640Y-94930220D01*
X133394879Y-94930220D01*
X133490117Y-94882601D01*
X133537736Y-94834982D01*
X133585355Y-94739744D01*
X133632974Y-94549268D01*
X133632974Y-94311173D01*
X133585355Y-94120697D01*
X133537736Y-94025459D01*
X133490117Y-93977840D01*
X133394879Y-93930220D01*
X136204402Y-91385140D02*
X135585355Y-91385140D01*
X135918688Y-91766093D01*
X135775831Y-91766093D01*
X135680593Y-91813712D01*
X135632974Y-91861331D01*
X135585355Y-91956569D01*
X135585355Y-92194664D01*
X135632974Y-92289902D01*
X135680593Y-92337521D01*
X135775831Y-92385140D01*
X136061545Y-92385140D01*
X136156783Y-92337521D01*
X136204402Y-92289902D01*
X135156783Y-92289902D02*
X135109164Y-92337521D01*
X135156783Y-92385140D01*
X135204402Y-92337521D01*
X135156783Y-92289902D01*
X135156783Y-92385140D01*
X134775831Y-91385140D02*
X134156783Y-91385140D01*
X134490117Y-91766093D01*
X134347260Y-91766093D01*
X134252021Y-91813712D01*
X134204402Y-91861331D01*
X134156783Y-91956569D01*
X134156783Y-92194664D01*
X134204402Y-92289902D01*
X134252021Y-92337521D01*
X134347260Y-92385140D01*
X134632974Y-92385140D01*
X134728212Y-92337521D01*
X134775831Y-92289902D01*
X133871069Y-91385140D02*
X133537736Y-92385140D01*
X133204402Y-91385140D01*
X136109164Y-89842600D02*
X136109164Y-88842600D01*
X135871069Y-88842600D01*
X135728212Y-88890220D01*
X135632974Y-88985458D01*
X135585355Y-89080696D01*
X135537736Y-89271172D01*
X135537736Y-89414029D01*
X135585355Y-89604505D01*
X135632974Y-89699743D01*
X135728212Y-89794981D01*
X135871069Y-89842600D01*
X136109164Y-89842600D01*
X135109164Y-89842600D02*
X135109164Y-88842600D01*
X134442498Y-88842600D02*
X134252021Y-88842600D01*
X134156783Y-88890220D01*
X134061545Y-88985458D01*
X134013926Y-89175934D01*
X134013926Y-89509267D01*
X134061545Y-89699743D01*
X134156783Y-89794981D01*
X134252021Y-89842600D01*
X134442498Y-89842600D01*
X134537736Y-89794981D01*
X134632974Y-89699743D01*
X134680593Y-89509267D01*
X134680593Y-89175934D01*
X134632974Y-88985458D01*
X134537736Y-88890220D01*
X134442498Y-88842600D01*
X133156783Y-89175934D02*
X133156783Y-89842600D01*
X133394879Y-88794981D02*
X133632974Y-89509267D01*
X133013926Y-89509267D01*
X136109164Y-87297520D02*
X136109164Y-86297520D01*
X135871069Y-86297520D01*
X135728212Y-86345140D01*
X135632974Y-86440378D01*
X135585355Y-86535616D01*
X135537736Y-86726092D01*
X135537736Y-86868949D01*
X135585355Y-87059425D01*
X135632974Y-87154663D01*
X135728212Y-87249901D01*
X135871069Y-87297520D01*
X136109164Y-87297520D01*
X135109164Y-87297520D02*
X135109164Y-86297520D01*
X134442498Y-86297520D02*
X134252021Y-86297520D01*
X134156783Y-86345140D01*
X134061545Y-86440378D01*
X134013926Y-86630854D01*
X134013926Y-86964187D01*
X134061545Y-87154663D01*
X134156783Y-87249901D01*
X134252021Y-87297520D01*
X134442498Y-87297520D01*
X134537736Y-87249901D01*
X134632974Y-87154663D01*
X134680593Y-86964187D01*
X134680593Y-86630854D01*
X134632974Y-86440378D01*
X134537736Y-86345140D01*
X134442498Y-86297520D01*
X133680593Y-86297520D02*
X133061545Y-86297520D01*
X133394879Y-86678473D01*
X133252021Y-86678473D01*
X133156783Y-86726092D01*
X133109164Y-86773711D01*
X133061545Y-86868949D01*
X133061545Y-87107044D01*
X133109164Y-87202282D01*
X133156783Y-87249901D01*
X133252021Y-87297520D01*
X133537736Y-87297520D01*
X133632974Y-87249901D01*
X133680593Y-87202282D01*
X136156783Y-84456566D02*
X135680593Y-84456566D01*
X136252021Y-84742280D02*
X135918688Y-83742280D01*
X135585355Y-84742280D01*
X135252021Y-84742280D02*
X135252021Y-83742280D01*
X134680593Y-84742280D01*
X134680593Y-83742280D01*
X134347260Y-83742280D02*
X133775831Y-83742280D01*
X134061545Y-84742280D02*
X134061545Y-83742280D01*
X122295574Y-99029900D02*
X122390812Y-98982280D01*
X122533669Y-98982280D01*
X122676526Y-99029900D01*
X122771764Y-99125138D01*
X122819383Y-99220376D01*
X122867002Y-99410852D01*
X122867002Y-99553709D01*
X122819383Y-99744185D01*
X122771764Y-99839423D01*
X122676526Y-99934661D01*
X122533669Y-99982280D01*
X122438431Y-99982280D01*
X122295574Y-99934661D01*
X122247955Y-99887042D01*
X122247955Y-99553709D01*
X122438431Y-99553709D01*
X121819383Y-99982280D02*
X121819383Y-98982280D01*
X121247955Y-99982280D01*
X121247955Y-98982280D01*
X120771764Y-99982280D02*
X120771764Y-98982280D01*
X120533669Y-98982280D01*
X120390812Y-99029900D01*
X120295574Y-99125138D01*
X120247955Y-99220376D01*
X120200336Y-99410852D01*
X120200336Y-99553709D01*
X120247955Y-99744185D01*
X120295574Y-99839423D01*
X120390812Y-99934661D01*
X120533669Y-99982280D01*
X120771764Y-99982280D01*
X123390812Y-97490540D02*
X123390812Y-96490540D01*
X123057479Y-97204826D01*
X122724145Y-96490540D01*
X122724145Y-97490540D01*
X122247955Y-97490540D02*
X122247955Y-96490540D01*
X121819383Y-97442921D02*
X121676526Y-97490540D01*
X121438431Y-97490540D01*
X121343193Y-97442921D01*
X121295574Y-97395302D01*
X121247955Y-97300064D01*
X121247955Y-97204826D01*
X121295574Y-97109588D01*
X121343193Y-97061969D01*
X121438431Y-97014350D01*
X121628907Y-96966731D01*
X121724145Y-96919112D01*
X121771764Y-96871493D01*
X121819383Y-96776255D01*
X121819383Y-96681017D01*
X121771764Y-96585779D01*
X121724145Y-96538160D01*
X121628907Y-96490540D01*
X121390812Y-96490540D01*
X121247955Y-96538160D01*
X120628907Y-96490540D02*
X120438431Y-96490540D01*
X120343193Y-96538160D01*
X120247955Y-96633398D01*
X120200336Y-96823874D01*
X120200336Y-97157207D01*
X120247955Y-97347683D01*
X120343193Y-97442921D01*
X120438431Y-97490540D01*
X120628907Y-97490540D01*
X120724145Y-97442921D01*
X120819383Y-97347683D01*
X120867002Y-97157207D01*
X120867002Y-96823874D01*
X120819383Y-96633398D01*
X120724145Y-96538160D01*
X120628907Y-96490540D01*
X123390812Y-94942920D02*
X123390812Y-93942920D01*
X123057479Y-94657206D01*
X122724145Y-93942920D01*
X122724145Y-94942920D01*
X122057479Y-93942920D02*
X121867002Y-93942920D01*
X121771764Y-93990540D01*
X121676526Y-94085778D01*
X121628907Y-94276254D01*
X121628907Y-94609587D01*
X121676526Y-94800063D01*
X121771764Y-94895301D01*
X121867002Y-94942920D01*
X122057479Y-94942920D01*
X122152717Y-94895301D01*
X122247955Y-94800063D01*
X122295574Y-94609587D01*
X122295574Y-94276254D01*
X122247955Y-94085778D01*
X122152717Y-93990540D01*
X122057479Y-93942920D01*
X121247955Y-94895301D02*
X121105098Y-94942920D01*
X120867002Y-94942920D01*
X120771764Y-94895301D01*
X120724145Y-94847682D01*
X120676526Y-94752444D01*
X120676526Y-94657206D01*
X120724145Y-94561968D01*
X120771764Y-94514349D01*
X120867002Y-94466730D01*
X121057479Y-94419111D01*
X121152717Y-94371492D01*
X121200336Y-94323873D01*
X121247955Y-94228635D01*
X121247955Y-94133397D01*
X121200336Y-94038159D01*
X121152717Y-93990540D01*
X121057479Y-93942920D01*
X120819383Y-93942920D01*
X120676526Y-93990540D01*
X120247955Y-94942920D02*
X120247955Y-93942920D01*
X122771764Y-92365461D02*
X122628907Y-92413080D01*
X122390812Y-92413080D01*
X122295574Y-92365461D01*
X122247955Y-92317842D01*
X122200336Y-92222604D01*
X122200336Y-92127366D01*
X122247955Y-92032128D01*
X122295574Y-91984509D01*
X122390812Y-91936890D01*
X122581288Y-91889271D01*
X122676526Y-91841652D01*
X122724145Y-91794033D01*
X122771764Y-91698795D01*
X122771764Y-91603557D01*
X122724145Y-91508319D01*
X122676526Y-91460700D01*
X122581288Y-91413080D01*
X122343193Y-91413080D01*
X122200336Y-91460700D01*
X121200336Y-92317842D02*
X121247955Y-92365461D01*
X121390812Y-92413080D01*
X121486050Y-92413080D01*
X121628907Y-92365461D01*
X121724145Y-92270223D01*
X121771764Y-92174985D01*
X121819383Y-91984509D01*
X121819383Y-91841652D01*
X121771764Y-91651176D01*
X121724145Y-91555938D01*
X121628907Y-91460700D01*
X121486050Y-91413080D01*
X121390812Y-91413080D01*
X121247955Y-91460700D01*
X121200336Y-91508319D01*
X120771764Y-92413080D02*
X120771764Y-91413080D01*
X120200336Y-92413080D02*
X120628907Y-91841652D01*
X120200336Y-91413080D02*
X120771764Y-91984509D01*
X122724145Y-89796880D02*
X122724145Y-88796880D01*
X122152717Y-89796880D01*
X122152717Y-88796880D01*
X121724145Y-89749261D02*
X121581288Y-89796880D01*
X121343193Y-89796880D01*
X121247955Y-89749261D01*
X121200336Y-89701642D01*
X121152717Y-89606404D01*
X121152717Y-89511166D01*
X121200336Y-89415928D01*
X121247955Y-89368309D01*
X121343193Y-89320690D01*
X121533669Y-89273071D01*
X121628907Y-89225452D01*
X121676526Y-89177833D01*
X121724145Y-89082595D01*
X121724145Y-88987357D01*
X121676526Y-88892119D01*
X121628907Y-88844500D01*
X121533669Y-88796880D01*
X121295574Y-88796880D01*
X121152717Y-88844500D01*
X120771764Y-89749261D02*
X120628907Y-89796880D01*
X120390812Y-89796880D01*
X120295574Y-89749261D01*
X120247955Y-89701642D01*
X120200336Y-89606404D01*
X120200336Y-89511166D01*
X120247955Y-89415928D01*
X120295574Y-89368309D01*
X120390812Y-89320690D01*
X120581288Y-89273071D01*
X120676526Y-89225452D01*
X120724145Y-89177833D01*
X120771764Y-89082595D01*
X120771764Y-88987357D01*
X120724145Y-88892119D01*
X120676526Y-88844500D01*
X120581288Y-88796880D01*
X120343193Y-88796880D01*
X120200336Y-88844500D01*
X121914621Y-87261960D02*
X122247955Y-86785770D01*
X122486050Y-87261960D02*
X122486050Y-86261960D01*
X122105098Y-86261960D01*
X122009860Y-86309580D01*
X121962240Y-86357199D01*
X121914621Y-86452437D01*
X121914621Y-86595294D01*
X121962240Y-86690532D01*
X122009860Y-86738151D01*
X122105098Y-86785770D01*
X122486050Y-86785770D01*
X121533669Y-87214341D02*
X121390812Y-87261960D01*
X121152717Y-87261960D01*
X121057479Y-87214341D01*
X121009860Y-87166722D01*
X120962240Y-87071484D01*
X120962240Y-86976246D01*
X121009860Y-86881008D01*
X121057479Y-86833389D01*
X121152717Y-86785770D01*
X121343193Y-86738151D01*
X121438431Y-86690532D01*
X121486050Y-86642913D01*
X121533669Y-86547675D01*
X121533669Y-86452437D01*
X121486050Y-86357199D01*
X121438431Y-86309580D01*
X121343193Y-86261960D01*
X121105098Y-86261960D01*
X120962240Y-86309580D01*
X120676526Y-86261960D02*
X120105098Y-86261960D01*
X120390812Y-87261960D02*
X120390812Y-86261960D01*
X123074560Y-84821020D02*
X123074560Y-83821020D01*
X122836464Y-83821020D01*
X122693607Y-83868640D01*
X122598369Y-83963878D01*
X122550750Y-84059116D01*
X122503131Y-84249592D01*
X122503131Y-84392449D01*
X122550750Y-84582925D01*
X122598369Y-84678163D01*
X122693607Y-84773401D01*
X122836464Y-84821020D01*
X123074560Y-84821020D01*
X122074560Y-84821020D02*
X122074560Y-83821020D01*
X121407893Y-83821020D02*
X121217417Y-83821020D01*
X121122179Y-83868640D01*
X121026940Y-83963878D01*
X120979321Y-84154354D01*
X120979321Y-84487687D01*
X121026940Y-84678163D01*
X121122179Y-84773401D01*
X121217417Y-84821020D01*
X121407893Y-84821020D01*
X121503131Y-84773401D01*
X121598369Y-84678163D01*
X121645988Y-84487687D01*
X121645988Y-84154354D01*
X121598369Y-83963878D01*
X121503131Y-83868640D01*
X121407893Y-83821020D01*
X120074560Y-83821020D02*
X120550750Y-83821020D01*
X120598369Y-84297211D01*
X120550750Y-84249592D01*
X120455512Y-84201973D01*
X120217417Y-84201973D01*
X120122179Y-84249592D01*
X120074560Y-84297211D01*
X120026940Y-84392449D01*
X120026940Y-84630544D01*
X120074560Y-84725782D01*
X120122179Y-84773401D01*
X120217417Y-84821020D01*
X120455512Y-84821020D01*
X120550750Y-84773401D01*
X120598369Y-84725782D01*
D11*
X116640300Y-100847200D02*
X119300300Y-100847200D01*
X119300300Y-100847200D02*
X119300300Y-82947200D01*
X116640300Y-100847200D02*
X116640300Y-82947200D01*
X116640300Y-82947200D02*
X119300300Y-82947200D01*
X136973000Y-100847200D02*
X139633000Y-100847200D01*
X139633000Y-100847200D02*
X139633000Y-82947200D01*
X136973000Y-100847200D02*
X136973000Y-82947200D01*
X136973000Y-82947200D02*
X139633000Y-82947200D01*
M02*
