G04 #@! TF.GenerationSoftware,KiCad,Pcbnew,(5.1.4)-1*
G04 #@! TF.CreationDate,2019-10-27T13:01:12+01:00*
G04 #@! TF.ProjectId,project,70726f6a-6563-4742-9e6b-696361645f70,1b*
G04 #@! TF.SameCoordinates,Original*
G04 #@! TF.FileFunction,Soldermask,Bot*
G04 #@! TF.FilePolarity,Negative*
%FSLAX46Y46*%
G04 Gerber Fmt 4.6, Leading zero omitted, Abs format (unit mm)*
G04 Created by KiCad (PCBNEW (5.1.4)-1) date 2019-10-27 13:01:12*
%MOMM*%
%LPD*%
G04 APERTURE LIST*
%ADD10C,0.100000*%
G04 APERTURE END LIST*
D10*
G36*
X138431687Y-98472227D02*
G01*
X138609274Y-98507550D01*
X138800362Y-98586702D01*
X138972336Y-98701611D01*
X139118589Y-98847864D01*
X139233498Y-99019838D01*
X139312650Y-99210926D01*
X139353000Y-99413784D01*
X139353000Y-99620616D01*
X139312650Y-99823474D01*
X139233498Y-100014562D01*
X139118589Y-100186536D01*
X138972336Y-100332789D01*
X138800362Y-100447698D01*
X138609274Y-100526850D01*
X138431687Y-100562173D01*
X138406417Y-100567200D01*
X138199583Y-100567200D01*
X138174313Y-100562173D01*
X137996726Y-100526850D01*
X137805638Y-100447698D01*
X137633664Y-100332789D01*
X137487411Y-100186536D01*
X137372502Y-100014562D01*
X137293350Y-99823474D01*
X137253000Y-99620616D01*
X137253000Y-99413784D01*
X137293350Y-99210926D01*
X137372502Y-99019838D01*
X137487411Y-98847864D01*
X137633664Y-98701611D01*
X137805638Y-98586702D01*
X137996726Y-98507550D01*
X138174313Y-98472227D01*
X138199583Y-98467200D01*
X138406417Y-98467200D01*
X138431687Y-98472227D01*
X138431687Y-98472227D01*
G37*
G36*
X118098987Y-98472227D02*
G01*
X118276574Y-98507550D01*
X118467662Y-98586702D01*
X118639636Y-98701611D01*
X118785889Y-98847864D01*
X118900798Y-99019838D01*
X118979950Y-99210926D01*
X119020300Y-99413784D01*
X119020300Y-99620616D01*
X118979950Y-99823474D01*
X118900798Y-100014562D01*
X118785889Y-100186536D01*
X118639636Y-100332789D01*
X118467662Y-100447698D01*
X118276574Y-100526850D01*
X118098987Y-100562173D01*
X118073717Y-100567200D01*
X117866883Y-100567200D01*
X117841613Y-100562173D01*
X117664026Y-100526850D01*
X117472938Y-100447698D01*
X117300964Y-100332789D01*
X117154711Y-100186536D01*
X117039802Y-100014562D01*
X116960650Y-99823474D01*
X116920300Y-99620616D01*
X116920300Y-99413784D01*
X116960650Y-99210926D01*
X117039802Y-99019838D01*
X117154711Y-98847864D01*
X117300964Y-98701611D01*
X117472938Y-98586702D01*
X117664026Y-98507550D01*
X117841613Y-98472227D01*
X117866883Y-98467200D01*
X118073717Y-98467200D01*
X118098987Y-98472227D01*
X118098987Y-98472227D01*
G37*
G36*
X118099007Y-95934797D02*
G01*
X118176136Y-95942393D01*
X118374062Y-96002433D01*
X118374065Y-96002434D01*
X118556470Y-96099932D01*
X118716355Y-96231145D01*
X118847568Y-96391030D01*
X118945066Y-96573435D01*
X118945067Y-96573438D01*
X119005107Y-96771364D01*
X119025380Y-96977200D01*
X119005107Y-97183036D01*
X118945067Y-97380962D01*
X118945066Y-97380965D01*
X118847568Y-97563370D01*
X118716355Y-97723255D01*
X118556470Y-97854468D01*
X118374065Y-97951966D01*
X118374062Y-97951967D01*
X118176136Y-98012007D01*
X118099007Y-98019603D01*
X118021880Y-98027200D01*
X117918720Y-98027200D01*
X117841593Y-98019603D01*
X117764464Y-98012007D01*
X117566538Y-97951967D01*
X117566535Y-97951966D01*
X117384130Y-97854468D01*
X117224245Y-97723255D01*
X117093032Y-97563370D01*
X116995534Y-97380965D01*
X116995533Y-97380962D01*
X116935493Y-97183036D01*
X116915220Y-96977200D01*
X116935493Y-96771364D01*
X116995533Y-96573438D01*
X116995534Y-96573435D01*
X117093032Y-96391030D01*
X117224245Y-96231145D01*
X117384130Y-96099932D01*
X117566535Y-96002434D01*
X117566538Y-96002433D01*
X117764464Y-95942393D01*
X117841593Y-95934797D01*
X117918720Y-95927200D01*
X118021880Y-95927200D01*
X118099007Y-95934797D01*
X118099007Y-95934797D01*
G37*
G36*
X138431707Y-95934797D02*
G01*
X138508836Y-95942393D01*
X138706762Y-96002433D01*
X138706765Y-96002434D01*
X138889170Y-96099932D01*
X139049055Y-96231145D01*
X139180268Y-96391030D01*
X139277766Y-96573435D01*
X139277767Y-96573438D01*
X139337807Y-96771364D01*
X139358080Y-96977200D01*
X139337807Y-97183036D01*
X139277767Y-97380962D01*
X139277766Y-97380965D01*
X139180268Y-97563370D01*
X139049055Y-97723255D01*
X138889170Y-97854468D01*
X138706765Y-97951966D01*
X138706762Y-97951967D01*
X138508836Y-98012007D01*
X138431707Y-98019603D01*
X138354580Y-98027200D01*
X138251420Y-98027200D01*
X138174293Y-98019603D01*
X138097164Y-98012007D01*
X137899238Y-97951967D01*
X137899235Y-97951966D01*
X137716830Y-97854468D01*
X137556945Y-97723255D01*
X137425732Y-97563370D01*
X137328234Y-97380965D01*
X137328233Y-97380962D01*
X137268193Y-97183036D01*
X137247920Y-96977200D01*
X137268193Y-96771364D01*
X137328233Y-96573438D01*
X137328234Y-96573435D01*
X137425732Y-96391030D01*
X137556945Y-96231145D01*
X137716830Y-96099932D01*
X137899235Y-96002434D01*
X137899238Y-96002433D01*
X138097164Y-95942393D01*
X138174293Y-95934797D01*
X138251420Y-95927200D01*
X138354580Y-95927200D01*
X138431707Y-95934797D01*
X138431707Y-95934797D01*
G37*
G36*
X138431707Y-93394796D02*
G01*
X138508836Y-93402393D01*
X138706762Y-93462433D01*
X138706765Y-93462434D01*
X138889170Y-93559932D01*
X139049055Y-93691145D01*
X139180268Y-93851030D01*
X139277766Y-94033435D01*
X139277767Y-94033438D01*
X139337807Y-94231364D01*
X139358080Y-94437200D01*
X139337807Y-94643036D01*
X139277767Y-94840962D01*
X139277766Y-94840965D01*
X139180268Y-95023370D01*
X139049055Y-95183255D01*
X138889170Y-95314468D01*
X138706765Y-95411966D01*
X138706762Y-95411967D01*
X138508836Y-95472007D01*
X138431707Y-95479603D01*
X138354580Y-95487200D01*
X138251420Y-95487200D01*
X138174293Y-95479603D01*
X138097164Y-95472007D01*
X137899238Y-95411967D01*
X137899235Y-95411966D01*
X137716830Y-95314468D01*
X137556945Y-95183255D01*
X137425732Y-95023370D01*
X137328234Y-94840965D01*
X137328233Y-94840962D01*
X137268193Y-94643036D01*
X137247920Y-94437200D01*
X137268193Y-94231364D01*
X137328233Y-94033438D01*
X137328234Y-94033435D01*
X137425732Y-93851030D01*
X137556945Y-93691145D01*
X137716830Y-93559932D01*
X137899235Y-93462434D01*
X137899238Y-93462433D01*
X138097164Y-93402393D01*
X138174293Y-93394796D01*
X138251420Y-93387200D01*
X138354580Y-93387200D01*
X138431707Y-93394796D01*
X138431707Y-93394796D01*
G37*
G36*
X118099007Y-93394796D02*
G01*
X118176136Y-93402393D01*
X118374062Y-93462433D01*
X118374065Y-93462434D01*
X118556470Y-93559932D01*
X118716355Y-93691145D01*
X118847568Y-93851030D01*
X118945066Y-94033435D01*
X118945067Y-94033438D01*
X119005107Y-94231364D01*
X119025380Y-94437200D01*
X119005107Y-94643036D01*
X118945067Y-94840962D01*
X118945066Y-94840965D01*
X118847568Y-95023370D01*
X118716355Y-95183255D01*
X118556470Y-95314468D01*
X118374065Y-95411966D01*
X118374062Y-95411967D01*
X118176136Y-95472007D01*
X118099007Y-95479603D01*
X118021880Y-95487200D01*
X117918720Y-95487200D01*
X117841593Y-95479603D01*
X117764464Y-95472007D01*
X117566538Y-95411967D01*
X117566535Y-95411966D01*
X117384130Y-95314468D01*
X117224245Y-95183255D01*
X117093032Y-95023370D01*
X116995534Y-94840965D01*
X116995533Y-94840962D01*
X116935493Y-94643036D01*
X116915220Y-94437200D01*
X116935493Y-94231364D01*
X116995533Y-94033438D01*
X116995534Y-94033435D01*
X117093032Y-93851030D01*
X117224245Y-93691145D01*
X117384130Y-93559932D01*
X117566535Y-93462434D01*
X117566538Y-93462433D01*
X117764464Y-93402393D01*
X117841593Y-93394796D01*
X117918720Y-93387200D01*
X118021880Y-93387200D01*
X118099007Y-93394796D01*
X118099007Y-93394796D01*
G37*
G36*
X138431707Y-90854797D02*
G01*
X138508836Y-90862393D01*
X138706762Y-90922433D01*
X138706765Y-90922434D01*
X138889170Y-91019932D01*
X139049055Y-91151145D01*
X139180268Y-91311030D01*
X139277766Y-91493435D01*
X139277767Y-91493438D01*
X139337807Y-91691364D01*
X139358080Y-91897200D01*
X139337807Y-92103036D01*
X139277767Y-92300962D01*
X139277766Y-92300965D01*
X139180268Y-92483370D01*
X139049055Y-92643255D01*
X138889170Y-92774468D01*
X138706765Y-92871966D01*
X138706762Y-92871967D01*
X138508836Y-92932007D01*
X138431707Y-92939603D01*
X138354580Y-92947200D01*
X138251420Y-92947200D01*
X138174293Y-92939603D01*
X138097164Y-92932007D01*
X137899238Y-92871967D01*
X137899235Y-92871966D01*
X137716830Y-92774468D01*
X137556945Y-92643255D01*
X137425732Y-92483370D01*
X137328234Y-92300965D01*
X137328233Y-92300962D01*
X137268193Y-92103036D01*
X137247920Y-91897200D01*
X137268193Y-91691364D01*
X137328233Y-91493438D01*
X137328234Y-91493435D01*
X137425732Y-91311030D01*
X137556945Y-91151145D01*
X137716830Y-91019932D01*
X137899235Y-90922434D01*
X137899238Y-90922433D01*
X138097164Y-90862393D01*
X138174293Y-90854797D01*
X138251420Y-90847200D01*
X138354580Y-90847200D01*
X138431707Y-90854797D01*
X138431707Y-90854797D01*
G37*
G36*
X118099007Y-90854797D02*
G01*
X118176136Y-90862393D01*
X118374062Y-90922433D01*
X118374065Y-90922434D01*
X118556470Y-91019932D01*
X118716355Y-91151145D01*
X118847568Y-91311030D01*
X118945066Y-91493435D01*
X118945067Y-91493438D01*
X119005107Y-91691364D01*
X119025380Y-91897200D01*
X119005107Y-92103036D01*
X118945067Y-92300962D01*
X118945066Y-92300965D01*
X118847568Y-92483370D01*
X118716355Y-92643255D01*
X118556470Y-92774468D01*
X118374065Y-92871966D01*
X118374062Y-92871967D01*
X118176136Y-92932007D01*
X118099007Y-92939603D01*
X118021880Y-92947200D01*
X117918720Y-92947200D01*
X117841593Y-92939603D01*
X117764464Y-92932007D01*
X117566538Y-92871967D01*
X117566535Y-92871966D01*
X117384130Y-92774468D01*
X117224245Y-92643255D01*
X117093032Y-92483370D01*
X116995534Y-92300965D01*
X116995533Y-92300962D01*
X116935493Y-92103036D01*
X116915220Y-91897200D01*
X116935493Y-91691364D01*
X116995533Y-91493438D01*
X116995534Y-91493435D01*
X117093032Y-91311030D01*
X117224245Y-91151145D01*
X117384130Y-91019932D01*
X117566535Y-90922434D01*
X117566538Y-90922433D01*
X117764464Y-90862393D01*
X117841593Y-90854797D01*
X117918720Y-90847200D01*
X118021880Y-90847200D01*
X118099007Y-90854797D01*
X118099007Y-90854797D01*
G37*
G36*
X118099007Y-88314796D02*
G01*
X118176136Y-88322393D01*
X118374062Y-88382433D01*
X118374065Y-88382434D01*
X118556470Y-88479932D01*
X118716355Y-88611145D01*
X118847568Y-88771030D01*
X118945066Y-88953435D01*
X118945067Y-88953438D01*
X119005107Y-89151364D01*
X119025380Y-89357200D01*
X119005107Y-89563036D01*
X118945067Y-89760962D01*
X118945066Y-89760965D01*
X118847568Y-89943370D01*
X118716355Y-90103255D01*
X118556470Y-90234468D01*
X118374065Y-90331966D01*
X118374062Y-90331967D01*
X118176136Y-90392007D01*
X118099007Y-90399603D01*
X118021880Y-90407200D01*
X117918720Y-90407200D01*
X117841593Y-90399603D01*
X117764464Y-90392007D01*
X117566538Y-90331967D01*
X117566535Y-90331966D01*
X117384130Y-90234468D01*
X117224245Y-90103255D01*
X117093032Y-89943370D01*
X116995534Y-89760965D01*
X116995533Y-89760962D01*
X116935493Y-89563036D01*
X116915220Y-89357200D01*
X116935493Y-89151364D01*
X116995533Y-88953438D01*
X116995534Y-88953435D01*
X117093032Y-88771030D01*
X117224245Y-88611145D01*
X117384130Y-88479932D01*
X117566535Y-88382434D01*
X117566538Y-88382433D01*
X117764464Y-88322393D01*
X117841593Y-88314796D01*
X117918720Y-88307200D01*
X118021880Y-88307200D01*
X118099007Y-88314796D01*
X118099007Y-88314796D01*
G37*
G36*
X138431707Y-88314796D02*
G01*
X138508836Y-88322393D01*
X138706762Y-88382433D01*
X138706765Y-88382434D01*
X138889170Y-88479932D01*
X139049055Y-88611145D01*
X139180268Y-88771030D01*
X139277766Y-88953435D01*
X139277767Y-88953438D01*
X139337807Y-89151364D01*
X139358080Y-89357200D01*
X139337807Y-89563036D01*
X139277767Y-89760962D01*
X139277766Y-89760965D01*
X139180268Y-89943370D01*
X139049055Y-90103255D01*
X138889170Y-90234468D01*
X138706765Y-90331966D01*
X138706762Y-90331967D01*
X138508836Y-90392007D01*
X138431707Y-90399603D01*
X138354580Y-90407200D01*
X138251420Y-90407200D01*
X138174293Y-90399603D01*
X138097164Y-90392007D01*
X137899238Y-90331967D01*
X137899235Y-90331966D01*
X137716830Y-90234468D01*
X137556945Y-90103255D01*
X137425732Y-89943370D01*
X137328234Y-89760965D01*
X137328233Y-89760962D01*
X137268193Y-89563036D01*
X137247920Y-89357200D01*
X137268193Y-89151364D01*
X137328233Y-88953438D01*
X137328234Y-88953435D01*
X137425732Y-88771030D01*
X137556945Y-88611145D01*
X137716830Y-88479932D01*
X137899235Y-88382434D01*
X137899238Y-88382433D01*
X138097164Y-88322393D01*
X138174293Y-88314796D01*
X138251420Y-88307200D01*
X138354580Y-88307200D01*
X138431707Y-88314796D01*
X138431707Y-88314796D01*
G37*
G36*
X138431707Y-85774797D02*
G01*
X138508836Y-85782393D01*
X138706762Y-85842433D01*
X138706765Y-85842434D01*
X138889170Y-85939932D01*
X139049055Y-86071145D01*
X139180268Y-86231030D01*
X139277766Y-86413435D01*
X139277767Y-86413438D01*
X139337807Y-86611364D01*
X139358080Y-86817200D01*
X139337807Y-87023036D01*
X139277767Y-87220962D01*
X139277766Y-87220965D01*
X139180268Y-87403370D01*
X139049055Y-87563255D01*
X138889170Y-87694468D01*
X138706765Y-87791966D01*
X138706762Y-87791967D01*
X138508836Y-87852007D01*
X138431707Y-87859604D01*
X138354580Y-87867200D01*
X138251420Y-87867200D01*
X138174293Y-87859604D01*
X138097164Y-87852007D01*
X137899238Y-87791967D01*
X137899235Y-87791966D01*
X137716830Y-87694468D01*
X137556945Y-87563255D01*
X137425732Y-87403370D01*
X137328234Y-87220965D01*
X137328233Y-87220962D01*
X137268193Y-87023036D01*
X137247920Y-86817200D01*
X137268193Y-86611364D01*
X137328233Y-86413438D01*
X137328234Y-86413435D01*
X137425732Y-86231030D01*
X137556945Y-86071145D01*
X137716830Y-85939932D01*
X137899235Y-85842434D01*
X137899238Y-85842433D01*
X138097164Y-85782393D01*
X138174293Y-85774797D01*
X138251420Y-85767200D01*
X138354580Y-85767200D01*
X138431707Y-85774797D01*
X138431707Y-85774797D01*
G37*
G36*
X118099007Y-85774797D02*
G01*
X118176136Y-85782393D01*
X118374062Y-85842433D01*
X118374065Y-85842434D01*
X118556470Y-85939932D01*
X118716355Y-86071145D01*
X118847568Y-86231030D01*
X118945066Y-86413435D01*
X118945067Y-86413438D01*
X119005107Y-86611364D01*
X119025380Y-86817200D01*
X119005107Y-87023036D01*
X118945067Y-87220962D01*
X118945066Y-87220965D01*
X118847568Y-87403370D01*
X118716355Y-87563255D01*
X118556470Y-87694468D01*
X118374065Y-87791966D01*
X118374062Y-87791967D01*
X118176136Y-87852007D01*
X118099007Y-87859604D01*
X118021880Y-87867200D01*
X117918720Y-87867200D01*
X117841593Y-87859604D01*
X117764464Y-87852007D01*
X117566538Y-87791967D01*
X117566535Y-87791966D01*
X117384130Y-87694468D01*
X117224245Y-87563255D01*
X117093032Y-87403370D01*
X116995534Y-87220965D01*
X116995533Y-87220962D01*
X116935493Y-87023036D01*
X116915220Y-86817200D01*
X116935493Y-86611364D01*
X116995533Y-86413438D01*
X116995534Y-86413435D01*
X117093032Y-86231030D01*
X117224245Y-86071145D01*
X117384130Y-85939932D01*
X117566535Y-85842434D01*
X117566538Y-85842433D01*
X117764464Y-85782393D01*
X117841593Y-85774797D01*
X117918720Y-85767200D01*
X118021880Y-85767200D01*
X118099007Y-85774797D01*
X118099007Y-85774797D01*
G37*
G36*
X118099007Y-83234796D02*
G01*
X118176136Y-83242393D01*
X118374062Y-83302433D01*
X118374065Y-83302434D01*
X118556470Y-83399932D01*
X118716355Y-83531145D01*
X118847568Y-83691030D01*
X118945066Y-83873435D01*
X118945067Y-83873438D01*
X119005107Y-84071364D01*
X119025380Y-84277200D01*
X119005107Y-84483036D01*
X118945067Y-84680962D01*
X118945066Y-84680965D01*
X118847568Y-84863370D01*
X118716355Y-85023255D01*
X118556470Y-85154468D01*
X118374065Y-85251966D01*
X118374062Y-85251967D01*
X118176136Y-85312007D01*
X118099007Y-85319603D01*
X118021880Y-85327200D01*
X117918720Y-85327200D01*
X117841593Y-85319603D01*
X117764464Y-85312007D01*
X117566538Y-85251967D01*
X117566535Y-85251966D01*
X117384130Y-85154468D01*
X117224245Y-85023255D01*
X117093032Y-84863370D01*
X116995534Y-84680965D01*
X116995533Y-84680962D01*
X116935493Y-84483036D01*
X116915220Y-84277200D01*
X116935493Y-84071364D01*
X116995533Y-83873438D01*
X116995534Y-83873435D01*
X117093032Y-83691030D01*
X117224245Y-83531145D01*
X117384130Y-83399932D01*
X117566535Y-83302434D01*
X117566538Y-83302433D01*
X117764464Y-83242393D01*
X117841593Y-83234796D01*
X117918720Y-83227200D01*
X118021880Y-83227200D01*
X118099007Y-83234796D01*
X118099007Y-83234796D01*
G37*
G36*
X138431707Y-83234796D02*
G01*
X138508836Y-83242393D01*
X138706762Y-83302433D01*
X138706765Y-83302434D01*
X138889170Y-83399932D01*
X139049055Y-83531145D01*
X139180268Y-83691030D01*
X139277766Y-83873435D01*
X139277767Y-83873438D01*
X139337807Y-84071364D01*
X139358080Y-84277200D01*
X139337807Y-84483036D01*
X139277767Y-84680962D01*
X139277766Y-84680965D01*
X139180268Y-84863370D01*
X139049055Y-85023255D01*
X138889170Y-85154468D01*
X138706765Y-85251966D01*
X138706762Y-85251967D01*
X138508836Y-85312007D01*
X138431707Y-85319603D01*
X138354580Y-85327200D01*
X138251420Y-85327200D01*
X138174293Y-85319603D01*
X138097164Y-85312007D01*
X137899238Y-85251967D01*
X137899235Y-85251966D01*
X137716830Y-85154468D01*
X137556945Y-85023255D01*
X137425732Y-84863370D01*
X137328234Y-84680965D01*
X137328233Y-84680962D01*
X137268193Y-84483036D01*
X137247920Y-84277200D01*
X137268193Y-84071364D01*
X137328233Y-83873438D01*
X137328234Y-83873435D01*
X137425732Y-83691030D01*
X137556945Y-83531145D01*
X137716830Y-83399932D01*
X137899235Y-83302434D01*
X137899238Y-83302433D01*
X138097164Y-83242393D01*
X138174293Y-83234796D01*
X138251420Y-83227200D01*
X138354580Y-83227200D01*
X138431707Y-83234796D01*
X138431707Y-83234796D01*
G37*
G36*
X133548200Y-78168801D02*
G01*
X133550602Y-78193187D01*
X133557715Y-78216636D01*
X133569266Y-78238247D01*
X133584811Y-78257189D01*
X133603753Y-78272734D01*
X133625364Y-78284285D01*
X133648813Y-78291398D01*
X133673199Y-78293800D01*
X134039201Y-78293800D01*
X134063587Y-78291398D01*
X134087036Y-78284285D01*
X134108647Y-78272734D01*
X134127589Y-78257189D01*
X134143134Y-78238247D01*
X134154685Y-78216636D01*
X134161798Y-78193187D01*
X134164200Y-78168801D01*
X134164200Y-76431800D01*
X136088200Y-76431800D01*
X136088200Y-78168801D01*
X136090602Y-78193187D01*
X136097715Y-78216636D01*
X136109266Y-78238247D01*
X136124811Y-78257189D01*
X136143753Y-78272734D01*
X136165364Y-78284285D01*
X136188813Y-78291398D01*
X136213199Y-78293800D01*
X136579201Y-78293800D01*
X136603587Y-78291398D01*
X136627036Y-78284285D01*
X136648647Y-78272734D01*
X136667589Y-78257189D01*
X136683134Y-78238247D01*
X136694685Y-78216636D01*
X136701798Y-78193187D01*
X136704200Y-78168801D01*
X136704200Y-76431800D01*
X138628200Y-76431800D01*
X138628200Y-80895800D01*
X136599506Y-80895800D01*
X136579201Y-80893800D01*
X136213199Y-80893800D01*
X136192894Y-80895800D01*
X135948863Y-80895800D01*
X135924477Y-80898202D01*
X135901028Y-80905315D01*
X135879417Y-80916866D01*
X135860475Y-80932411D01*
X135844930Y-80951353D01*
X135833379Y-80972964D01*
X135826266Y-80996413D01*
X135823864Y-81020799D01*
X135826200Y-81044521D01*
X135826200Y-81182745D01*
X135799300Y-81317982D01*
X135746533Y-81445373D01*
X135746532Y-81445374D01*
X135669926Y-81560024D01*
X135572424Y-81657526D01*
X135514710Y-81696089D01*
X135457773Y-81734133D01*
X135330382Y-81786900D01*
X135195145Y-81813800D01*
X135057255Y-81813800D01*
X134922018Y-81786900D01*
X134794627Y-81734133D01*
X134737690Y-81696089D01*
X134679976Y-81657526D01*
X134582474Y-81560024D01*
X134505868Y-81445374D01*
X134505867Y-81445373D01*
X134453100Y-81317982D01*
X134426200Y-81182745D01*
X134426200Y-81044521D01*
X134428536Y-81020795D01*
X134426133Y-80996409D01*
X134419019Y-80972960D01*
X134407467Y-80951350D01*
X134391922Y-80932408D01*
X134372979Y-80916864D01*
X134351368Y-80905313D01*
X134327919Y-80898201D01*
X134303537Y-80895800D01*
X134059506Y-80895800D01*
X134039201Y-80893800D01*
X133673199Y-80893800D01*
X133652894Y-80895800D01*
X131624200Y-80895800D01*
X131624200Y-76431800D01*
X133548200Y-76431800D01*
X133548200Y-78168801D01*
X133548200Y-78168801D01*
G37*
M02*
