G04 #@! TF.GenerationSoftware,KiCad,Pcbnew,(5.1.4)-1*
G04 #@! TF.CreationDate,2019-10-27T13:18:03+01:00*
G04 #@! TF.ProjectId,project,70726f6a-6563-4742-9e6b-696361645f70,rev?*
G04 #@! TF.SameCoordinates,Original*
G04 #@! TF.FileFunction,Legend,Top*
G04 #@! TF.FilePolarity,Positive*
%FSLAX46Y46*%
G04 Gerber Fmt 4.6, Leading zero omitted, Abs format (unit mm)*
G04 Created by KiCad (PCBNEW (5.1.4)-1) date 2019-10-27 13:18:03*
%MOMM*%
%LPD*%
G04 APERTURE LIST*
%ADD10C,0.250000*%
%ADD11C,0.150000*%
%ADD12C,0.120000*%
%ADD13C,0.200000*%
G04 APERTURE END LIST*
D10*
X122513563Y-87955440D02*
X122180230Y-87479250D01*
X121942135Y-87955440D02*
X121942135Y-86955440D01*
X122323087Y-86955440D01*
X122418325Y-87003060D01*
X122465944Y-87050679D01*
X122513563Y-87145917D01*
X122513563Y-87288774D01*
X122465944Y-87384012D01*
X122418325Y-87431631D01*
X122323087Y-87479250D01*
X121942135Y-87479250D01*
X123275468Y-87431631D02*
X122942135Y-87431631D01*
X122942135Y-87955440D02*
X122942135Y-86955440D01*
X123418325Y-86955440D01*
X123799278Y-87955440D02*
X123799278Y-86955440D01*
X124132611Y-87669726D01*
X124465944Y-86955440D01*
X124465944Y-87955440D01*
X124989754Y-87955440D02*
X125180230Y-87955440D01*
X125275468Y-87907821D01*
X125323087Y-87860202D01*
X125418325Y-87717345D01*
X125465944Y-87526869D01*
X125465944Y-87145917D01*
X125418325Y-87050679D01*
X125370706Y-87003060D01*
X125275468Y-86955440D01*
X125084992Y-86955440D01*
X124989754Y-87003060D01*
X124942135Y-87050679D01*
X124894516Y-87145917D01*
X124894516Y-87384012D01*
X124942135Y-87479250D01*
X124989754Y-87526869D01*
X125084992Y-87574488D01*
X125275468Y-87574488D01*
X125370706Y-87526869D01*
X125418325Y-87479250D01*
X125465944Y-87384012D01*
X126370706Y-86955440D02*
X125894516Y-86955440D01*
X125846897Y-87431631D01*
X125894516Y-87384012D01*
X125989754Y-87336393D01*
X126227849Y-87336393D01*
X126323087Y-87384012D01*
X126370706Y-87431631D01*
X126418325Y-87526869D01*
X126418325Y-87764964D01*
X126370706Y-87860202D01*
X126323087Y-87907821D01*
X126227849Y-87955440D01*
X125989754Y-87955440D01*
X125894516Y-87907821D01*
X125846897Y-87860202D01*
X127942135Y-87431631D02*
X128084992Y-87479250D01*
X128132611Y-87526869D01*
X128180230Y-87622107D01*
X128180230Y-87764964D01*
X128132611Y-87860202D01*
X128084992Y-87907821D01*
X127989754Y-87955440D01*
X127608801Y-87955440D01*
X127608801Y-86955440D01*
X127942135Y-86955440D01*
X128037373Y-87003060D01*
X128084992Y-87050679D01*
X128132611Y-87145917D01*
X128132611Y-87241155D01*
X128084992Y-87336393D01*
X128037373Y-87384012D01*
X127942135Y-87431631D01*
X127608801Y-87431631D01*
X128608801Y-87955440D02*
X128608801Y-87288774D01*
X128608801Y-87479250D02*
X128656420Y-87384012D01*
X128704040Y-87336393D01*
X128799278Y-87288774D01*
X128894516Y-87288774D01*
X129608801Y-87907821D02*
X129513563Y-87955440D01*
X129323087Y-87955440D01*
X129227849Y-87907821D01*
X129180230Y-87812583D01*
X129180230Y-87431631D01*
X129227849Y-87336393D01*
X129323087Y-87288774D01*
X129513563Y-87288774D01*
X129608801Y-87336393D01*
X129656420Y-87431631D01*
X129656420Y-87526869D01*
X129180230Y-87622107D01*
X130513563Y-87955440D02*
X130513563Y-87431631D01*
X130465944Y-87336393D01*
X130370706Y-87288774D01*
X130180230Y-87288774D01*
X130084992Y-87336393D01*
X130513563Y-87907821D02*
X130418325Y-87955440D01*
X130180230Y-87955440D01*
X130084992Y-87907821D01*
X130037373Y-87812583D01*
X130037373Y-87717345D01*
X130084992Y-87622107D01*
X130180230Y-87574488D01*
X130418325Y-87574488D01*
X130513563Y-87526869D01*
X130989754Y-87955440D02*
X130989754Y-86955440D01*
X131084992Y-87574488D02*
X131370706Y-87955440D01*
X131370706Y-87288774D02*
X130989754Y-87669726D01*
X131942135Y-87955440D02*
X131846897Y-87907821D01*
X131799278Y-87860202D01*
X131751659Y-87764964D01*
X131751659Y-87479250D01*
X131799278Y-87384012D01*
X131846897Y-87336393D01*
X131942135Y-87288774D01*
X132084992Y-87288774D01*
X132180230Y-87336393D01*
X132227849Y-87384012D01*
X132275468Y-87479250D01*
X132275468Y-87764964D01*
X132227849Y-87860202D01*
X132180230Y-87907821D01*
X132084992Y-87955440D01*
X131942135Y-87955440D01*
X133132611Y-87288774D02*
X133132611Y-87955440D01*
X132704040Y-87288774D02*
X132704040Y-87812583D01*
X132751659Y-87907821D01*
X132846897Y-87955440D01*
X132989754Y-87955440D01*
X133084992Y-87907821D01*
X133132611Y-87860202D01*
X133465944Y-87288774D02*
X133846897Y-87288774D01*
X133608801Y-86955440D02*
X133608801Y-87812583D01*
X133656420Y-87907821D01*
X133751659Y-87955440D01*
X133846897Y-87955440D01*
X121846897Y-88705440D02*
X122084992Y-89705440D01*
X122275468Y-88991155D01*
X122465944Y-89705440D01*
X122704040Y-88705440D01*
X123037373Y-89419726D02*
X123513563Y-89419726D01*
X122942135Y-89705440D02*
X123275468Y-88705440D01*
X123608801Y-89705440D01*
X123942135Y-89610202D02*
X123989754Y-89657821D01*
X123942135Y-89705440D01*
X123894516Y-89657821D01*
X123942135Y-89610202D01*
X123942135Y-89705440D01*
X124608801Y-88705440D02*
X124704040Y-88705440D01*
X124799278Y-88753060D01*
X124846897Y-88800679D01*
X124894516Y-88895917D01*
X124942135Y-89086393D01*
X124942135Y-89324488D01*
X124894516Y-89514964D01*
X124846897Y-89610202D01*
X124799278Y-89657821D01*
X124704040Y-89705440D01*
X124608801Y-89705440D01*
X124513563Y-89657821D01*
X124465944Y-89610202D01*
X124418325Y-89514964D01*
X124370706Y-89324488D01*
X124370706Y-89086393D01*
X124418325Y-88895917D01*
X124465944Y-88800679D01*
X124513563Y-88753060D01*
X124608801Y-88705440D01*
X125418325Y-89705440D02*
X125608801Y-89705440D01*
X125704040Y-89657821D01*
X125751659Y-89610202D01*
X125846897Y-89467345D01*
X125894516Y-89276869D01*
X125894516Y-88895917D01*
X125846897Y-88800679D01*
X125799278Y-88753060D01*
X125704040Y-88705440D01*
X125513563Y-88705440D01*
X125418325Y-88753060D01*
X125370706Y-88800679D01*
X125323087Y-88895917D01*
X125323087Y-89134012D01*
X125370706Y-89229250D01*
X125418325Y-89276869D01*
X125513563Y-89324488D01*
X125704040Y-89324488D01*
X125799278Y-89276869D01*
X125846897Y-89229250D01*
X125894516Y-89134012D01*
X126323087Y-89610202D02*
X126370706Y-89657821D01*
X126323087Y-89705440D01*
X126275468Y-89657821D01*
X126323087Y-89610202D01*
X126323087Y-89705440D01*
X126989754Y-88705440D02*
X127084992Y-88705440D01*
X127180230Y-88753060D01*
X127227849Y-88800679D01*
X127275468Y-88895917D01*
X127323087Y-89086393D01*
X127323087Y-89324488D01*
X127275468Y-89514964D01*
X127227849Y-89610202D01*
X127180230Y-89657821D01*
X127084992Y-89705440D01*
X126989754Y-89705440D01*
X126894516Y-89657821D01*
X126846897Y-89610202D01*
X126799278Y-89514964D01*
X126751659Y-89324488D01*
X126751659Y-89086393D01*
X126799278Y-88895917D01*
X126846897Y-88800679D01*
X126894516Y-88753060D01*
X126989754Y-88705440D01*
X128275468Y-89705440D02*
X127704040Y-89705440D01*
X127989754Y-89705440D02*
X127989754Y-88705440D01*
X127894516Y-88848298D01*
X127799278Y-88943536D01*
X127704040Y-88991155D01*
X121942135Y-91455440D02*
X121942135Y-90788774D01*
X121942135Y-90979250D02*
X121989754Y-90884012D01*
X122037373Y-90836393D01*
X122132611Y-90788774D01*
X122227849Y-90788774D01*
X122942135Y-91407821D02*
X122846897Y-91455440D01*
X122656420Y-91455440D01*
X122561182Y-91407821D01*
X122513563Y-91312583D01*
X122513563Y-90931631D01*
X122561182Y-90836393D01*
X122656420Y-90788774D01*
X122846897Y-90788774D01*
X122942135Y-90836393D01*
X122989754Y-90931631D01*
X122989754Y-91026869D01*
X122513563Y-91122107D01*
X123323087Y-90788774D02*
X123561182Y-91455440D01*
X123799278Y-90788774D01*
X124180230Y-91360202D02*
X124227849Y-91407821D01*
X124180230Y-91455440D01*
X124132611Y-91407821D01*
X124180230Y-91360202D01*
X124180230Y-91455440D01*
X125942135Y-91455440D02*
X125370706Y-91455440D01*
X125656420Y-91455440D02*
X125656420Y-90455440D01*
X125561182Y-90598298D01*
X125465944Y-90693536D01*
X125370706Y-90741155D01*
D11*
X121767600Y-92583000D02*
X126776480Y-92583000D01*
X126776480Y-97604580D02*
X126776480Y-92595700D01*
X126779020Y-97591880D02*
X121770140Y-97591880D01*
X121770140Y-92583000D02*
X121770140Y-97591880D01*
D10*
X121443714Y-96845380D02*
X120872285Y-96845380D01*
X121158000Y-96845380D02*
X121158000Y-95845380D01*
X121062761Y-95988238D01*
X120967523Y-96083476D01*
X120872285Y-96131095D01*
D11*
X120130300Y-100278200D02*
X120130300Y-84278200D01*
X136130300Y-100278200D02*
X136130300Y-84278200D01*
X121630300Y-97778200D02*
G75*
G03X121630300Y-97778200I-500000J0D01*
G01*
D12*
X125274838Y-81080540D02*
X124757682Y-81080540D01*
X125274838Y-82500540D02*
X124757682Y-82500540D01*
X121815358Y-82500540D02*
X121298202Y-82500540D01*
X121815358Y-81080540D02*
X121298202Y-81080540D01*
X120569480Y-78711940D02*
X123254480Y-78711940D01*
X123254480Y-78711940D02*
X123254480Y-76791940D01*
X123254480Y-76791940D02*
X120569480Y-76791940D01*
X121310902Y-79071400D02*
X121828058Y-79071400D01*
X121310902Y-80491400D02*
X121828058Y-80491400D01*
X116640300Y-82947200D02*
X119300300Y-82947200D01*
X116640300Y-100847200D02*
X116650300Y-82947200D01*
X119300300Y-100847200D02*
X119310300Y-82947200D01*
X116640300Y-100847200D02*
X119300300Y-100847200D01*
X136973000Y-82947200D02*
X139633000Y-82947200D01*
X136973000Y-100847200D02*
X136983000Y-82947200D01*
X139633000Y-100847200D02*
X139643000Y-82947200D01*
X136973000Y-100847200D02*
X139633000Y-100847200D01*
D10*
X128778095Y-92352880D02*
X128778095Y-93162404D01*
X128825714Y-93257642D01*
X128873333Y-93305261D01*
X128968571Y-93352880D01*
X129159047Y-93352880D01*
X129254285Y-93305261D01*
X129301904Y-93257642D01*
X129349523Y-93162404D01*
X129349523Y-92352880D01*
X130349523Y-93352880D02*
X129778095Y-93352880D01*
X130063809Y-93352880D02*
X130063809Y-92352880D01*
X129968571Y-92495738D01*
X129873333Y-92590976D01*
X129778095Y-92638595D01*
D13*
X127610886Y-82099114D02*
X127572791Y-82137209D01*
X127458505Y-82175304D01*
X127382315Y-82175304D01*
X127268029Y-82137209D01*
X127191839Y-82061019D01*
X127153743Y-81984828D01*
X127115648Y-81832447D01*
X127115648Y-81718161D01*
X127153743Y-81565780D01*
X127191839Y-81489590D01*
X127268029Y-81413400D01*
X127382315Y-81375304D01*
X127458505Y-81375304D01*
X127572791Y-81413400D01*
X127610886Y-81451495D01*
X128372791Y-82175304D02*
X127915648Y-82175304D01*
X128144220Y-82175304D02*
X128144220Y-81375304D01*
X128068029Y-81489590D01*
X127991839Y-81565780D01*
X127915648Y-81603876D01*
X118680246Y-82149904D02*
X118413580Y-81768952D01*
X118223103Y-82149904D02*
X118223103Y-81349904D01*
X118527865Y-81349904D01*
X118604056Y-81388000D01*
X118642151Y-81426095D01*
X118680246Y-81502285D01*
X118680246Y-81616571D01*
X118642151Y-81692761D01*
X118604056Y-81730857D01*
X118527865Y-81768952D01*
X118223103Y-81768952D01*
X119442151Y-82149904D02*
X118985008Y-82149904D01*
X119213580Y-82149904D02*
X119213580Y-81349904D01*
X119137389Y-81464190D01*
X119061199Y-81540380D01*
X118985008Y-81578476D01*
X118251043Y-78116384D02*
X118251043Y-77316384D01*
X118441520Y-77316384D01*
X118555805Y-77354480D01*
X118631996Y-77430670D01*
X118670091Y-77506860D01*
X118708186Y-77659241D01*
X118708186Y-77773527D01*
X118670091Y-77925908D01*
X118631996Y-78002099D01*
X118555805Y-78078289D01*
X118441520Y-78116384D01*
X118251043Y-78116384D01*
X119470091Y-78116384D02*
X119012948Y-78116384D01*
X119241520Y-78116384D02*
X119241520Y-77316384D01*
X119165329Y-77430670D01*
X119089139Y-77506860D01*
X119012948Y-77544956D01*
X118680246Y-80161084D02*
X118413580Y-79780132D01*
X118223103Y-80161084D02*
X118223103Y-79361084D01*
X118527865Y-79361084D01*
X118604056Y-79399180D01*
X118642151Y-79437275D01*
X118680246Y-79513465D01*
X118680246Y-79627751D01*
X118642151Y-79703941D01*
X118604056Y-79742037D01*
X118527865Y-79780132D01*
X118223103Y-79780132D01*
X118985008Y-79437275D02*
X119023103Y-79399180D01*
X119099294Y-79361084D01*
X119289770Y-79361084D01*
X119365960Y-79399180D01*
X119404056Y-79437275D01*
X119442151Y-79513465D01*
X119442151Y-79589656D01*
X119404056Y-79703941D01*
X118946913Y-80161084D01*
X119442151Y-80161084D01*
M02*
