M48
; DRILL file {KiCad (5.1.4)-1} date 2019-10-27 13:18:06
; FORMAT={-:-/ absolute / inch / decimal}
; #@! TF.CreationDate,2019-10-27T13:18:06+01:00
; #@! TF.GenerationSoftware,Kicad,Pcbnew,(5.1.4)-1
FMAT,2
INCH
T1C0.0118
T2C0.0157
T3C0.0394
%
G90
G05
T1
X4.6186Y-3.2064
X4.6187Y-3.0613
X4.6195Y-3.1422
X4.8869Y-3.1411
X4.8872Y-3.0612
X5.1059Y-3.0609
X5.1061Y-3.2058
X5.1061Y-3.2388
X5.1062Y-3.1409
X5.1455Y-3.2058
X5.1455Y-3.2388
X5.1849Y-3.2058
X5.1849Y-3.2388
X5.2243Y-3.2058
X5.2243Y-3.2388
X5.3586Y-3.2058
X5.3979Y-3.2058
X5.3979Y-3.2388
X5.4373Y-3.2058
X5.4373Y-3.2388
X5.4396Y-3.0613
X5.4396Y-3.1404
X5.4767Y-3.2058
X5.4767Y-3.2388
T2
X5.3202Y-3.9685
T3
X5.445Y-3.318
X5.445Y-3.418
X5.445Y-3.518
X5.445Y-3.618
X5.445Y-3.718
X5.445Y-3.818
X5.445Y-3.918
X4.6445Y-3.318
X4.6445Y-3.418
X4.6445Y-3.518
X4.6445Y-3.618
X4.6445Y-3.718
X4.6445Y-3.818
X4.6445Y-3.918
T0
M30
