G04 #@! TF.GenerationSoftware,KiCad,Pcbnew,(5.1.4)-1*
G04 #@! TF.CreationDate,2019-10-27T13:18:03+01:00*
G04 #@! TF.ProjectId,project,70726f6a-6563-4742-9e6b-696361645f70,rev?*
G04 #@! TF.SameCoordinates,Original*
G04 #@! TF.FileFunction,Copper,L1,Top*
G04 #@! TF.FilePolarity,Positive*
%FSLAX46Y46*%
G04 Gerber Fmt 4.6, Leading zero omitted, Abs format (unit mm)*
G04 Created by KiCad (PCBNEW (5.1.4)-1) date 2019-10-27 13:18:03*
%MOMM*%
%LPD*%
G04 APERTURE LIST*
%ADD10C,1.000000*%
%ADD11R,1.200000X2.500000*%
%ADD12C,0.100000*%
%ADD13C,0.975000*%
%ADD14R,1.524000X4.064000*%
%ADD15O,1.700000X1.700000*%
%ADD16C,1.700000*%
%ADD17C,0.800000*%
%ADD18C,0.600000*%
%ADD19C,0.250000*%
%ADD20C,0.254000*%
G04 APERTURE END LIST*
D10*
X134463086Y-81614714D02*
G75*
G02X133877300Y-80200500I1414214J1414214D01*
G01*
X134561014Y-81719986D02*
G75*
G02X135146800Y-83134200I-1414214J-1414214D01*
G01*
D11*
X121130300Y-84278200D03*
X123130300Y-84278200D03*
X125130300Y-84278200D03*
X127130300Y-84278200D03*
X129130300Y-84278200D03*
X131130300Y-84278200D03*
X133130300Y-84278200D03*
X135130300Y-84278200D03*
X135130300Y-100278200D03*
X133130300Y-100278200D03*
X131130300Y-100278200D03*
X129130300Y-100278200D03*
X127130300Y-100278200D03*
X125130300Y-100278200D03*
X123130300Y-100278200D03*
X121130300Y-100278200D03*
D12*
G36*
X124346402Y-81091714D02*
G01*
X124370063Y-81095224D01*
X124393267Y-81101036D01*
X124415789Y-81109094D01*
X124437413Y-81119322D01*
X124457930Y-81131619D01*
X124477143Y-81145869D01*
X124494867Y-81161933D01*
X124510931Y-81179657D01*
X124525181Y-81198870D01*
X124537478Y-81219387D01*
X124547706Y-81241011D01*
X124555764Y-81263533D01*
X124561576Y-81286737D01*
X124565086Y-81310398D01*
X124566260Y-81334290D01*
X124566260Y-82246790D01*
X124565086Y-82270682D01*
X124561576Y-82294343D01*
X124555764Y-82317547D01*
X124547706Y-82340069D01*
X124537478Y-82361693D01*
X124525181Y-82382210D01*
X124510931Y-82401423D01*
X124494867Y-82419147D01*
X124477143Y-82435211D01*
X124457930Y-82449461D01*
X124437413Y-82461758D01*
X124415789Y-82471986D01*
X124393267Y-82480044D01*
X124370063Y-82485856D01*
X124346402Y-82489366D01*
X124322510Y-82490540D01*
X123835010Y-82490540D01*
X123811118Y-82489366D01*
X123787457Y-82485856D01*
X123764253Y-82480044D01*
X123741731Y-82471986D01*
X123720107Y-82461758D01*
X123699590Y-82449461D01*
X123680377Y-82435211D01*
X123662653Y-82419147D01*
X123646589Y-82401423D01*
X123632339Y-82382210D01*
X123620042Y-82361693D01*
X123609814Y-82340069D01*
X123601756Y-82317547D01*
X123595944Y-82294343D01*
X123592434Y-82270682D01*
X123591260Y-82246790D01*
X123591260Y-81334290D01*
X123592434Y-81310398D01*
X123595944Y-81286737D01*
X123601756Y-81263533D01*
X123609814Y-81241011D01*
X123620042Y-81219387D01*
X123632339Y-81198870D01*
X123646589Y-81179657D01*
X123662653Y-81161933D01*
X123680377Y-81145869D01*
X123699590Y-81131619D01*
X123720107Y-81119322D01*
X123741731Y-81109094D01*
X123764253Y-81101036D01*
X123787457Y-81095224D01*
X123811118Y-81091714D01*
X123835010Y-81090540D01*
X124322510Y-81090540D01*
X124346402Y-81091714D01*
X124346402Y-81091714D01*
G37*
D13*
X124078760Y-81790540D03*
D12*
G36*
X126221402Y-81091714D02*
G01*
X126245063Y-81095224D01*
X126268267Y-81101036D01*
X126290789Y-81109094D01*
X126312413Y-81119322D01*
X126332930Y-81131619D01*
X126352143Y-81145869D01*
X126369867Y-81161933D01*
X126385931Y-81179657D01*
X126400181Y-81198870D01*
X126412478Y-81219387D01*
X126422706Y-81241011D01*
X126430764Y-81263533D01*
X126436576Y-81286737D01*
X126440086Y-81310398D01*
X126441260Y-81334290D01*
X126441260Y-82246790D01*
X126440086Y-82270682D01*
X126436576Y-82294343D01*
X126430764Y-82317547D01*
X126422706Y-82340069D01*
X126412478Y-82361693D01*
X126400181Y-82382210D01*
X126385931Y-82401423D01*
X126369867Y-82419147D01*
X126352143Y-82435211D01*
X126332930Y-82449461D01*
X126312413Y-82461758D01*
X126290789Y-82471986D01*
X126268267Y-82480044D01*
X126245063Y-82485856D01*
X126221402Y-82489366D01*
X126197510Y-82490540D01*
X125710010Y-82490540D01*
X125686118Y-82489366D01*
X125662457Y-82485856D01*
X125639253Y-82480044D01*
X125616731Y-82471986D01*
X125595107Y-82461758D01*
X125574590Y-82449461D01*
X125555377Y-82435211D01*
X125537653Y-82419147D01*
X125521589Y-82401423D01*
X125507339Y-82382210D01*
X125495042Y-82361693D01*
X125484814Y-82340069D01*
X125476756Y-82317547D01*
X125470944Y-82294343D01*
X125467434Y-82270682D01*
X125466260Y-82246790D01*
X125466260Y-81334290D01*
X125467434Y-81310398D01*
X125470944Y-81286737D01*
X125476756Y-81263533D01*
X125484814Y-81241011D01*
X125495042Y-81219387D01*
X125507339Y-81198870D01*
X125521589Y-81179657D01*
X125537653Y-81161933D01*
X125555377Y-81145869D01*
X125574590Y-81131619D01*
X125595107Y-81119322D01*
X125616731Y-81109094D01*
X125639253Y-81101036D01*
X125662457Y-81095224D01*
X125686118Y-81091714D01*
X125710010Y-81090540D01*
X126197510Y-81090540D01*
X126221402Y-81091714D01*
X126221402Y-81091714D01*
G37*
D13*
X125953760Y-81790540D03*
D12*
G36*
X122761922Y-81091714D02*
G01*
X122785583Y-81095224D01*
X122808787Y-81101036D01*
X122831309Y-81109094D01*
X122852933Y-81119322D01*
X122873450Y-81131619D01*
X122892663Y-81145869D01*
X122910387Y-81161933D01*
X122926451Y-81179657D01*
X122940701Y-81198870D01*
X122952998Y-81219387D01*
X122963226Y-81241011D01*
X122971284Y-81263533D01*
X122977096Y-81286737D01*
X122980606Y-81310398D01*
X122981780Y-81334290D01*
X122981780Y-82246790D01*
X122980606Y-82270682D01*
X122977096Y-82294343D01*
X122971284Y-82317547D01*
X122963226Y-82340069D01*
X122952998Y-82361693D01*
X122940701Y-82382210D01*
X122926451Y-82401423D01*
X122910387Y-82419147D01*
X122892663Y-82435211D01*
X122873450Y-82449461D01*
X122852933Y-82461758D01*
X122831309Y-82471986D01*
X122808787Y-82480044D01*
X122785583Y-82485856D01*
X122761922Y-82489366D01*
X122738030Y-82490540D01*
X122250530Y-82490540D01*
X122226638Y-82489366D01*
X122202977Y-82485856D01*
X122179773Y-82480044D01*
X122157251Y-82471986D01*
X122135627Y-82461758D01*
X122115110Y-82449461D01*
X122095897Y-82435211D01*
X122078173Y-82419147D01*
X122062109Y-82401423D01*
X122047859Y-82382210D01*
X122035562Y-82361693D01*
X122025334Y-82340069D01*
X122017276Y-82317547D01*
X122011464Y-82294343D01*
X122007954Y-82270682D01*
X122006780Y-82246790D01*
X122006780Y-81334290D01*
X122007954Y-81310398D01*
X122011464Y-81286737D01*
X122017276Y-81263533D01*
X122025334Y-81241011D01*
X122035562Y-81219387D01*
X122047859Y-81198870D01*
X122062109Y-81179657D01*
X122078173Y-81161933D01*
X122095897Y-81145869D01*
X122115110Y-81131619D01*
X122135627Y-81119322D01*
X122157251Y-81109094D01*
X122179773Y-81101036D01*
X122202977Y-81095224D01*
X122226638Y-81091714D01*
X122250530Y-81090540D01*
X122738030Y-81090540D01*
X122761922Y-81091714D01*
X122761922Y-81091714D01*
G37*
D13*
X122494280Y-81790540D03*
D12*
G36*
X120886922Y-81091714D02*
G01*
X120910583Y-81095224D01*
X120933787Y-81101036D01*
X120956309Y-81109094D01*
X120977933Y-81119322D01*
X120998450Y-81131619D01*
X121017663Y-81145869D01*
X121035387Y-81161933D01*
X121051451Y-81179657D01*
X121065701Y-81198870D01*
X121077998Y-81219387D01*
X121088226Y-81241011D01*
X121096284Y-81263533D01*
X121102096Y-81286737D01*
X121105606Y-81310398D01*
X121106780Y-81334290D01*
X121106780Y-82246790D01*
X121105606Y-82270682D01*
X121102096Y-82294343D01*
X121096284Y-82317547D01*
X121088226Y-82340069D01*
X121077998Y-82361693D01*
X121065701Y-82382210D01*
X121051451Y-82401423D01*
X121035387Y-82419147D01*
X121017663Y-82435211D01*
X120998450Y-82449461D01*
X120977933Y-82461758D01*
X120956309Y-82471986D01*
X120933787Y-82480044D01*
X120910583Y-82485856D01*
X120886922Y-82489366D01*
X120863030Y-82490540D01*
X120375530Y-82490540D01*
X120351638Y-82489366D01*
X120327977Y-82485856D01*
X120304773Y-82480044D01*
X120282251Y-82471986D01*
X120260627Y-82461758D01*
X120240110Y-82449461D01*
X120220897Y-82435211D01*
X120203173Y-82419147D01*
X120187109Y-82401423D01*
X120172859Y-82382210D01*
X120160562Y-82361693D01*
X120150334Y-82340069D01*
X120142276Y-82317547D01*
X120136464Y-82294343D01*
X120132954Y-82270682D01*
X120131780Y-82246790D01*
X120131780Y-81334290D01*
X120132954Y-81310398D01*
X120136464Y-81286737D01*
X120142276Y-81263533D01*
X120150334Y-81241011D01*
X120160562Y-81219387D01*
X120172859Y-81198870D01*
X120187109Y-81179657D01*
X120203173Y-81161933D01*
X120220897Y-81145869D01*
X120240110Y-81131619D01*
X120260627Y-81119322D01*
X120282251Y-81109094D01*
X120304773Y-81101036D01*
X120327977Y-81095224D01*
X120351638Y-81091714D01*
X120375530Y-81090540D01*
X120863030Y-81090540D01*
X120886922Y-81091714D01*
X120886922Y-81091714D01*
G37*
D13*
X120619280Y-81790540D03*
D12*
G36*
X122774622Y-77053114D02*
G01*
X122798283Y-77056624D01*
X122821487Y-77062436D01*
X122844009Y-77070494D01*
X122865633Y-77080722D01*
X122886150Y-77093019D01*
X122905363Y-77107269D01*
X122923087Y-77123333D01*
X122939151Y-77141057D01*
X122953401Y-77160270D01*
X122965698Y-77180787D01*
X122975926Y-77202411D01*
X122983984Y-77224933D01*
X122989796Y-77248137D01*
X122993306Y-77271798D01*
X122994480Y-77295690D01*
X122994480Y-78208190D01*
X122993306Y-78232082D01*
X122989796Y-78255743D01*
X122983984Y-78278947D01*
X122975926Y-78301469D01*
X122965698Y-78323093D01*
X122953401Y-78343610D01*
X122939151Y-78362823D01*
X122923087Y-78380547D01*
X122905363Y-78396611D01*
X122886150Y-78410861D01*
X122865633Y-78423158D01*
X122844009Y-78433386D01*
X122821487Y-78441444D01*
X122798283Y-78447256D01*
X122774622Y-78450766D01*
X122750730Y-78451940D01*
X122263230Y-78451940D01*
X122239338Y-78450766D01*
X122215677Y-78447256D01*
X122192473Y-78441444D01*
X122169951Y-78433386D01*
X122148327Y-78423158D01*
X122127810Y-78410861D01*
X122108597Y-78396611D01*
X122090873Y-78380547D01*
X122074809Y-78362823D01*
X122060559Y-78343610D01*
X122048262Y-78323093D01*
X122038034Y-78301469D01*
X122029976Y-78278947D01*
X122024164Y-78255743D01*
X122020654Y-78232082D01*
X122019480Y-78208190D01*
X122019480Y-77295690D01*
X122020654Y-77271798D01*
X122024164Y-77248137D01*
X122029976Y-77224933D01*
X122038034Y-77202411D01*
X122048262Y-77180787D01*
X122060559Y-77160270D01*
X122074809Y-77141057D01*
X122090873Y-77123333D01*
X122108597Y-77107269D01*
X122127810Y-77093019D01*
X122148327Y-77080722D01*
X122169951Y-77070494D01*
X122192473Y-77062436D01*
X122215677Y-77056624D01*
X122239338Y-77053114D01*
X122263230Y-77051940D01*
X122750730Y-77051940D01*
X122774622Y-77053114D01*
X122774622Y-77053114D01*
G37*
D13*
X122506980Y-77751940D03*
D12*
G36*
X120899622Y-77053114D02*
G01*
X120923283Y-77056624D01*
X120946487Y-77062436D01*
X120969009Y-77070494D01*
X120990633Y-77080722D01*
X121011150Y-77093019D01*
X121030363Y-77107269D01*
X121048087Y-77123333D01*
X121064151Y-77141057D01*
X121078401Y-77160270D01*
X121090698Y-77180787D01*
X121100926Y-77202411D01*
X121108984Y-77224933D01*
X121114796Y-77248137D01*
X121118306Y-77271798D01*
X121119480Y-77295690D01*
X121119480Y-78208190D01*
X121118306Y-78232082D01*
X121114796Y-78255743D01*
X121108984Y-78278947D01*
X121100926Y-78301469D01*
X121090698Y-78323093D01*
X121078401Y-78343610D01*
X121064151Y-78362823D01*
X121048087Y-78380547D01*
X121030363Y-78396611D01*
X121011150Y-78410861D01*
X120990633Y-78423158D01*
X120969009Y-78433386D01*
X120946487Y-78441444D01*
X120923283Y-78447256D01*
X120899622Y-78450766D01*
X120875730Y-78451940D01*
X120388230Y-78451940D01*
X120364338Y-78450766D01*
X120340677Y-78447256D01*
X120317473Y-78441444D01*
X120294951Y-78433386D01*
X120273327Y-78423158D01*
X120252810Y-78410861D01*
X120233597Y-78396611D01*
X120215873Y-78380547D01*
X120199809Y-78362823D01*
X120185559Y-78343610D01*
X120173262Y-78323093D01*
X120163034Y-78301469D01*
X120154976Y-78278947D01*
X120149164Y-78255743D01*
X120145654Y-78232082D01*
X120144480Y-78208190D01*
X120144480Y-77295690D01*
X120145654Y-77271798D01*
X120149164Y-77248137D01*
X120154976Y-77224933D01*
X120163034Y-77202411D01*
X120173262Y-77180787D01*
X120185559Y-77160270D01*
X120199809Y-77141057D01*
X120215873Y-77123333D01*
X120233597Y-77107269D01*
X120252810Y-77093019D01*
X120273327Y-77080722D01*
X120294951Y-77070494D01*
X120317473Y-77062436D01*
X120340677Y-77056624D01*
X120364338Y-77053114D01*
X120388230Y-77051940D01*
X120875730Y-77051940D01*
X120899622Y-77053114D01*
X120899622Y-77053114D01*
G37*
D13*
X120631980Y-77751940D03*
D12*
G36*
X120899622Y-79082574D02*
G01*
X120923283Y-79086084D01*
X120946487Y-79091896D01*
X120969009Y-79099954D01*
X120990633Y-79110182D01*
X121011150Y-79122479D01*
X121030363Y-79136729D01*
X121048087Y-79152793D01*
X121064151Y-79170517D01*
X121078401Y-79189730D01*
X121090698Y-79210247D01*
X121100926Y-79231871D01*
X121108984Y-79254393D01*
X121114796Y-79277597D01*
X121118306Y-79301258D01*
X121119480Y-79325150D01*
X121119480Y-80237650D01*
X121118306Y-80261542D01*
X121114796Y-80285203D01*
X121108984Y-80308407D01*
X121100926Y-80330929D01*
X121090698Y-80352553D01*
X121078401Y-80373070D01*
X121064151Y-80392283D01*
X121048087Y-80410007D01*
X121030363Y-80426071D01*
X121011150Y-80440321D01*
X120990633Y-80452618D01*
X120969009Y-80462846D01*
X120946487Y-80470904D01*
X120923283Y-80476716D01*
X120899622Y-80480226D01*
X120875730Y-80481400D01*
X120388230Y-80481400D01*
X120364338Y-80480226D01*
X120340677Y-80476716D01*
X120317473Y-80470904D01*
X120294951Y-80462846D01*
X120273327Y-80452618D01*
X120252810Y-80440321D01*
X120233597Y-80426071D01*
X120215873Y-80410007D01*
X120199809Y-80392283D01*
X120185559Y-80373070D01*
X120173262Y-80352553D01*
X120163034Y-80330929D01*
X120154976Y-80308407D01*
X120149164Y-80285203D01*
X120145654Y-80261542D01*
X120144480Y-80237650D01*
X120144480Y-79325150D01*
X120145654Y-79301258D01*
X120149164Y-79277597D01*
X120154976Y-79254393D01*
X120163034Y-79231871D01*
X120173262Y-79210247D01*
X120185559Y-79189730D01*
X120199809Y-79170517D01*
X120215873Y-79152793D01*
X120233597Y-79136729D01*
X120252810Y-79122479D01*
X120273327Y-79110182D01*
X120294951Y-79099954D01*
X120317473Y-79091896D01*
X120340677Y-79086084D01*
X120364338Y-79082574D01*
X120388230Y-79081400D01*
X120875730Y-79081400D01*
X120899622Y-79082574D01*
X120899622Y-79082574D01*
G37*
D13*
X120631980Y-79781400D03*
D12*
G36*
X122774622Y-79082574D02*
G01*
X122798283Y-79086084D01*
X122821487Y-79091896D01*
X122844009Y-79099954D01*
X122865633Y-79110182D01*
X122886150Y-79122479D01*
X122905363Y-79136729D01*
X122923087Y-79152793D01*
X122939151Y-79170517D01*
X122953401Y-79189730D01*
X122965698Y-79210247D01*
X122975926Y-79231871D01*
X122983984Y-79254393D01*
X122989796Y-79277597D01*
X122993306Y-79301258D01*
X122994480Y-79325150D01*
X122994480Y-80237650D01*
X122993306Y-80261542D01*
X122989796Y-80285203D01*
X122983984Y-80308407D01*
X122975926Y-80330929D01*
X122965698Y-80352553D01*
X122953401Y-80373070D01*
X122939151Y-80392283D01*
X122923087Y-80410007D01*
X122905363Y-80426071D01*
X122886150Y-80440321D01*
X122865633Y-80452618D01*
X122844009Y-80462846D01*
X122821487Y-80470904D01*
X122798283Y-80476716D01*
X122774622Y-80480226D01*
X122750730Y-80481400D01*
X122263230Y-80481400D01*
X122239338Y-80480226D01*
X122215677Y-80476716D01*
X122192473Y-80470904D01*
X122169951Y-80462846D01*
X122148327Y-80452618D01*
X122127810Y-80440321D01*
X122108597Y-80426071D01*
X122090873Y-80410007D01*
X122074809Y-80392283D01*
X122060559Y-80373070D01*
X122048262Y-80352553D01*
X122038034Y-80330929D01*
X122029976Y-80308407D01*
X122024164Y-80285203D01*
X122020654Y-80261542D01*
X122019480Y-80237650D01*
X122019480Y-79325150D01*
X122020654Y-79301258D01*
X122024164Y-79277597D01*
X122029976Y-79254393D01*
X122038034Y-79231871D01*
X122048262Y-79210247D01*
X122060559Y-79189730D01*
X122074809Y-79170517D01*
X122090873Y-79152793D01*
X122108597Y-79136729D01*
X122127810Y-79122479D01*
X122148327Y-79110182D01*
X122169951Y-79099954D01*
X122192473Y-79091896D01*
X122215677Y-79086084D01*
X122239338Y-79082574D01*
X122263230Y-79081400D01*
X122750730Y-79081400D01*
X122774622Y-79082574D01*
X122774622Y-79082574D01*
G37*
D13*
X122506980Y-79781400D03*
D14*
X133962140Y-78427580D03*
X136502140Y-78427580D03*
X131422140Y-78427580D03*
D15*
X117970300Y-84277200D03*
X117970300Y-86817200D03*
X117970300Y-89357200D03*
X117970300Y-91897200D03*
X117970300Y-94437200D03*
X117970300Y-96977200D03*
D16*
X117970300Y-99517200D03*
D15*
X138303000Y-84277200D03*
X138303000Y-86817200D03*
X138303000Y-89357200D03*
X138303000Y-91897200D03*
X138303000Y-94437200D03*
X138303000Y-96977200D03*
D16*
X138303000Y-99517200D03*
D17*
X135133080Y-100799900D03*
D18*
X129695960Y-81427320D03*
X130695960Y-81427320D03*
X131695960Y-81427320D03*
X132695960Y-81427320D03*
X136107440Y-81427320D03*
X137107440Y-81427320D03*
X138107440Y-81427320D03*
X139107440Y-81427320D03*
X129695960Y-82264760D03*
X130695960Y-82264760D03*
X131695960Y-82264760D03*
X132695960Y-82264760D03*
X137107440Y-82264760D03*
X138107440Y-82264760D03*
X139107440Y-82264760D03*
X117312440Y-81442560D03*
X117314980Y-77757020D03*
X124134880Y-77754480D03*
X124127260Y-79783940D03*
X129697480Y-79778860D03*
X129689860Y-77746860D03*
X138165840Y-79766160D03*
X138165840Y-77757020D03*
X117335300Y-79811880D03*
D19*
X135130300Y-100278200D02*
X135153398Y-100301298D01*
X135153398Y-100301298D02*
X135153398Y-100309680D01*
X137100919Y-91897200D02*
X138303000Y-91897200D01*
X134152640Y-91897200D02*
X137100919Y-91897200D01*
X127130300Y-84278200D02*
X127130300Y-84874860D01*
X127130300Y-84874860D02*
X134152640Y-91897200D01*
X122506980Y-81777840D02*
X122494280Y-81790540D01*
X122506980Y-79781400D02*
X122506980Y-81777840D01*
X122494280Y-81790540D02*
X124078760Y-81790540D01*
X127130300Y-83778200D02*
X127130300Y-84278200D01*
X126167650Y-82815550D02*
X127130300Y-83778200D01*
X125103770Y-82815550D02*
X126167650Y-82815550D01*
X124078760Y-81790540D02*
X125103770Y-82815550D01*
X123130300Y-99778200D02*
X123130300Y-100278200D01*
X120329300Y-96977200D02*
X123130300Y-99778200D01*
X117970300Y-96977200D02*
X120329300Y-96977200D01*
X125130300Y-99778200D02*
X125130300Y-100278200D01*
X119794380Y-94442280D02*
X125130300Y-99778200D01*
X117970300Y-94437200D02*
X117975380Y-94442280D01*
X117975380Y-94442280D02*
X119794380Y-94442280D01*
X127130300Y-99124260D02*
X127130300Y-100278200D01*
X119918480Y-91912440D02*
X127130300Y-99124260D01*
X117970300Y-91897200D02*
X117985540Y-91912440D01*
X117985540Y-91912440D02*
X119918480Y-91912440D01*
X117120301Y-88507201D02*
X117970300Y-89357200D01*
X116795299Y-88182199D02*
X117120301Y-88507201D01*
X116795299Y-83713199D02*
X116795299Y-88182199D01*
X129130300Y-98726500D02*
X129130300Y-100278200D01*
X119730520Y-89326720D02*
X129130300Y-98726500D01*
X117970300Y-89357200D02*
X118000780Y-89326720D01*
X118000780Y-89326720D02*
X119730520Y-89326720D01*
X118717958Y-81790540D02*
X116795299Y-83713199D01*
X120619280Y-81790540D02*
X118717958Y-81790540D01*
X131130300Y-98857060D02*
X131130300Y-100278200D01*
X117970300Y-86817200D02*
X119090440Y-86817200D01*
X119090440Y-86817200D02*
X131130300Y-98857060D01*
X133130300Y-99778200D02*
X133130300Y-100278200D01*
X133130300Y-98870780D02*
X133130300Y-99778200D01*
X117970300Y-84277200D02*
X118536720Y-84277200D01*
X122565160Y-88305640D02*
X122311160Y-88051640D01*
X122565160Y-88305640D02*
X133130300Y-98870780D01*
X118536720Y-84277200D02*
X122565160Y-88305640D01*
D10*
X138302000Y-84278200D02*
X138303000Y-84277200D01*
X135130300Y-84278200D02*
X138302000Y-84278200D01*
D19*
X133934200Y-78397100D02*
X133934200Y-81005680D01*
X133962140Y-78427580D02*
X133962140Y-81358740D01*
X135130300Y-82526900D02*
X135130300Y-84278200D01*
X133951980Y-81274920D02*
X135120140Y-82443080D01*
X137100919Y-86817200D02*
X138303000Y-86817200D01*
X133169300Y-86817200D02*
X137100919Y-86817200D01*
X131130300Y-84778200D02*
X133169300Y-86817200D01*
X131130300Y-84278200D02*
X131130300Y-84778200D01*
X137100919Y-89357200D02*
X138303000Y-89357200D01*
X133709300Y-89357200D02*
X137100919Y-89357200D01*
X129130300Y-84778200D02*
X133709300Y-89357200D01*
X129130300Y-84278200D02*
X129130300Y-84778200D01*
X137100919Y-94437200D02*
X138303000Y-94437200D01*
X134691120Y-94437200D02*
X137100919Y-94437200D01*
X125130300Y-84278200D02*
X125130300Y-84876380D01*
X125130300Y-84876380D02*
X134691120Y-94437200D01*
X137100919Y-96977200D02*
X138303000Y-96977200D01*
X135310880Y-96977200D02*
X137100919Y-96977200D01*
X123130300Y-84278200D02*
X123130300Y-84796620D01*
X123130300Y-84796620D02*
X135310880Y-96977200D01*
X137453001Y-98667201D02*
X138303000Y-99517200D01*
X135019681Y-98667201D02*
X137453001Y-98667201D01*
X121130300Y-84278200D02*
X121130300Y-84777820D01*
X121130300Y-84777820D02*
X135019681Y-98667201D01*
X120405920Y-79580740D02*
X120441480Y-79616300D01*
X120631980Y-77751940D02*
X120631980Y-79781400D01*
D20*
G36*
X116749147Y-88916692D02*
G01*
X116749152Y-88916696D01*
X116764737Y-88932281D01*
X116711778Y-89106864D01*
X116687122Y-89357200D01*
X116711778Y-89607536D01*
X116784798Y-89848251D01*
X116903376Y-90070096D01*
X117062956Y-90264544D01*
X117257404Y-90424124D01*
X117479249Y-90542702D01*
X117719964Y-90615722D01*
X117836502Y-90627200D01*
X117719964Y-90638678D01*
X117479249Y-90711698D01*
X117257404Y-90830276D01*
X117062956Y-90989856D01*
X116903376Y-91184304D01*
X116784798Y-91406149D01*
X116711778Y-91646864D01*
X116687122Y-91897200D01*
X116711778Y-92147536D01*
X116784798Y-92388251D01*
X116903376Y-92610096D01*
X117062956Y-92804544D01*
X117257404Y-92964124D01*
X117479249Y-93082702D01*
X117719964Y-93155722D01*
X117836502Y-93167200D01*
X117719964Y-93178678D01*
X117479249Y-93251698D01*
X117257404Y-93370276D01*
X117062956Y-93529856D01*
X116903376Y-93724304D01*
X116784798Y-93946149D01*
X116711778Y-94186864D01*
X116687122Y-94437200D01*
X116711778Y-94687536D01*
X116784798Y-94928251D01*
X116903376Y-95150096D01*
X117062956Y-95344544D01*
X117257404Y-95504124D01*
X117479249Y-95622702D01*
X117719964Y-95695722D01*
X117836502Y-95707200D01*
X117719964Y-95718678D01*
X117479249Y-95791698D01*
X117257404Y-95910276D01*
X117062956Y-96069856D01*
X116903376Y-96264304D01*
X116784798Y-96486149D01*
X116711778Y-96726864D01*
X116687122Y-96977200D01*
X116711778Y-97227536D01*
X116784798Y-97468251D01*
X116903376Y-97690096D01*
X117062956Y-97884544D01*
X117257404Y-98044124D01*
X117422528Y-98132384D01*
X117190208Y-98245163D01*
X117093620Y-98309703D01*
X117027773Y-98573966D01*
X117970300Y-99516493D01*
X118912827Y-98573966D01*
X118846980Y-98309703D01*
X118594564Y-98161873D01*
X118514675Y-98134200D01*
X118683196Y-98044124D01*
X118877644Y-97884544D01*
X119037224Y-97690096D01*
X119123224Y-97529200D01*
X120100656Y-97529200D01*
X120964610Y-98393155D01*
X120530300Y-98390128D01*
X120405818Y-98402388D01*
X120286120Y-98438698D01*
X120175806Y-98497663D01*
X120079115Y-98577015D01*
X119999763Y-98673706D01*
X119940798Y-98784020D01*
X119904488Y-98903718D01*
X119892228Y-99028200D01*
X119895300Y-100118950D01*
X120054050Y-100277700D01*
X121129800Y-100277700D01*
X121129800Y-100257700D01*
X121130800Y-100257700D01*
X121130800Y-100277700D01*
X121150800Y-100277700D01*
X121150800Y-100278700D01*
X121130800Y-100278700D01*
X121130800Y-100298700D01*
X121129800Y-100298700D01*
X121129800Y-100278700D01*
X120054050Y-100278700D01*
X119895300Y-100437450D01*
X119892228Y-101528200D01*
X119899851Y-101605600D01*
X117993634Y-101605600D01*
X117713109Y-101578095D01*
X117465721Y-101503403D01*
X117237549Y-101382082D01*
X117037284Y-101218750D01*
X116872562Y-101019635D01*
X116749650Y-100792314D01*
X116673232Y-100545449D01*
X116664297Y-100460434D01*
X117027773Y-100460434D01*
X117093620Y-100724697D01*
X117346036Y-100872527D01*
X117622442Y-100968273D01*
X117912217Y-101008255D01*
X118204224Y-100990936D01*
X118487240Y-100916983D01*
X118750392Y-100789237D01*
X118846980Y-100724697D01*
X118912827Y-100460434D01*
X117970300Y-99517907D01*
X117027773Y-100460434D01*
X116664297Y-100460434D01*
X116643900Y-100266372D01*
X116643900Y-100185306D01*
X116698263Y-100297292D01*
X116762803Y-100393880D01*
X117027066Y-100459727D01*
X117969593Y-99517200D01*
X117971007Y-99517200D01*
X118913534Y-100459727D01*
X119177797Y-100393880D01*
X119325627Y-100141464D01*
X119421373Y-99865058D01*
X119461355Y-99575283D01*
X119444036Y-99283276D01*
X119370083Y-99000260D01*
X119242337Y-98737108D01*
X119177797Y-98640520D01*
X118913534Y-98574673D01*
X117971007Y-99517200D01*
X117969593Y-99517200D01*
X117027066Y-98574673D01*
X116762803Y-98640520D01*
X116643900Y-98843544D01*
X116643900Y-88811445D01*
X116749147Y-88916692D01*
X116749147Y-88916692D01*
G37*
X116749147Y-88916692D02*
X116749152Y-88916696D01*
X116764737Y-88932281D01*
X116711778Y-89106864D01*
X116687122Y-89357200D01*
X116711778Y-89607536D01*
X116784798Y-89848251D01*
X116903376Y-90070096D01*
X117062956Y-90264544D01*
X117257404Y-90424124D01*
X117479249Y-90542702D01*
X117719964Y-90615722D01*
X117836502Y-90627200D01*
X117719964Y-90638678D01*
X117479249Y-90711698D01*
X117257404Y-90830276D01*
X117062956Y-90989856D01*
X116903376Y-91184304D01*
X116784798Y-91406149D01*
X116711778Y-91646864D01*
X116687122Y-91897200D01*
X116711778Y-92147536D01*
X116784798Y-92388251D01*
X116903376Y-92610096D01*
X117062956Y-92804544D01*
X117257404Y-92964124D01*
X117479249Y-93082702D01*
X117719964Y-93155722D01*
X117836502Y-93167200D01*
X117719964Y-93178678D01*
X117479249Y-93251698D01*
X117257404Y-93370276D01*
X117062956Y-93529856D01*
X116903376Y-93724304D01*
X116784798Y-93946149D01*
X116711778Y-94186864D01*
X116687122Y-94437200D01*
X116711778Y-94687536D01*
X116784798Y-94928251D01*
X116903376Y-95150096D01*
X117062956Y-95344544D01*
X117257404Y-95504124D01*
X117479249Y-95622702D01*
X117719964Y-95695722D01*
X117836502Y-95707200D01*
X117719964Y-95718678D01*
X117479249Y-95791698D01*
X117257404Y-95910276D01*
X117062956Y-96069856D01*
X116903376Y-96264304D01*
X116784798Y-96486149D01*
X116711778Y-96726864D01*
X116687122Y-96977200D01*
X116711778Y-97227536D01*
X116784798Y-97468251D01*
X116903376Y-97690096D01*
X117062956Y-97884544D01*
X117257404Y-98044124D01*
X117422528Y-98132384D01*
X117190208Y-98245163D01*
X117093620Y-98309703D01*
X117027773Y-98573966D01*
X117970300Y-99516493D01*
X118912827Y-98573966D01*
X118846980Y-98309703D01*
X118594564Y-98161873D01*
X118514675Y-98134200D01*
X118683196Y-98044124D01*
X118877644Y-97884544D01*
X119037224Y-97690096D01*
X119123224Y-97529200D01*
X120100656Y-97529200D01*
X120964610Y-98393155D01*
X120530300Y-98390128D01*
X120405818Y-98402388D01*
X120286120Y-98438698D01*
X120175806Y-98497663D01*
X120079115Y-98577015D01*
X119999763Y-98673706D01*
X119940798Y-98784020D01*
X119904488Y-98903718D01*
X119892228Y-99028200D01*
X119895300Y-100118950D01*
X120054050Y-100277700D01*
X121129800Y-100277700D01*
X121129800Y-100257700D01*
X121130800Y-100257700D01*
X121130800Y-100277700D01*
X121150800Y-100277700D01*
X121150800Y-100278700D01*
X121130800Y-100278700D01*
X121130800Y-100298700D01*
X121129800Y-100298700D01*
X121129800Y-100278700D01*
X120054050Y-100278700D01*
X119895300Y-100437450D01*
X119892228Y-101528200D01*
X119899851Y-101605600D01*
X117993634Y-101605600D01*
X117713109Y-101578095D01*
X117465721Y-101503403D01*
X117237549Y-101382082D01*
X117037284Y-101218750D01*
X116872562Y-101019635D01*
X116749650Y-100792314D01*
X116673232Y-100545449D01*
X116664297Y-100460434D01*
X117027773Y-100460434D01*
X117093620Y-100724697D01*
X117346036Y-100872527D01*
X117622442Y-100968273D01*
X117912217Y-101008255D01*
X118204224Y-100990936D01*
X118487240Y-100916983D01*
X118750392Y-100789237D01*
X118846980Y-100724697D01*
X118912827Y-100460434D01*
X117970300Y-99517907D01*
X117027773Y-100460434D01*
X116664297Y-100460434D01*
X116643900Y-100266372D01*
X116643900Y-100185306D01*
X116698263Y-100297292D01*
X116762803Y-100393880D01*
X117027066Y-100459727D01*
X117969593Y-99517200D01*
X117971007Y-99517200D01*
X118913534Y-100459727D01*
X119177797Y-100393880D01*
X119325627Y-100141464D01*
X119421373Y-99865058D01*
X119461355Y-99575283D01*
X119444036Y-99283276D01*
X119370083Y-99000260D01*
X119242337Y-98737108D01*
X119177797Y-98640520D01*
X118913534Y-98574673D01*
X117971007Y-99517200D01*
X117969593Y-99517200D01*
X117027066Y-98574673D01*
X116762803Y-98640520D01*
X116643900Y-98843544D01*
X116643900Y-88811445D01*
X116749147Y-88916692D01*
G36*
X137026000Y-99391426D02*
G01*
X137026000Y-99642974D01*
X137075074Y-99889687D01*
X137171337Y-100122086D01*
X137311089Y-100331240D01*
X137488960Y-100509111D01*
X137698114Y-100648863D01*
X137930513Y-100745126D01*
X138177226Y-100794200D01*
X138428774Y-100794200D01*
X138675487Y-100745126D01*
X138907886Y-100648863D01*
X139117040Y-100509111D01*
X139294911Y-100331240D01*
X139434663Y-100122086D01*
X139530926Y-99889687D01*
X139578600Y-99650012D01*
X139578600Y-100255866D01*
X139551095Y-100536391D01*
X139476403Y-100783779D01*
X139355082Y-101011951D01*
X139191750Y-101212216D01*
X138992635Y-101376938D01*
X138765314Y-101499850D01*
X138518449Y-101576268D01*
X138239372Y-101605600D01*
X136360749Y-101605600D01*
X136368372Y-101528200D01*
X136365300Y-100437450D01*
X136206550Y-100278700D01*
X135130800Y-100278700D01*
X135130800Y-100298700D01*
X135129800Y-100298700D01*
X135129800Y-100278700D01*
X135109800Y-100278700D01*
X135109800Y-100277700D01*
X135129800Y-100277700D01*
X135129800Y-100257700D01*
X135130800Y-100257700D01*
X135130800Y-100277700D01*
X136206550Y-100277700D01*
X136365300Y-100118950D01*
X136367834Y-99219201D01*
X137060257Y-99219201D01*
X137026000Y-99391426D01*
X137026000Y-99391426D01*
G37*
X137026000Y-99391426D02*
X137026000Y-99642974D01*
X137075074Y-99889687D01*
X137171337Y-100122086D01*
X137311089Y-100331240D01*
X137488960Y-100509111D01*
X137698114Y-100648863D01*
X137930513Y-100745126D01*
X138177226Y-100794200D01*
X138428774Y-100794200D01*
X138675487Y-100745126D01*
X138907886Y-100648863D01*
X139117040Y-100509111D01*
X139294911Y-100331240D01*
X139434663Y-100122086D01*
X139530926Y-99889687D01*
X139578600Y-99650012D01*
X139578600Y-100255866D01*
X139551095Y-100536391D01*
X139476403Y-100783779D01*
X139355082Y-101011951D01*
X139191750Y-101212216D01*
X138992635Y-101376938D01*
X138765314Y-101499850D01*
X138518449Y-101576268D01*
X138239372Y-101605600D01*
X136360749Y-101605600D01*
X136368372Y-101528200D01*
X136365300Y-100437450D01*
X136206550Y-100278700D01*
X135130800Y-100278700D01*
X135130800Y-100298700D01*
X135129800Y-100298700D01*
X135129800Y-100278700D01*
X135109800Y-100278700D01*
X135109800Y-100277700D01*
X135129800Y-100277700D01*
X135129800Y-100257700D01*
X135130800Y-100257700D01*
X135130800Y-100277700D01*
X136206550Y-100277700D01*
X136365300Y-100118950D01*
X136367834Y-99219201D01*
X137060257Y-99219201D01*
X137026000Y-99391426D01*
G36*
X130025140Y-78268330D02*
G01*
X130183890Y-78427080D01*
X131421640Y-78427080D01*
X131421640Y-78407080D01*
X131422640Y-78407080D01*
X131422640Y-78427080D01*
X131442640Y-78427080D01*
X131442640Y-78428080D01*
X131422640Y-78428080D01*
X131422640Y-80935830D01*
X131581390Y-81094580D01*
X132184140Y-81097652D01*
X132308622Y-81085392D01*
X132428320Y-81049082D01*
X132538634Y-80990117D01*
X132635325Y-80910765D01*
X132714677Y-80814074D01*
X132773642Y-80703760D01*
X132800820Y-80614167D01*
X132803735Y-80623776D01*
X132843385Y-80697956D01*
X132896745Y-80762975D01*
X132961764Y-80816335D01*
X133025843Y-80850586D01*
X133026564Y-80854440D01*
X133030263Y-80866844D01*
X133144385Y-81240120D01*
X133176657Y-81317650D01*
X133207874Y-81395697D01*
X133213911Y-81407146D01*
X133398363Y-81751147D01*
X133445079Y-81820930D01*
X133490861Y-81891428D01*
X133499007Y-81901487D01*
X133746762Y-82203109D01*
X133826483Y-82282829D01*
X133836544Y-82298322D01*
X133844690Y-82308381D01*
X133944185Y-82429508D01*
X133854782Y-82402388D01*
X133730300Y-82390128D01*
X133289550Y-82393200D01*
X133130800Y-82551950D01*
X133130800Y-84277700D01*
X133150800Y-84277700D01*
X133150800Y-84278700D01*
X133130800Y-84278700D01*
X133130800Y-84298700D01*
X133129800Y-84298700D01*
X133129800Y-84278700D01*
X133109800Y-84278700D01*
X133109800Y-84277700D01*
X133129800Y-84277700D01*
X133129800Y-82551950D01*
X132971050Y-82393200D01*
X132530300Y-82390128D01*
X132405818Y-82402388D01*
X132286120Y-82438698D01*
X132175806Y-82497663D01*
X132079115Y-82577015D01*
X131999763Y-82673706D01*
X131991124Y-82689868D01*
X131968676Y-82671445D01*
X131894496Y-82631795D01*
X131814007Y-82607378D01*
X131730300Y-82599134D01*
X130530300Y-82599134D01*
X130446593Y-82607378D01*
X130366104Y-82631795D01*
X130291924Y-82671445D01*
X130226905Y-82724805D01*
X130173545Y-82789824D01*
X130133895Y-82864004D01*
X130130300Y-82875855D01*
X130126705Y-82864004D01*
X130087055Y-82789824D01*
X130033695Y-82724805D01*
X129968676Y-82671445D01*
X129894496Y-82631795D01*
X129814007Y-82607378D01*
X129730300Y-82599134D01*
X128530300Y-82599134D01*
X128446593Y-82607378D01*
X128366104Y-82631795D01*
X128291924Y-82671445D01*
X128226905Y-82724805D01*
X128173545Y-82789824D01*
X128133895Y-82864004D01*
X128130300Y-82875855D01*
X128126705Y-82864004D01*
X128087055Y-82789824D01*
X128033695Y-82724805D01*
X127968676Y-82671445D01*
X127894496Y-82631795D01*
X127814007Y-82607378D01*
X127730300Y-82599134D01*
X127068637Y-82599134D01*
X127079332Y-82490540D01*
X127076260Y-81949790D01*
X126917510Y-81791040D01*
X125954260Y-81791040D01*
X125954260Y-81811040D01*
X125953260Y-81811040D01*
X125953260Y-81791040D01*
X125933260Y-81791040D01*
X125933260Y-81790040D01*
X125953260Y-81790040D01*
X125953260Y-80614290D01*
X125954260Y-80614290D01*
X125954260Y-81790040D01*
X126917510Y-81790040D01*
X127076260Y-81631290D01*
X127079332Y-81090540D01*
X127067072Y-80966058D01*
X127030762Y-80846360D01*
X126971797Y-80736046D01*
X126892445Y-80639355D01*
X126795754Y-80560003D01*
X126685440Y-80501038D01*
X126565742Y-80464728D01*
X126513472Y-80459580D01*
X130022068Y-80459580D01*
X130034328Y-80584062D01*
X130070638Y-80703760D01*
X130129603Y-80814074D01*
X130208955Y-80910765D01*
X130305646Y-80990117D01*
X130415960Y-81049082D01*
X130535658Y-81085392D01*
X130660140Y-81097652D01*
X131262890Y-81094580D01*
X131421640Y-80935830D01*
X131421640Y-78428080D01*
X130183890Y-78428080D01*
X130025140Y-78586830D01*
X130022068Y-80459580D01*
X126513472Y-80459580D01*
X126441260Y-80452468D01*
X126113010Y-80455540D01*
X125954260Y-80614290D01*
X125953260Y-80614290D01*
X125794510Y-80455540D01*
X125466260Y-80452468D01*
X125341778Y-80464728D01*
X125222080Y-80501038D01*
X125111766Y-80560003D01*
X125015075Y-80639355D01*
X124935723Y-80736046D01*
X124876758Y-80846360D01*
X124852877Y-80925085D01*
X124798263Y-80858537D01*
X124696307Y-80774864D01*
X124579986Y-80712689D01*
X124453770Y-80674402D01*
X124322510Y-80661474D01*
X123835010Y-80661474D01*
X123703750Y-80674402D01*
X123577534Y-80712689D01*
X123461213Y-80774864D01*
X123359257Y-80858537D01*
X123286520Y-80947167D01*
X123213783Y-80858537D01*
X123131710Y-80791181D01*
X123226483Y-80713403D01*
X123310156Y-80611447D01*
X123372331Y-80495126D01*
X123410618Y-80368910D01*
X123423546Y-80237650D01*
X123423546Y-79325150D01*
X123410618Y-79193890D01*
X123372331Y-79067674D01*
X123331721Y-78991699D01*
X123348974Y-78982477D01*
X123445665Y-78903125D01*
X123525017Y-78806434D01*
X123583982Y-78696120D01*
X123620292Y-78576422D01*
X123632552Y-78451940D01*
X123629480Y-77911190D01*
X123470730Y-77752440D01*
X122507480Y-77752440D01*
X122507480Y-77772440D01*
X122506480Y-77772440D01*
X122506480Y-77752440D01*
X122486480Y-77752440D01*
X122486480Y-77751440D01*
X122506480Y-77751440D01*
X122506480Y-77731440D01*
X122507480Y-77731440D01*
X122507480Y-77751440D01*
X123470730Y-77751440D01*
X123629480Y-77592690D01*
X123632552Y-77051940D01*
X123620292Y-76927458D01*
X123583982Y-76807760D01*
X123525017Y-76697446D01*
X123445665Y-76600755D01*
X123439530Y-76595720D01*
X130022396Y-76595720D01*
X130025140Y-78268330D01*
X130025140Y-78268330D01*
G37*
X130025140Y-78268330D02*
X130183890Y-78427080D01*
X131421640Y-78427080D01*
X131421640Y-78407080D01*
X131422640Y-78407080D01*
X131422640Y-78427080D01*
X131442640Y-78427080D01*
X131442640Y-78428080D01*
X131422640Y-78428080D01*
X131422640Y-80935830D01*
X131581390Y-81094580D01*
X132184140Y-81097652D01*
X132308622Y-81085392D01*
X132428320Y-81049082D01*
X132538634Y-80990117D01*
X132635325Y-80910765D01*
X132714677Y-80814074D01*
X132773642Y-80703760D01*
X132800820Y-80614167D01*
X132803735Y-80623776D01*
X132843385Y-80697956D01*
X132896745Y-80762975D01*
X132961764Y-80816335D01*
X133025843Y-80850586D01*
X133026564Y-80854440D01*
X133030263Y-80866844D01*
X133144385Y-81240120D01*
X133176657Y-81317650D01*
X133207874Y-81395697D01*
X133213911Y-81407146D01*
X133398363Y-81751147D01*
X133445079Y-81820930D01*
X133490861Y-81891428D01*
X133499007Y-81901487D01*
X133746762Y-82203109D01*
X133826483Y-82282829D01*
X133836544Y-82298322D01*
X133844690Y-82308381D01*
X133944185Y-82429508D01*
X133854782Y-82402388D01*
X133730300Y-82390128D01*
X133289550Y-82393200D01*
X133130800Y-82551950D01*
X133130800Y-84277700D01*
X133150800Y-84277700D01*
X133150800Y-84278700D01*
X133130800Y-84278700D01*
X133130800Y-84298700D01*
X133129800Y-84298700D01*
X133129800Y-84278700D01*
X133109800Y-84278700D01*
X133109800Y-84277700D01*
X133129800Y-84277700D01*
X133129800Y-82551950D01*
X132971050Y-82393200D01*
X132530300Y-82390128D01*
X132405818Y-82402388D01*
X132286120Y-82438698D01*
X132175806Y-82497663D01*
X132079115Y-82577015D01*
X131999763Y-82673706D01*
X131991124Y-82689868D01*
X131968676Y-82671445D01*
X131894496Y-82631795D01*
X131814007Y-82607378D01*
X131730300Y-82599134D01*
X130530300Y-82599134D01*
X130446593Y-82607378D01*
X130366104Y-82631795D01*
X130291924Y-82671445D01*
X130226905Y-82724805D01*
X130173545Y-82789824D01*
X130133895Y-82864004D01*
X130130300Y-82875855D01*
X130126705Y-82864004D01*
X130087055Y-82789824D01*
X130033695Y-82724805D01*
X129968676Y-82671445D01*
X129894496Y-82631795D01*
X129814007Y-82607378D01*
X129730300Y-82599134D01*
X128530300Y-82599134D01*
X128446593Y-82607378D01*
X128366104Y-82631795D01*
X128291924Y-82671445D01*
X128226905Y-82724805D01*
X128173545Y-82789824D01*
X128133895Y-82864004D01*
X128130300Y-82875855D01*
X128126705Y-82864004D01*
X128087055Y-82789824D01*
X128033695Y-82724805D01*
X127968676Y-82671445D01*
X127894496Y-82631795D01*
X127814007Y-82607378D01*
X127730300Y-82599134D01*
X127068637Y-82599134D01*
X127079332Y-82490540D01*
X127076260Y-81949790D01*
X126917510Y-81791040D01*
X125954260Y-81791040D01*
X125954260Y-81811040D01*
X125953260Y-81811040D01*
X125953260Y-81791040D01*
X125933260Y-81791040D01*
X125933260Y-81790040D01*
X125953260Y-81790040D01*
X125953260Y-80614290D01*
X125954260Y-80614290D01*
X125954260Y-81790040D01*
X126917510Y-81790040D01*
X127076260Y-81631290D01*
X127079332Y-81090540D01*
X127067072Y-80966058D01*
X127030762Y-80846360D01*
X126971797Y-80736046D01*
X126892445Y-80639355D01*
X126795754Y-80560003D01*
X126685440Y-80501038D01*
X126565742Y-80464728D01*
X126513472Y-80459580D01*
X130022068Y-80459580D01*
X130034328Y-80584062D01*
X130070638Y-80703760D01*
X130129603Y-80814074D01*
X130208955Y-80910765D01*
X130305646Y-80990117D01*
X130415960Y-81049082D01*
X130535658Y-81085392D01*
X130660140Y-81097652D01*
X131262890Y-81094580D01*
X131421640Y-80935830D01*
X131421640Y-78428080D01*
X130183890Y-78428080D01*
X130025140Y-78586830D01*
X130022068Y-80459580D01*
X126513472Y-80459580D01*
X126441260Y-80452468D01*
X126113010Y-80455540D01*
X125954260Y-80614290D01*
X125953260Y-80614290D01*
X125794510Y-80455540D01*
X125466260Y-80452468D01*
X125341778Y-80464728D01*
X125222080Y-80501038D01*
X125111766Y-80560003D01*
X125015075Y-80639355D01*
X124935723Y-80736046D01*
X124876758Y-80846360D01*
X124852877Y-80925085D01*
X124798263Y-80858537D01*
X124696307Y-80774864D01*
X124579986Y-80712689D01*
X124453770Y-80674402D01*
X124322510Y-80661474D01*
X123835010Y-80661474D01*
X123703750Y-80674402D01*
X123577534Y-80712689D01*
X123461213Y-80774864D01*
X123359257Y-80858537D01*
X123286520Y-80947167D01*
X123213783Y-80858537D01*
X123131710Y-80791181D01*
X123226483Y-80713403D01*
X123310156Y-80611447D01*
X123372331Y-80495126D01*
X123410618Y-80368910D01*
X123423546Y-80237650D01*
X123423546Y-79325150D01*
X123410618Y-79193890D01*
X123372331Y-79067674D01*
X123331721Y-78991699D01*
X123348974Y-78982477D01*
X123445665Y-78903125D01*
X123525017Y-78806434D01*
X123583982Y-78696120D01*
X123620292Y-78576422D01*
X123632552Y-78451940D01*
X123629480Y-77911190D01*
X123470730Y-77752440D01*
X122507480Y-77752440D01*
X122507480Y-77772440D01*
X122506480Y-77772440D01*
X122506480Y-77752440D01*
X122486480Y-77752440D01*
X122486480Y-77751440D01*
X122506480Y-77751440D01*
X122506480Y-77731440D01*
X122507480Y-77731440D01*
X122507480Y-77751440D01*
X123470730Y-77751440D01*
X123629480Y-77592690D01*
X123632552Y-77051940D01*
X123620292Y-76927458D01*
X123583982Y-76807760D01*
X123525017Y-76697446D01*
X123445665Y-76600755D01*
X123439530Y-76595720D01*
X130022396Y-76595720D01*
X130025140Y-78268330D01*
G36*
X138509391Y-76623225D02*
G01*
X138756779Y-76697917D01*
X138984951Y-76819238D01*
X139185216Y-76982570D01*
X139349937Y-77181683D01*
X139472850Y-77409004D01*
X139549268Y-77655870D01*
X139578601Y-77934957D01*
X139578601Y-84200267D01*
X139561522Y-84026864D01*
X139488502Y-83786149D01*
X139369924Y-83564304D01*
X139210344Y-83369856D01*
X139015896Y-83210276D01*
X138794051Y-83091698D01*
X138553336Y-83018678D01*
X138365726Y-83000200D01*
X138240274Y-83000200D01*
X138052664Y-83018678D01*
X137811949Y-83091698D01*
X137590104Y-83210276D01*
X137418388Y-83351200D01*
X136159366Y-83351200D01*
X136159366Y-83028200D01*
X136151122Y-82944493D01*
X136126705Y-82864004D01*
X136087055Y-82789824D01*
X136038246Y-82730351D01*
X136029598Y-82645207D01*
X136013002Y-82562902D01*
X135997536Y-82480260D01*
X135993838Y-82467857D01*
X135879715Y-82094580D01*
X135847447Y-82017062D01*
X135816226Y-81939003D01*
X135810189Y-81927554D01*
X135625737Y-81583553D01*
X135579032Y-81513787D01*
X135533239Y-81443271D01*
X135525093Y-81433213D01*
X135277338Y-81131591D01*
X135197619Y-81051872D01*
X135187556Y-81036377D01*
X135179410Y-81026319D01*
X134989348Y-80794933D01*
X134989117Y-80794504D01*
X135027535Y-80762975D01*
X135080895Y-80697956D01*
X135120545Y-80623776D01*
X135123460Y-80614167D01*
X135150638Y-80703760D01*
X135209603Y-80814074D01*
X135288955Y-80910765D01*
X135385646Y-80990117D01*
X135495960Y-81049082D01*
X135615658Y-81085392D01*
X135740140Y-81097652D01*
X136342890Y-81094580D01*
X136501640Y-80935830D01*
X136501640Y-78428080D01*
X136502640Y-78428080D01*
X136502640Y-80935830D01*
X136661390Y-81094580D01*
X137264140Y-81097652D01*
X137388622Y-81085392D01*
X137508320Y-81049082D01*
X137618634Y-80990117D01*
X137715325Y-80910765D01*
X137794677Y-80814074D01*
X137853642Y-80703760D01*
X137889952Y-80584062D01*
X137902212Y-80459580D01*
X137899140Y-78586830D01*
X137740390Y-78428080D01*
X136502640Y-78428080D01*
X136501640Y-78428080D01*
X136481640Y-78428080D01*
X136481640Y-78427080D01*
X136501640Y-78427080D01*
X136501640Y-78407080D01*
X136502640Y-78407080D01*
X136502640Y-78427080D01*
X137740390Y-78427080D01*
X137899140Y-78268330D01*
X137901884Y-76595720D01*
X138228867Y-76595720D01*
X138509391Y-76623225D01*
X138509391Y-76623225D01*
G37*
X138509391Y-76623225D02*
X138756779Y-76697917D01*
X138984951Y-76819238D01*
X139185216Y-76982570D01*
X139349937Y-77181683D01*
X139472850Y-77409004D01*
X139549268Y-77655870D01*
X139578601Y-77934957D01*
X139578601Y-84200267D01*
X139561522Y-84026864D01*
X139488502Y-83786149D01*
X139369924Y-83564304D01*
X139210344Y-83369856D01*
X139015896Y-83210276D01*
X138794051Y-83091698D01*
X138553336Y-83018678D01*
X138365726Y-83000200D01*
X138240274Y-83000200D01*
X138052664Y-83018678D01*
X137811949Y-83091698D01*
X137590104Y-83210276D01*
X137418388Y-83351200D01*
X136159366Y-83351200D01*
X136159366Y-83028200D01*
X136151122Y-82944493D01*
X136126705Y-82864004D01*
X136087055Y-82789824D01*
X136038246Y-82730351D01*
X136029598Y-82645207D01*
X136013002Y-82562902D01*
X135997536Y-82480260D01*
X135993838Y-82467857D01*
X135879715Y-82094580D01*
X135847447Y-82017062D01*
X135816226Y-81939003D01*
X135810189Y-81927554D01*
X135625737Y-81583553D01*
X135579032Y-81513787D01*
X135533239Y-81443271D01*
X135525093Y-81433213D01*
X135277338Y-81131591D01*
X135197619Y-81051872D01*
X135187556Y-81036377D01*
X135179410Y-81026319D01*
X134989348Y-80794933D01*
X134989117Y-80794504D01*
X135027535Y-80762975D01*
X135080895Y-80697956D01*
X135120545Y-80623776D01*
X135123460Y-80614167D01*
X135150638Y-80703760D01*
X135209603Y-80814074D01*
X135288955Y-80910765D01*
X135385646Y-80990117D01*
X135495960Y-81049082D01*
X135615658Y-81085392D01*
X135740140Y-81097652D01*
X136342890Y-81094580D01*
X136501640Y-80935830D01*
X136501640Y-78428080D01*
X136502640Y-78428080D01*
X136502640Y-80935830D01*
X136661390Y-81094580D01*
X137264140Y-81097652D01*
X137388622Y-81085392D01*
X137508320Y-81049082D01*
X137618634Y-80990117D01*
X137715325Y-80910765D01*
X137794677Y-80814074D01*
X137853642Y-80703760D01*
X137889952Y-80584062D01*
X137902212Y-80459580D01*
X137899140Y-78586830D01*
X137740390Y-78428080D01*
X136502640Y-78428080D01*
X136501640Y-78428080D01*
X136481640Y-78428080D01*
X136481640Y-78427080D01*
X136501640Y-78427080D01*
X136501640Y-78407080D01*
X136502640Y-78407080D01*
X136502640Y-78427080D01*
X137740390Y-78427080D01*
X137899140Y-78268330D01*
X137901884Y-76595720D01*
X138228867Y-76595720D01*
X138509391Y-76623225D01*
G36*
X121568295Y-76600755D02*
G01*
X121488943Y-76697446D01*
X121429978Y-76807760D01*
X121406097Y-76886485D01*
X121351483Y-76819937D01*
X121249527Y-76736264D01*
X121133206Y-76674089D01*
X121006990Y-76635802D01*
X120875730Y-76622874D01*
X120388230Y-76622874D01*
X120256970Y-76635802D01*
X120130754Y-76674089D01*
X120014433Y-76736264D01*
X119912477Y-76819937D01*
X119828804Y-76921893D01*
X119766629Y-77038214D01*
X119728342Y-77164430D01*
X119715414Y-77295690D01*
X119715414Y-78208190D01*
X119728342Y-78339450D01*
X119766629Y-78465666D01*
X119828804Y-78581987D01*
X119912477Y-78683943D01*
X120013280Y-78766670D01*
X119912477Y-78849397D01*
X119828804Y-78951353D01*
X119766629Y-79067674D01*
X119728342Y-79193890D01*
X119715414Y-79325150D01*
X119715414Y-80237650D01*
X119728342Y-80368910D01*
X119766629Y-80495126D01*
X119828804Y-80611447D01*
X119912477Y-80713403D01*
X119994550Y-80780759D01*
X119899777Y-80858537D01*
X119816104Y-80960493D01*
X119753929Y-81076814D01*
X119715642Y-81203030D01*
X119712145Y-81238540D01*
X118745055Y-81238540D01*
X118717957Y-81235871D01*
X118690859Y-81238540D01*
X118690849Y-81238540D01*
X118609747Y-81246528D01*
X118505695Y-81278092D01*
X118409800Y-81329349D01*
X118325747Y-81398329D01*
X118308466Y-81419386D01*
X116643900Y-83083954D01*
X116643900Y-77945453D01*
X116671405Y-77664929D01*
X116746097Y-77417541D01*
X116867418Y-77189369D01*
X117030750Y-76989104D01*
X117229863Y-76824383D01*
X117457184Y-76701470D01*
X117704050Y-76625052D01*
X117983128Y-76595720D01*
X121574430Y-76595720D01*
X121568295Y-76600755D01*
X121568295Y-76600755D01*
G37*
X121568295Y-76600755D02*
X121488943Y-76697446D01*
X121429978Y-76807760D01*
X121406097Y-76886485D01*
X121351483Y-76819937D01*
X121249527Y-76736264D01*
X121133206Y-76674089D01*
X121006990Y-76635802D01*
X120875730Y-76622874D01*
X120388230Y-76622874D01*
X120256970Y-76635802D01*
X120130754Y-76674089D01*
X120014433Y-76736264D01*
X119912477Y-76819937D01*
X119828804Y-76921893D01*
X119766629Y-77038214D01*
X119728342Y-77164430D01*
X119715414Y-77295690D01*
X119715414Y-78208190D01*
X119728342Y-78339450D01*
X119766629Y-78465666D01*
X119828804Y-78581987D01*
X119912477Y-78683943D01*
X120013280Y-78766670D01*
X119912477Y-78849397D01*
X119828804Y-78951353D01*
X119766629Y-79067674D01*
X119728342Y-79193890D01*
X119715414Y-79325150D01*
X119715414Y-80237650D01*
X119728342Y-80368910D01*
X119766629Y-80495126D01*
X119828804Y-80611447D01*
X119912477Y-80713403D01*
X119994550Y-80780759D01*
X119899777Y-80858537D01*
X119816104Y-80960493D01*
X119753929Y-81076814D01*
X119715642Y-81203030D01*
X119712145Y-81238540D01*
X118745055Y-81238540D01*
X118717957Y-81235871D01*
X118690859Y-81238540D01*
X118690849Y-81238540D01*
X118609747Y-81246528D01*
X118505695Y-81278092D01*
X118409800Y-81329349D01*
X118325747Y-81398329D01*
X118308466Y-81419386D01*
X116643900Y-83083954D01*
X116643900Y-77945453D01*
X116671405Y-77664929D01*
X116746097Y-77417541D01*
X116867418Y-77189369D01*
X117030750Y-76989104D01*
X117229863Y-76824383D01*
X117457184Y-76701470D01*
X117704050Y-76625052D01*
X117983128Y-76595720D01*
X121574430Y-76595720D01*
X121568295Y-76600755D01*
M02*
