G04 #@! TF.GenerationSoftware,KiCad,Pcbnew,(5.1.4)-1*
G04 #@! TF.CreationDate,2019-10-27T13:18:03+01:00*
G04 #@! TF.ProjectId,project,70726f6a-6563-4742-9e6b-696361645f70,rev?*
G04 #@! TF.SameCoordinates,Original*
G04 #@! TF.FileFunction,Paste,Top*
G04 #@! TF.FilePolarity,Positive*
%FSLAX46Y46*%
G04 Gerber Fmt 4.6, Leading zero omitted, Abs format (unit mm)*
G04 Created by KiCad (PCBNEW (5.1.4)-1) date 2019-10-27 13:18:03*
%MOMM*%
%LPD*%
G04 APERTURE LIST*
%ADD10R,1.200000X2.500000*%
%ADD11C,0.100000*%
%ADD12C,0.975000*%
%ADD13R,1.524000X4.064000*%
G04 APERTURE END LIST*
D10*
X121130300Y-84278200D03*
X123130300Y-84278200D03*
X125130300Y-84278200D03*
X127130300Y-84278200D03*
X129130300Y-84278200D03*
X131130300Y-84278200D03*
X133130300Y-84278200D03*
X135130300Y-84278200D03*
X135130300Y-100278200D03*
X133130300Y-100278200D03*
X131130300Y-100278200D03*
X129130300Y-100278200D03*
X127130300Y-100278200D03*
X125130300Y-100278200D03*
X123130300Y-100278200D03*
X121130300Y-100278200D03*
D11*
G36*
X124346402Y-81091714D02*
G01*
X124370063Y-81095224D01*
X124393267Y-81101036D01*
X124415789Y-81109094D01*
X124437413Y-81119322D01*
X124457930Y-81131619D01*
X124477143Y-81145869D01*
X124494867Y-81161933D01*
X124510931Y-81179657D01*
X124525181Y-81198870D01*
X124537478Y-81219387D01*
X124547706Y-81241011D01*
X124555764Y-81263533D01*
X124561576Y-81286737D01*
X124565086Y-81310398D01*
X124566260Y-81334290D01*
X124566260Y-82246790D01*
X124565086Y-82270682D01*
X124561576Y-82294343D01*
X124555764Y-82317547D01*
X124547706Y-82340069D01*
X124537478Y-82361693D01*
X124525181Y-82382210D01*
X124510931Y-82401423D01*
X124494867Y-82419147D01*
X124477143Y-82435211D01*
X124457930Y-82449461D01*
X124437413Y-82461758D01*
X124415789Y-82471986D01*
X124393267Y-82480044D01*
X124370063Y-82485856D01*
X124346402Y-82489366D01*
X124322510Y-82490540D01*
X123835010Y-82490540D01*
X123811118Y-82489366D01*
X123787457Y-82485856D01*
X123764253Y-82480044D01*
X123741731Y-82471986D01*
X123720107Y-82461758D01*
X123699590Y-82449461D01*
X123680377Y-82435211D01*
X123662653Y-82419147D01*
X123646589Y-82401423D01*
X123632339Y-82382210D01*
X123620042Y-82361693D01*
X123609814Y-82340069D01*
X123601756Y-82317547D01*
X123595944Y-82294343D01*
X123592434Y-82270682D01*
X123591260Y-82246790D01*
X123591260Y-81334290D01*
X123592434Y-81310398D01*
X123595944Y-81286737D01*
X123601756Y-81263533D01*
X123609814Y-81241011D01*
X123620042Y-81219387D01*
X123632339Y-81198870D01*
X123646589Y-81179657D01*
X123662653Y-81161933D01*
X123680377Y-81145869D01*
X123699590Y-81131619D01*
X123720107Y-81119322D01*
X123741731Y-81109094D01*
X123764253Y-81101036D01*
X123787457Y-81095224D01*
X123811118Y-81091714D01*
X123835010Y-81090540D01*
X124322510Y-81090540D01*
X124346402Y-81091714D01*
X124346402Y-81091714D01*
G37*
D12*
X124078760Y-81790540D03*
D11*
G36*
X126221402Y-81091714D02*
G01*
X126245063Y-81095224D01*
X126268267Y-81101036D01*
X126290789Y-81109094D01*
X126312413Y-81119322D01*
X126332930Y-81131619D01*
X126352143Y-81145869D01*
X126369867Y-81161933D01*
X126385931Y-81179657D01*
X126400181Y-81198870D01*
X126412478Y-81219387D01*
X126422706Y-81241011D01*
X126430764Y-81263533D01*
X126436576Y-81286737D01*
X126440086Y-81310398D01*
X126441260Y-81334290D01*
X126441260Y-82246790D01*
X126440086Y-82270682D01*
X126436576Y-82294343D01*
X126430764Y-82317547D01*
X126422706Y-82340069D01*
X126412478Y-82361693D01*
X126400181Y-82382210D01*
X126385931Y-82401423D01*
X126369867Y-82419147D01*
X126352143Y-82435211D01*
X126332930Y-82449461D01*
X126312413Y-82461758D01*
X126290789Y-82471986D01*
X126268267Y-82480044D01*
X126245063Y-82485856D01*
X126221402Y-82489366D01*
X126197510Y-82490540D01*
X125710010Y-82490540D01*
X125686118Y-82489366D01*
X125662457Y-82485856D01*
X125639253Y-82480044D01*
X125616731Y-82471986D01*
X125595107Y-82461758D01*
X125574590Y-82449461D01*
X125555377Y-82435211D01*
X125537653Y-82419147D01*
X125521589Y-82401423D01*
X125507339Y-82382210D01*
X125495042Y-82361693D01*
X125484814Y-82340069D01*
X125476756Y-82317547D01*
X125470944Y-82294343D01*
X125467434Y-82270682D01*
X125466260Y-82246790D01*
X125466260Y-81334290D01*
X125467434Y-81310398D01*
X125470944Y-81286737D01*
X125476756Y-81263533D01*
X125484814Y-81241011D01*
X125495042Y-81219387D01*
X125507339Y-81198870D01*
X125521589Y-81179657D01*
X125537653Y-81161933D01*
X125555377Y-81145869D01*
X125574590Y-81131619D01*
X125595107Y-81119322D01*
X125616731Y-81109094D01*
X125639253Y-81101036D01*
X125662457Y-81095224D01*
X125686118Y-81091714D01*
X125710010Y-81090540D01*
X126197510Y-81090540D01*
X126221402Y-81091714D01*
X126221402Y-81091714D01*
G37*
D12*
X125953760Y-81790540D03*
D11*
G36*
X122761922Y-81091714D02*
G01*
X122785583Y-81095224D01*
X122808787Y-81101036D01*
X122831309Y-81109094D01*
X122852933Y-81119322D01*
X122873450Y-81131619D01*
X122892663Y-81145869D01*
X122910387Y-81161933D01*
X122926451Y-81179657D01*
X122940701Y-81198870D01*
X122952998Y-81219387D01*
X122963226Y-81241011D01*
X122971284Y-81263533D01*
X122977096Y-81286737D01*
X122980606Y-81310398D01*
X122981780Y-81334290D01*
X122981780Y-82246790D01*
X122980606Y-82270682D01*
X122977096Y-82294343D01*
X122971284Y-82317547D01*
X122963226Y-82340069D01*
X122952998Y-82361693D01*
X122940701Y-82382210D01*
X122926451Y-82401423D01*
X122910387Y-82419147D01*
X122892663Y-82435211D01*
X122873450Y-82449461D01*
X122852933Y-82461758D01*
X122831309Y-82471986D01*
X122808787Y-82480044D01*
X122785583Y-82485856D01*
X122761922Y-82489366D01*
X122738030Y-82490540D01*
X122250530Y-82490540D01*
X122226638Y-82489366D01*
X122202977Y-82485856D01*
X122179773Y-82480044D01*
X122157251Y-82471986D01*
X122135627Y-82461758D01*
X122115110Y-82449461D01*
X122095897Y-82435211D01*
X122078173Y-82419147D01*
X122062109Y-82401423D01*
X122047859Y-82382210D01*
X122035562Y-82361693D01*
X122025334Y-82340069D01*
X122017276Y-82317547D01*
X122011464Y-82294343D01*
X122007954Y-82270682D01*
X122006780Y-82246790D01*
X122006780Y-81334290D01*
X122007954Y-81310398D01*
X122011464Y-81286737D01*
X122017276Y-81263533D01*
X122025334Y-81241011D01*
X122035562Y-81219387D01*
X122047859Y-81198870D01*
X122062109Y-81179657D01*
X122078173Y-81161933D01*
X122095897Y-81145869D01*
X122115110Y-81131619D01*
X122135627Y-81119322D01*
X122157251Y-81109094D01*
X122179773Y-81101036D01*
X122202977Y-81095224D01*
X122226638Y-81091714D01*
X122250530Y-81090540D01*
X122738030Y-81090540D01*
X122761922Y-81091714D01*
X122761922Y-81091714D01*
G37*
D12*
X122494280Y-81790540D03*
D11*
G36*
X120886922Y-81091714D02*
G01*
X120910583Y-81095224D01*
X120933787Y-81101036D01*
X120956309Y-81109094D01*
X120977933Y-81119322D01*
X120998450Y-81131619D01*
X121017663Y-81145869D01*
X121035387Y-81161933D01*
X121051451Y-81179657D01*
X121065701Y-81198870D01*
X121077998Y-81219387D01*
X121088226Y-81241011D01*
X121096284Y-81263533D01*
X121102096Y-81286737D01*
X121105606Y-81310398D01*
X121106780Y-81334290D01*
X121106780Y-82246790D01*
X121105606Y-82270682D01*
X121102096Y-82294343D01*
X121096284Y-82317547D01*
X121088226Y-82340069D01*
X121077998Y-82361693D01*
X121065701Y-82382210D01*
X121051451Y-82401423D01*
X121035387Y-82419147D01*
X121017663Y-82435211D01*
X120998450Y-82449461D01*
X120977933Y-82461758D01*
X120956309Y-82471986D01*
X120933787Y-82480044D01*
X120910583Y-82485856D01*
X120886922Y-82489366D01*
X120863030Y-82490540D01*
X120375530Y-82490540D01*
X120351638Y-82489366D01*
X120327977Y-82485856D01*
X120304773Y-82480044D01*
X120282251Y-82471986D01*
X120260627Y-82461758D01*
X120240110Y-82449461D01*
X120220897Y-82435211D01*
X120203173Y-82419147D01*
X120187109Y-82401423D01*
X120172859Y-82382210D01*
X120160562Y-82361693D01*
X120150334Y-82340069D01*
X120142276Y-82317547D01*
X120136464Y-82294343D01*
X120132954Y-82270682D01*
X120131780Y-82246790D01*
X120131780Y-81334290D01*
X120132954Y-81310398D01*
X120136464Y-81286737D01*
X120142276Y-81263533D01*
X120150334Y-81241011D01*
X120160562Y-81219387D01*
X120172859Y-81198870D01*
X120187109Y-81179657D01*
X120203173Y-81161933D01*
X120220897Y-81145869D01*
X120240110Y-81131619D01*
X120260627Y-81119322D01*
X120282251Y-81109094D01*
X120304773Y-81101036D01*
X120327977Y-81095224D01*
X120351638Y-81091714D01*
X120375530Y-81090540D01*
X120863030Y-81090540D01*
X120886922Y-81091714D01*
X120886922Y-81091714D01*
G37*
D12*
X120619280Y-81790540D03*
D11*
G36*
X122774622Y-77053114D02*
G01*
X122798283Y-77056624D01*
X122821487Y-77062436D01*
X122844009Y-77070494D01*
X122865633Y-77080722D01*
X122886150Y-77093019D01*
X122905363Y-77107269D01*
X122923087Y-77123333D01*
X122939151Y-77141057D01*
X122953401Y-77160270D01*
X122965698Y-77180787D01*
X122975926Y-77202411D01*
X122983984Y-77224933D01*
X122989796Y-77248137D01*
X122993306Y-77271798D01*
X122994480Y-77295690D01*
X122994480Y-78208190D01*
X122993306Y-78232082D01*
X122989796Y-78255743D01*
X122983984Y-78278947D01*
X122975926Y-78301469D01*
X122965698Y-78323093D01*
X122953401Y-78343610D01*
X122939151Y-78362823D01*
X122923087Y-78380547D01*
X122905363Y-78396611D01*
X122886150Y-78410861D01*
X122865633Y-78423158D01*
X122844009Y-78433386D01*
X122821487Y-78441444D01*
X122798283Y-78447256D01*
X122774622Y-78450766D01*
X122750730Y-78451940D01*
X122263230Y-78451940D01*
X122239338Y-78450766D01*
X122215677Y-78447256D01*
X122192473Y-78441444D01*
X122169951Y-78433386D01*
X122148327Y-78423158D01*
X122127810Y-78410861D01*
X122108597Y-78396611D01*
X122090873Y-78380547D01*
X122074809Y-78362823D01*
X122060559Y-78343610D01*
X122048262Y-78323093D01*
X122038034Y-78301469D01*
X122029976Y-78278947D01*
X122024164Y-78255743D01*
X122020654Y-78232082D01*
X122019480Y-78208190D01*
X122019480Y-77295690D01*
X122020654Y-77271798D01*
X122024164Y-77248137D01*
X122029976Y-77224933D01*
X122038034Y-77202411D01*
X122048262Y-77180787D01*
X122060559Y-77160270D01*
X122074809Y-77141057D01*
X122090873Y-77123333D01*
X122108597Y-77107269D01*
X122127810Y-77093019D01*
X122148327Y-77080722D01*
X122169951Y-77070494D01*
X122192473Y-77062436D01*
X122215677Y-77056624D01*
X122239338Y-77053114D01*
X122263230Y-77051940D01*
X122750730Y-77051940D01*
X122774622Y-77053114D01*
X122774622Y-77053114D01*
G37*
D12*
X122506980Y-77751940D03*
D11*
G36*
X120899622Y-77053114D02*
G01*
X120923283Y-77056624D01*
X120946487Y-77062436D01*
X120969009Y-77070494D01*
X120990633Y-77080722D01*
X121011150Y-77093019D01*
X121030363Y-77107269D01*
X121048087Y-77123333D01*
X121064151Y-77141057D01*
X121078401Y-77160270D01*
X121090698Y-77180787D01*
X121100926Y-77202411D01*
X121108984Y-77224933D01*
X121114796Y-77248137D01*
X121118306Y-77271798D01*
X121119480Y-77295690D01*
X121119480Y-78208190D01*
X121118306Y-78232082D01*
X121114796Y-78255743D01*
X121108984Y-78278947D01*
X121100926Y-78301469D01*
X121090698Y-78323093D01*
X121078401Y-78343610D01*
X121064151Y-78362823D01*
X121048087Y-78380547D01*
X121030363Y-78396611D01*
X121011150Y-78410861D01*
X120990633Y-78423158D01*
X120969009Y-78433386D01*
X120946487Y-78441444D01*
X120923283Y-78447256D01*
X120899622Y-78450766D01*
X120875730Y-78451940D01*
X120388230Y-78451940D01*
X120364338Y-78450766D01*
X120340677Y-78447256D01*
X120317473Y-78441444D01*
X120294951Y-78433386D01*
X120273327Y-78423158D01*
X120252810Y-78410861D01*
X120233597Y-78396611D01*
X120215873Y-78380547D01*
X120199809Y-78362823D01*
X120185559Y-78343610D01*
X120173262Y-78323093D01*
X120163034Y-78301469D01*
X120154976Y-78278947D01*
X120149164Y-78255743D01*
X120145654Y-78232082D01*
X120144480Y-78208190D01*
X120144480Y-77295690D01*
X120145654Y-77271798D01*
X120149164Y-77248137D01*
X120154976Y-77224933D01*
X120163034Y-77202411D01*
X120173262Y-77180787D01*
X120185559Y-77160270D01*
X120199809Y-77141057D01*
X120215873Y-77123333D01*
X120233597Y-77107269D01*
X120252810Y-77093019D01*
X120273327Y-77080722D01*
X120294951Y-77070494D01*
X120317473Y-77062436D01*
X120340677Y-77056624D01*
X120364338Y-77053114D01*
X120388230Y-77051940D01*
X120875730Y-77051940D01*
X120899622Y-77053114D01*
X120899622Y-77053114D01*
G37*
D12*
X120631980Y-77751940D03*
D11*
G36*
X120899622Y-79082574D02*
G01*
X120923283Y-79086084D01*
X120946487Y-79091896D01*
X120969009Y-79099954D01*
X120990633Y-79110182D01*
X121011150Y-79122479D01*
X121030363Y-79136729D01*
X121048087Y-79152793D01*
X121064151Y-79170517D01*
X121078401Y-79189730D01*
X121090698Y-79210247D01*
X121100926Y-79231871D01*
X121108984Y-79254393D01*
X121114796Y-79277597D01*
X121118306Y-79301258D01*
X121119480Y-79325150D01*
X121119480Y-80237650D01*
X121118306Y-80261542D01*
X121114796Y-80285203D01*
X121108984Y-80308407D01*
X121100926Y-80330929D01*
X121090698Y-80352553D01*
X121078401Y-80373070D01*
X121064151Y-80392283D01*
X121048087Y-80410007D01*
X121030363Y-80426071D01*
X121011150Y-80440321D01*
X120990633Y-80452618D01*
X120969009Y-80462846D01*
X120946487Y-80470904D01*
X120923283Y-80476716D01*
X120899622Y-80480226D01*
X120875730Y-80481400D01*
X120388230Y-80481400D01*
X120364338Y-80480226D01*
X120340677Y-80476716D01*
X120317473Y-80470904D01*
X120294951Y-80462846D01*
X120273327Y-80452618D01*
X120252810Y-80440321D01*
X120233597Y-80426071D01*
X120215873Y-80410007D01*
X120199809Y-80392283D01*
X120185559Y-80373070D01*
X120173262Y-80352553D01*
X120163034Y-80330929D01*
X120154976Y-80308407D01*
X120149164Y-80285203D01*
X120145654Y-80261542D01*
X120144480Y-80237650D01*
X120144480Y-79325150D01*
X120145654Y-79301258D01*
X120149164Y-79277597D01*
X120154976Y-79254393D01*
X120163034Y-79231871D01*
X120173262Y-79210247D01*
X120185559Y-79189730D01*
X120199809Y-79170517D01*
X120215873Y-79152793D01*
X120233597Y-79136729D01*
X120252810Y-79122479D01*
X120273327Y-79110182D01*
X120294951Y-79099954D01*
X120317473Y-79091896D01*
X120340677Y-79086084D01*
X120364338Y-79082574D01*
X120388230Y-79081400D01*
X120875730Y-79081400D01*
X120899622Y-79082574D01*
X120899622Y-79082574D01*
G37*
D12*
X120631980Y-79781400D03*
D11*
G36*
X122774622Y-79082574D02*
G01*
X122798283Y-79086084D01*
X122821487Y-79091896D01*
X122844009Y-79099954D01*
X122865633Y-79110182D01*
X122886150Y-79122479D01*
X122905363Y-79136729D01*
X122923087Y-79152793D01*
X122939151Y-79170517D01*
X122953401Y-79189730D01*
X122965698Y-79210247D01*
X122975926Y-79231871D01*
X122983984Y-79254393D01*
X122989796Y-79277597D01*
X122993306Y-79301258D01*
X122994480Y-79325150D01*
X122994480Y-80237650D01*
X122993306Y-80261542D01*
X122989796Y-80285203D01*
X122983984Y-80308407D01*
X122975926Y-80330929D01*
X122965698Y-80352553D01*
X122953401Y-80373070D01*
X122939151Y-80392283D01*
X122923087Y-80410007D01*
X122905363Y-80426071D01*
X122886150Y-80440321D01*
X122865633Y-80452618D01*
X122844009Y-80462846D01*
X122821487Y-80470904D01*
X122798283Y-80476716D01*
X122774622Y-80480226D01*
X122750730Y-80481400D01*
X122263230Y-80481400D01*
X122239338Y-80480226D01*
X122215677Y-80476716D01*
X122192473Y-80470904D01*
X122169951Y-80462846D01*
X122148327Y-80452618D01*
X122127810Y-80440321D01*
X122108597Y-80426071D01*
X122090873Y-80410007D01*
X122074809Y-80392283D01*
X122060559Y-80373070D01*
X122048262Y-80352553D01*
X122038034Y-80330929D01*
X122029976Y-80308407D01*
X122024164Y-80285203D01*
X122020654Y-80261542D01*
X122019480Y-80237650D01*
X122019480Y-79325150D01*
X122020654Y-79301258D01*
X122024164Y-79277597D01*
X122029976Y-79254393D01*
X122038034Y-79231871D01*
X122048262Y-79210247D01*
X122060559Y-79189730D01*
X122074809Y-79170517D01*
X122090873Y-79152793D01*
X122108597Y-79136729D01*
X122127810Y-79122479D01*
X122148327Y-79110182D01*
X122169951Y-79099954D01*
X122192473Y-79091896D01*
X122215677Y-79086084D01*
X122239338Y-79082574D01*
X122263230Y-79081400D01*
X122750730Y-79081400D01*
X122774622Y-79082574D01*
X122774622Y-79082574D01*
G37*
D12*
X122506980Y-79781400D03*
D13*
X133962140Y-78427580D03*
X136502140Y-78427580D03*
X131422140Y-78427580D03*
M02*
